Varta-Bold.ufo
<glyph name="one" format="1">
  <advance width="1042"/>
  <unicode hex="0031"/>
  <outline>
    <contour>
      <point x="448" y="175" type="line" name="hr00"/>
      <point x="155" y="175" type="line"/>
      <point x="155" y="0" type="line"/>
      <point x="926" y="0" type="line"/>
      <point x="926" y="175" type="line"/>
      <point x="668" y="175" type="line"/>
      <point x="668" y="1343" type="line"/>
      <point x="501" y="1343" type="line"/>
      <point x="422" y="1295"/>
      <point x="335" y="1261"/>
      <point x="207" y="1238" type="curve"/>
      <point x="207" y="1094" type="line"/>
      <point x="448" y="1108" type="line"/>
    </contour>
  </outline>
</glyph>
<glyph name="four" format="1">
  <advance width="1042"/>
  <unicode hex="0034"/>
  <outline>
    <contour>
      <point x="821" y="341" type="line" name="hr00"/>
      <point x="988" y="341" type="line"/>
      <point x="988" y="513" type="line"/>
      <point x="821" y="513" type="line"/>
      <point x="821" y="1343" type="line"/>
      <point x="563" y="1343" type="line"/>
      <point x="37" y="489" type="line"/>
      <point x="37" y="341" type="line"/>
      <point x="615" y="341" type="line"/>
      <point x="615" y="0" type="line"/>
      <point x="821" y="0" type="line"/>
    </contour>
    <contour>
      <point x="615" y="853" type="curve"/>
      <point x="615" y="513" type="line"/>
      <point x="257" y="513" type="line"/>
      <point x="511" y="922" type="line"/>
      <point x="548" y="990"/>
      <point x="585" y="1067"/>
      <point x="618" y="1133" type="curve"/>
      <point x="626" y="1133" type="line"/>
      <point x="622" y="1059"/>
      <point x="615" y="928"/>
    </contour>
  </outline>
</glyph>
<glyph name="nine" format="1">
  <advance width="1042"/>
  <unicode hex="0039"/>
  <outline>
    <contour>
      <point x="253" y="249" type="curve" name="hr00"/>
      <point x="143" y="115" type="line"/>
      <point x="232" y="29"/>
      <point x="331" y="-25"/>
      <point x="483" y="-25" type="curve" smooth="yes"/>
      <point x="753" y="-25"/>
      <point x="947" y="201"/>
      <point x="947" y="698" type="curve" smooth="yes"/>
      <point x="947" y="1183"/>
      <point x="747" y="1367"/>
      <point x="485" y="1367" type="curve" smooth="yes"/>
      <point x="266" y="1367"/>
      <point x="77" y="1184"/>
      <point x="77" y="926" type="curve" smooth="yes"/>
      <point x="77" y="656"/>
      <point x="230" y="501"/>
      <point x="455" y="501" type="curve" smooth="yes"/>
      <point x="552" y="501"/>
      <point x="673" y="550"/>
      <point x="744" y="647" type="curve"/>
      <point x="740" y="284"/>
      <point x="641" y="155"/>
      <point x="471" y="155" type="curve" smooth="yes"/>
      <point x="392" y="155"/>
      <point x="295" y="198"/>
    </contour>
    <contour>
      <point x="739" y="807" type="curve"/>
      <point x="662" y="694"/>
      <point x="571" y="661"/>
      <point x="494" y="661" type="curve" smooth="yes"/>
      <point x="357" y="661"/>
      <point x="280" y="769"/>
      <point x="280" y="926" type="curve" smooth="yes"/>
      <point x="280" y="1089"/>
      <point x="374" y="1199"/>
      <point x="489" y="1199" type="curve" smooth="yes"/>
      <point x="633" y="1199"/>
      <point x="739" y="1075"/>
    </contour>
  </outline>
</glyph>
<glyph name="B" format="1">
  <advance width="1210"/>
  <unicode hex="0042"/>
  <outline>
    <contour>
      <point x="600" y="1340" type="curve" name="hr01"/>
      <point x="170" y="1340" type="line"/>
      <point x="170" y="0" type="line"/>
      <point x="632" y="0" type="line" smooth="yes"/>
      <point x="928" y="0"/>
      <point x="1137" y="124"/>
      <point x="1137" y="397" type="curve" name="hr02" smooth="yes"/>
      <point x="1137" y="581"/>
      <point x="1028" y="694"/>
      <point x="834" y="712" type="curve"/>
      <point x="834" y="720" type="line"/>
      <point x="1001" y="757"/>
      <point x="1065" y="886"/>
      <point x="1065" y="1016" type="curve" name="hr03" smooth="yes"/>
      <point x="1065" y="1263"/>
      <point x="879" y="1340"/>
    </contour>
    <contour>
      <point x="575" y="780" type="curve"/>
      <point x="392" y="780" type="line"/>
      <point x="392" y="1168" type="line"/>
      <point x="587" y="1168" type="line" smooth="yes"/>
      <point x="768" y="1168"/>
      <point x="849" y="1119"/>
      <point x="849" y="989" type="curve" smooth="yes"/>
      <point x="849" y="856"/>
      <point x="772" y="780"/>
    </contour>
    <contour>
      <point x="608" y="172" type="curve" name="hr04"/>
      <point x="392" y="172" type="line"/>
      <point x="392" y="620" type="line"/>
      <point x="612" y="620" type="line" smooth="yes"/>
      <point x="821" y="620"/>
      <point x="921" y="559"/>
      <point x="921" y="411" type="curve" smooth="yes"/>
      <point x="921" y="246"/>
      <point x="812" y="172"/>
    </contour>
    <contour>
      <point x="625" y="-45" type="move" name="mark0"/>
    </contour>
    <contour>
      <point x="573" y="800" type="move" name="top"/>
    </contour>
  </outline>
</glyph>
<glyph name="F" format="1">
  <advance width="1028"/>
  <unicode hex="0046"/>
  <outline>
    <contour>
      <point x="971" y="1340" type="line" name="hr00"/>
      <point x="170" y="1340" type="line"/>
      <point x="170" y="0" type="line"/>
      <point x="392" y="0" type="line"/>
      <point x="392" y="570" type="line"/>
      <point x="884" y="570" type="line"/>
      <point x="884" y="755" type="line"/>
      <point x="392" y="755" type="line"/>
      <point x="392" y="1155" type="line"/>
      <point x="971" y="1155" type="line"/>
    </contour>
    <contour>
      <point x="292" y="-45" type="move" name="mark0"/>
    </contour>
    <contour>
      <point x="570" y="800" type="move" name="top"/>
    </contour>
  </outline>
</glyph>
<glyph name="H" format="1">
  <advance width="1344"/>
  <unicode hex="0048"/>
  <outline>
    <contour>
      <point x="392" y="1340" type="line" name="hr00"/>
      <point x="170" y="1340" type="line"/>
      <point x="170" y="0" type="line"/>
      <point x="392" y="0" type="line"/>
      <point x="392" y="604" type="line"/>
      <point x="954" y="604" type="line"/>
      <point x="954" y="0" type="line"/>
      <point x="1174" y="0" type="line"/>
      <point x="1174" y="1340" type="line"/>
      <point x="954" y="1340" type="line"/>
      <point x="954" y="796" type="line"/>
      <point x="392" y="796" type="line"/>
    </contour>
    <contour>
      <point x="669" y="-45" type="move" name="mark0"/>
    </contour>
    <contour>
      <point x="672" y="800" type="move" name="top"/>
    </contour>
  </outline>
</glyph>
<glyph name="J" format="1">
  <advance width="997"/>
  <unicode hex="004A"/>
  <outline>
    <contour>
      <point x="201" y="311" type="curve" name="hr00"/>
      <point x="48" y="200" type="line"/>
      <point x="132" y="51"/>
      <point x="260" y="-25"/>
      <point x="443" y="-25" type="curve" smooth="yes"/>
      <point x="719" y="-25"/>
      <point x="834" y="165"/>
      <point x="834" y="406" type="curve" smooth="yes"/>
      <point x="834" y="1340" type="line"/>
      <point x="613" y="1340" type="line"/>
      <point x="613" y="426" type="line" smooth="yes"/>
      <point x="613" y="231"/>
      <point x="549" y="167"/>
      <point x="419" y="167" type="curve" smooth="yes"/>
      <point x="333" y="167"/>
      <point x="259" y="212"/>
    </contour>
    <contour>
      <point x="528" y="-45" type="move" name="mark0"/>
    </contour>
    <contour>
      <point x="686" y="800" type="move" name="top"/>
    </contour>
  </outline>
</glyph>
<glyph name="P" format="1">
  <advance width="1196"/>
  <unicode hex="0050"/>
  <outline>
    <contour>
      <point x="621" y="1340" type="curve" name="hr00"/>
      <point x="170" y="1340" type="line"/>
      <point x="170" y="0" type="line"/>
      <point x="392" y="0" type="line"/>
      <point x="392" y="485" type="line"/>
      <point x="623" y="485" type="line" smooth="yes"/>
      <point x="920" y="485"/>
      <point x="1117" y="632"/>
      <point x="1117" y="925" type="curve" smooth="yes"/>
      <point x="1117" y="1232"/>
      <point x="928" y="1340"/>
    </contour>
    <contour>
      <point x="602" y="663" type="curve"/>
      <point x="392" y="663" type="line"/>
      <point x="392" y="1164" type="line"/>
      <point x="604" y="1164" type="line" smooth="yes"/>
      <point x="815" y="1164"/>
      <point x="900" y="1099"/>
      <point x="900" y="925" type="curve" smooth="yes"/>
      <point x="900" y="755"/>
      <point x="818" y="663"/>
    </contour>
    <contour>
      <point x="296" y="-45" type="move" name="mark0"/>
    </contour>
    <contour>
      <point x="599" y="800" type="move" name="top"/>
    </contour>
  </outline>
</glyph>
<glyph name="T" format="1">
  <advance width="1106"/>
  <unicode hex="0054"/>
  <outline>
    <contour>
      <point x="50" y="1155" type="line" name="hr00"/>
      <point x="443" y="1155" type="line"/>
      <point x="443" y="0" type="line"/>
      <point x="663" y="0" type="line"/>
      <point x="663" y="1155" type="line"/>
      <point x="1055" y="1155" type="line"/>
      <point x="1055" y="1340" type="line"/>
      <point x="50" y="1340" type="line"/>
    </contour>
    <contour>
      <point x="553" y="-45" type="move" name="mark0"/>
    </contour>
    <contour>
      <point x="552" y="800" type="move" name="top"/>
    </contour>
  </outline>
</glyph>
<glyph name="U" format="1">
  <advance width="1329"/>
  <unicode hex="0055"/>
  <outline>
    <contour>
      <point x="385" y="1340" type="line" name="hr00"/>
      <point x="164" y="1340" type="line"/>
      <point x="164" y="571" type="line" smooth="yes"/>
      <point x="164" y="136"/>
      <point x="364" y="-25"/>
      <point x="665" y="-25" type="curve" smooth="yes"/>
      <point x="967" y="-25"/>
      <point x="1166" y="134"/>
      <point x="1166" y="571" type="curve" smooth="yes"/>
      <point x="1166" y="1340" type="line"/>
      <point x="954" y="1340" type="line"/>
      <point x="954" y="557" type="line" smooth="yes"/>
      <point x="954" y="258"/>
      <point x="833" y="167"/>
      <point x="665" y="167" type="curve" smooth="yes"/>
      <point x="500" y="167"/>
      <point x="385" y="259"/>
      <point x="385" y="557" type="curve" smooth="yes"/>
    </contour>
    <contour>
      <point x="665" y="800" type="move" name="top"/>
    </contour>
  </outline>
</glyph>
<glyph name="backslash" format="1">
  <advance width="708"/>
  <unicode hex="005C"/>
  <outline>
    <contour>
      <point x="190" y="1454" type="line" name="hr00"/>
      <point x="40" y="1454" type="line"/>
      <point x="533" y="-328" type="line"/>
      <point x="685" y="-328" type="line"/>
    </contour>
  </outline>
</glyph>
<glyph name="d" format="1">
  <advance width="1151"/>
  <unicode hex="0064"/>
  <outline>
    <contour>
      <point x="518" y="1028" type="curve" name="hr01" smooth="yes"/>
      <point x="289" y="1028"/>
      <point x="90" y="837"/>
      <point x="90" y="502" type="curve" smooth="yes"/>
      <point x="90" y="161"/>
      <point x="255" y="-25"/>
      <point x="503" y="-25" type="curve" smooth="yes"/>
      <point x="613" y="-25"/>
      <point x="717" y="36"/>
      <point x="793" y="111" type="curve"/>
      <point x="799" y="111" type="line"/>
      <point x="816" y="0" type="line" name="hr02"/>
      <point x="996" y="0" type="line"/>
      <point x="996" y="1450" type="line"/>
      <point x="776" y="1450" type="line"/>
      <point x="776" y="1081" type="line"/>
      <point x="786" y="916" type="line"/>
      <point x="705" y="985"/>
      <point x="632" y="1028"/>
    </contour>
    <contour>
      <point x="556" y="157" type="curve" smooth="yes"/>
      <point x="398" y="157"/>
      <point x="314" y="275"/>
      <point x="314" y="505" type="curve" smooth="yes"/>
      <point x="314" y="725"/>
      <point x="421" y="847"/>
      <point x="562" y="847" type="curve" smooth="yes"/>
      <point x="634" y="847"/>
      <point x="704" y="823"/>
      <point x="776" y="757" type="curve"/>
      <point x="776" y="277" type="line"/>
      <point x="707" y="194"/>
      <point x="638" y="157"/>
    </contour>
    <contour>
      <point x="625" y="-45" type="move" name="mark0"/>
    </contour>
    <contour>
      <point x="543" y="800" type="move" name="top"/>
    </contour>
  </outline>
</glyph>
<glyph name="braceleft" format="1">
  <advance width="653"/>
  <unicode hex="007B"/>
  <outline>
    <contour>
      <point x="244" y="346" type="curve" name="hr01" smooth="yes"/>
      <point x="244" y="212"/>
      <point x="224" y="116"/>
      <point x="224" y="-32" type="curve" smooth="yes"/>
      <point x="224" y="-247"/>
      <point x="303" y="-311"/>
      <point x="471" y="-311" type="curve" smooth="yes"/>
      <point x="578" y="-311" type="line"/>
      <point x="578" y="-191" type="line"/>
      <point x="528" y="-191" type="line" smooth="yes"/>
      <point x="429" y="-191"/>
      <point x="402" y="-146"/>
      <point x="402" y="-21" type="curve" smooth="yes"/>
      <point x="402" y="98"/>
      <point x="413" y="202"/>
      <point x="413" y="336" type="curve" smooth="yes"/>
      <point x="413" y="476"/>
      <point x="373" y="541"/>
      <point x="279" y="565" type="curve"/>
      <point x="279" y="573" type="line"/>
      <point x="373" y="598"/>
      <point x="413" y="661"/>
      <point x="413" y="803" type="curve" smooth="yes"/>
      <point x="413" y="927"/>
      <point x="402" y="1045"/>
      <point x="402" y="1159" type="curve" smooth="yes"/>
      <point x="402" y="1285"/>
      <point x="429" y="1328"/>
      <point x="528" y="1328" type="curve" smooth="yes"/>
      <point x="578" y="1328" type="line"/>
      <point x="578" y="1450" type="line"/>
      <point x="471" y="1450" type="line" smooth="yes"/>
      <point x="303" y="1450"/>
      <point x="224" y="1383"/>
      <point x="224" y="1171" type="curve" smooth="yes"/>
      <point x="224" y="1028"/>
      <point x="244" y="919"/>
      <point x="244" y="791" type="curve" smooth="yes"/>
      <point x="244" y="715"/>
      <point x="204" y="639"/>
      <point x="67" y="636" type="curve"/>
      <point x="67" y="503" type="line" name="hr02"/>
      <point x="204" y="500"/>
      <point x="244" y="423"/>
    </contour>
  </outline>
</glyph>
<glyph name="currency" format="1">
  <advance width="1042"/>
  <unicode hex="00A4"/>
  <outline>
    <contour>
      <point x="177" y="441" type="curve" name="hr00"/>
      <point x="48" y="310" type="line"/>
      <point x="161" y="195" type="line"/>
      <point x="302" y="338" type="line"/>
      <point x="365" y="294"/>
      <point x="442" y="271"/>
      <point x="522" y="271" type="curve" smooth="yes"/>
      <point x="598" y="271"/>
      <point x="677" y="294"/>
      <point x="740" y="338" type="curve"/>
      <point x="880" y="195" type="line"/>
      <point x="994" y="310" type="line"/>
      <point x="863" y="441" type="line"/>
      <point x="909" y="504"/>
      <point x="937" y="582"/>
      <point x="937" y="675" type="curve" smooth="yes"/>
      <point x="937" y="766"/>
      <point x="910" y="846"/>
      <point x="863" y="908" type="curve"/>
      <point x="994" y="1040" type="line"/>
      <point x="880" y="1155" type="line"/>
      <point x="741" y="1011" type="line"/>
      <point x="677" y="1055"/>
      <point x="598" y="1078"/>
      <point x="522" y="1078" type="curve" smooth="yes"/>
      <point x="442" y="1078"/>
      <point x="365" y="1055"/>
      <point x="302" y="1011" type="curve"/>
      <point x="161" y="1155" type="line"/>
      <point x="48" y="1040" type="line"/>
      <point x="176" y="908" type="line"/>
      <point x="131" y="846"/>
      <point x="105" y="766"/>
      <point x="105" y="675" type="curve" smooth="yes"/>
      <point x="105" y="582"/>
      <point x="131" y="504"/>
    </contour>
    <contour>
      <point x="522" y="428" type="curve" smooth="yes"/>
      <point x="402" y="428"/>
      <point x="304" y="526"/>
      <point x="304" y="675" type="curve" smooth="yes"/>
      <point x="304" y="822"/>
      <point x="402" y="921"/>
      <point x="522" y="921" type="curve" smooth="yes"/>
      <point x="640" y="921"/>
      <point x="739" y="822"/>
      <point x="739" y="675" type="curve" smooth="yes"/>
      <point x="739" y="526"/>
      <point x="640" y="428"/>
    </contour>
  </outline>
</glyph>
<glyph name="dieresis" format="1">
  <advance width="1120"/>
  <unicode hex="00A8"/>
  <outline>
    <contour>
      <point x="258" y="1308" type="curve" name="hr00" smooth="yes"/>
      <point x="258" y="1241"/>
      <point x="306" y="1191"/>
      <point x="374" y="1191" type="curve" smooth="yes"/>
      <point x="442" y="1191"/>
      <point x="490" y="1241"/>
      <point x="490" y="1308" type="curve" smooth="yes"/>
      <point x="490" y="1374"/>
      <point x="442" y="1424"/>
      <point x="374" y="1424" type="curve" smooth="yes"/>
      <point x="306" y="1424"/>
      <point x="258" y="1374"/>
    </contour>
    <contour>
      <point x="631" y="1308" type="curve" smooth="yes"/>
      <point x="631" y="1241"/>
      <point x="679" y="1191"/>
      <point x="747" y="1191" type="curve" smooth="yes"/>
      <point x="816" y="1191"/>
      <point x="863" y="1241"/>
      <point x="863" y="1308" type="curve" smooth="yes"/>
      <point x="863" y="1374"/>
      <point x="816" y="1424"/>
      <point x="747" y="1424" type="curve" smooth="yes"/>
      <point x="679" y="1424"/>
      <point x="631" y="1374"/>
    </contour>
    <contour>
      <point x="560" y="800" type="move" name="_top"/>
    </contour>
  </outline>
</glyph>
<glyph name="logicalnot" format="1">
  <advance width="1042"/>
  <unicode hex="00AC"/>
  <outline>
    <contour>
      <point x="972" y="755" type="line" name="hr00"/>
      <point x="70" y="755" type="line"/>
      <point x="70" y="596" type="line"/>
      <point x="805" y="596" type="line"/>
      <point x="805" y="205" type="line"/>
      <point x="972" y="205" type="line"/>
    </contour>
  </outline>
</glyph>
<glyph name="three.sups" format="1">
  <advance width="759"/>
  <unicode hex="00B3"/>
  <outline>
    <contour>
      <point x="171" y="1116" type="curve" name="hr01"/>
      <point x="66" y="1034" type="line"/>
      <point x="130" y="939"/>
      <point x="241" y="877"/>
      <point x="374" y="877" type="curve" smooth="yes"/>
      <point x="532" y="877"/>
      <point x="667" y="972"/>
      <point x="667" y="1119" type="curve" smooth="yes"/>
      <point x="667" y="1221"/>
      <point x="592" y="1288"/>
      <point x="505" y="1315" type="curve"/>
      <point x="584" y="1355"/>
      <point x="637" y="1416"/>
      <point x="637" y="1506" type="curve" name="hr02" smooth="yes"/>
      <point x="637" y="1643"/>
      <point x="514" y="1724"/>
      <point x="373" y="1724" type="curve" smooth="yes"/>
      <point x="257" y="1724"/>
      <point x="175" y="1676"/>
      <point x="98" y="1591" type="curve"/>
      <point x="195" y="1506" type="line"/>
      <point x="237" y="1557"/>
      <point x="289" y="1596"/>
      <point x="345" y="1596" type="curve" smooth="yes"/>
      <point x="423" y="1596"/>
      <point x="474" y="1552"/>
      <point x="474" y="1484" type="curve" smooth="yes"/>
      <point x="474" y="1408"/>
      <point x="400" y="1358"/>
      <point x="277" y="1358" type="curve"/>
      <point x="277" y="1258" type="line"/>
      <point x="423" y="1258"/>
      <point x="503" y="1214"/>
      <point x="503" y="1130" type="curve" name="hr03" smooth="yes"/>
      <point x="503" y="1050"/>
      <point x="439" y="1005"/>
      <point x="360" y="1005" type="curve" smooth="yes"/>
      <point x="284" y="1005"/>
      <point x="220" y="1045"/>
    </contour>
  </outline>
</glyph>
<glyph name="acute" format="1">
  <advance width="1120"/>
  <unicode hex="00B4"/>
  <outline>
    <contour>
      <point x="414" y="1175" type="line" name="hr00"/>
      <point x="578" y="1175" type="line"/>
      <point x="817" y="1470" type="line"/>
      <point x="598" y="1470" type="line"/>
    </contour>
    <contour>
      <point x="482" y="800" type="move" name="_top"/>
    </contour>
  </outline>
</glyph>
<glyph name="uni00B5" format="1">
  <advance width="1144"/>
  <unicode hex="00B5"/>
  <outline>
    <contour>
      <point x="373" y="1003" type="line" name="hr01"/>
      <point x="155" y="1003" type="line"/>
      <point x="155" y="-410" type="line"/>
      <point x="373" y="-410" type="line"/>
      <point x="373" y="-126" type="line"/>
      <point x="360" y="59" type="line"/>
      <point x="403" y="0"/>
      <point x="457" y="-13"/>
      <point x="525" y="-13" type="curve" smooth="yes"/>
      <point x="631" y="-13"/>
      <point x="720" y="47"/>
      <point x="788" y="150" type="curve"/>
      <point x="793" y="150" type="line"/>
      <point x="811" y="0" type="line" name="hr02"/>
      <point x="990" y="0" type="line"/>
      <point x="990" y="1003" type="line"/>
      <point x="772" y="1003" type="line"/>
      <point x="772" y="310" type="line"/>
      <point x="691" y="207"/>
      <point x="630" y="163"/>
      <point x="537" y="163" type="curve" name="hr03" smooth="yes"/>
      <point x="424" y="163"/>
      <point x="373" y="231"/>
      <point x="373" y="401" type="curve" smooth="yes"/>
    </contour>
  </outline>
</glyph>
<glyph name="paragraph" format="1">
  <advance width="1207"/>
  <unicode hex="00B6"/>
  <outline>
    <contour>
      <point x="82" y="896" type="curve" name="hr00" smooth="yes"/>
      <point x="82" y="585"/>
      <point x="308" y="440"/>
      <point x="603" y="440" type="curve" smooth="yes"/>
      <point x="658" y="440" type="line"/>
      <point x="658" y="1340" type="line"/>
      <point x="586" y="1340" type="line" smooth="yes"/>
      <point x="303" y="1340"/>
      <point x="82" y="1227"/>
    </contour>
    <contour>
      <point x="1010" y="1340" type="line"/>
      <point x="788" y="1340" type="line"/>
      <point x="788" y="-164" type="line"/>
      <point x="1010" y="-164" type="line"/>
    </contour>
  </outline>
</glyph>
<glyph name="Eth" format="1">
  <advance width="1313"/>
  <unicode hex="00D0"/>
  <outline>
    <contour>
      <point x="566" y="1340" type="curve" name="hr00"/>
      <point x="214" y="1340" type="line"/>
      <point x="214" y="757" type="line"/>
      <point x="58" y="748" type="line"/>
      <point x="58" y="641" type="line"/>
      <point x="214" y="641" type="line"/>
      <point x="214" y="0" type="line"/>
      <point x="577" y="0" type="line" smooth="yes"/>
      <point x="977" y="0"/>
      <point x="1214" y="237"/>
      <point x="1214" y="676" type="curve" smooth="yes"/>
      <point x="1214" y="1115"/>
      <point x="977" y="1340"/>
    </contour>
    <contour>
      <point x="551" y="179" type="curve"/>
      <point x="434" y="179" type="line"/>
      <point x="434" y="641" type="line"/>
      <point x="725" y="641" type="line"/>
      <point x="725" y="757" type="line"/>
      <point x="434" y="757" type="line"/>
      <point x="434" y="1161" type="line"/>
      <point x="551" y="1161" type="line" smooth="yes"/>
      <point x="831" y="1161"/>
      <point x="987" y="1007"/>
      <point x="987" y="676" type="curve" smooth="yes"/>
      <point x="987" y="344"/>
      <point x="831" y="179"/>
    </contour>
    <contour>
      <point x="636" y="800" type="move" name="top"/>
    </contour>
  </outline>
</glyph>
<glyph name="Thorn" format="1">
  <advance width="1223"/>
  <unicode hex="00DE"/>
  <outline>
    <contour>
      <point x="395" y="1340" type="line" name="hr00"/>
      <point x="175" y="1340" type="line"/>
      <point x="175" y="0" type="line"/>
      <point x="395" y="0" type="line"/>
      <point x="395" y="286" type="line"/>
      <point x="615" y="286" type="line" smooth="yes"/>
      <point x="906" y="286"/>
      <point x="1122" y="419"/>
      <point x="1122" y="716" type="curve" smooth="yes"/>
      <point x="1122" y="1021"/>
      <point x="910" y="1124"/>
      <point x="615" y="1124" type="curve" smooth="yes"/>
      <point x="395" y="1124" type="line"/>
    </contour>
    <contour>
      <point x="596" y="464" type="curve"/>
      <point x="395" y="464" type="line"/>
      <point x="395" y="946" type="line"/>
      <point x="596" y="946" type="line" smooth="yes"/>
      <point x="800" y="946"/>
      <point x="904" y="888"/>
      <point x="904" y="716" type="curve" smooth="yes"/>
      <point x="904" y="543"/>
      <point x="804" y="464"/>
    </contour>
    <contour>
      <point x="648" y="800" type="move" name="top"/>
    </contour>
  </outline>
</glyph>
<glyph name="iogonek" format="1">
  <advance width="527"/>
  <unicode hex="012F"/>
  <outline>
    <contour>
      <point x="125" y="1314" type="curve" name="hr01" smooth="yes"/>
      <point x="125" y="1240"/>
      <point x="184" y="1187"/>
      <point x="264" y="1187" type="curve" smooth="yes"/>
      <point x="341" y="1187"/>
      <point x="401" y="1240"/>
      <point x="401" y="1314" type="curve" smooth="yes"/>
      <point x="401" y="1390"/>
      <point x="341" y="1441"/>
      <point x="264" y="1441" type="curve" smooth="yes"/>
      <point x="184" y="1441"/>
      <point x="125" y="1390"/>
    </contour>
    <contour>
      <point x="373" y="1003" type="line" name="hr02"/>
      <point x="155" y="1003" type="line"/>
      <point x="155" y="0" type="line"/>
      <point x="212" y="0" type="line"/>
      <point x="157" y="-51"/>
      <point x="80" y="-132"/>
      <point x="80" y="-246" type="curve" name="hr03" smooth="yes"/>
      <point x="80" y="-364"/>
      <point x="168" y="-425"/>
      <point x="278" y="-425" type="curve" smooth="yes"/>
      <point x="334" y="-425"/>
      <point x="412" y="-399"/>
      <point x="456" y="-365" type="curve" name="hr04"/>
      <point x="406" y="-262" type="line"/>
      <point x="380" y="-276"/>
      <point x="356" y="-287"/>
      <point x="328" y="-287" type="curve" name="hr05" smooth="yes"/>
      <point x="279" y="-287"/>
      <point x="235" y="-259"/>
      <point x="235" y="-199" type="curve" smooth="yes"/>
      <point x="235" y="-127"/>
      <point x="281" y="-52"/>
      <point x="373" y="0" type="curve" name="hr06"/>
    </contour>
  </outline>
</glyph>
<glyph name="kgreenlandic" format="1">
  <advance width="1055"/>
  <unicode hex="0138"/>
  <outline>
    <contour>
      <point x="373" y="1003" type="line" name="hr00"/>
      <point x="155" y="1003" type="line"/>
      <point x="155" y="0" type="line"/>
      <point x="373" y="0" type="line"/>
      <point x="373" y="250" type="line"/>
      <point x="533" y="440" type="line"/>
      <point x="801" y="0" type="line"/>
      <point x="1039" y="0" type="line"/>
      <point x="665" y="597" type="line"/>
      <point x="1001" y="1003" type="line"/>
      <point x="761" y="1003" type="line"/>
      <point x="379" y="520" type="line"/>
      <point x="373" y="520" type="line"/>
    </contour>
  </outline>
</glyph>
<glyph name="Lslash" format="1">
  <advance width="1022"/>
  <unicode hex="0141"/>
  <outline>
    <contour>
      <point x="963" y="0" type="line" name="hr00"/>
      <point x="963" y="187" type="line"/>
      <point x="400" y="187" type="line"/>
      <point x="400" y="568" type="line"/>
      <point x="774" y="769" type="line"/>
      <point x="774" y="944" type="line"/>
      <point x="400" y="742" type="line"/>
      <point x="400" y="1340" type="line"/>
      <point x="179" y="1340" type="line"/>
      <point x="179" y="634" type="line"/>
      <point x="20" y="550" type="line"/>
      <point x="20" y="376" type="line"/>
      <point x="179" y="460" type="line"/>
      <point x="179" y="0" type="line"/>
    </contour>
  </outline>
</glyph>
<glyph name="Tbar" format="1">
  <advance width="1106"/>
  <unicode hex="0166"/>
  <outline>
    <contour>
      <point x="859" y="661" type="line" name="hr00"/>
      <point x="236" y="661" type="line"/>
      <point x="236" y="486" type="line"/>
      <point x="859" y="486" type="line"/>
    </contour>
    <component base="T"/>
  </outline>
</glyph>
<glyph name="ohorn" format="1">
  <advance width="1120"/>
  <unicode hex="01A1"/>
  <outline>
    <contour>
      <point x="1014" y="1275" type="curve" name="hr01"/>
      <point x="860" y="1204" type="line"/>
      <point x="877" y="1179"/>
      <point x="891" y="1148"/>
      <point x="891" y="1115" type="curve" smooth="yes"/>
      <point x="891" y="1039"/>
      <point x="838" y="1002"/>
      <point x="754" y="986" type="curve"/>
      <point x="693" y="1014"/>
      <point x="628" y="1028"/>
      <point x="560" y="1028" type="curve" smooth="yes"/>
      <point x="311" y="1028"/>
      <point x="86" y="835"/>
      <point x="86" y="501" type="curve" smooth="yes"/>
      <point x="86" y="168"/>
      <point x="311" y="-25"/>
      <point x="560" y="-25" type="curve" smooth="yes"/>
      <point x="809" y="-25"/>
      <point x="1034" y="168"/>
      <point x="1034" y="501" type="curve" name="hr02" smooth="yes"/>
      <point x="1034" y="679"/>
      <point x="969" y="817"/>
      <point x="872" y="907" type="curve"/>
      <point x="978" y="938"/>
      <point x="1065" y="1004"/>
      <point x="1065" y="1130" type="curve" name="hr03" smooth="yes"/>
      <point x="1065" y="1188"/>
      <point x="1042" y="1238"/>
    </contour>
    <contour>
      <point x="809" y="501" type="curve" name="hr04" smooth="yes"/>
      <point x="809" y="292"/>
      <point x="714" y="155"/>
      <point x="560" y="155" type="curve" smooth="yes"/>
      <point x="408" y="155"/>
      <point x="312" y="292"/>
      <point x="312" y="501" type="curve" smooth="yes"/>
      <point x="312" y="709"/>
      <point x="408" y="849"/>
      <point x="560" y="849" type="curve" smooth="yes"/>
      <point x="714" y="849"/>
      <point x="809" y="709"/>
    </contour>
    <contour>
      <point x="560" y="-45" type="move" name="mark0"/>
    </contour>
  </outline>
</glyph>
<glyph name="dotlessj" format="1">
  <advance width="532"/>
  <unicode hex="0237"/>
  <outline>
    <contour>
      <point x="378" y="-64" type="curve" name="hr00"/>
      <point x="378" y="1004" type="line"/>
      <point x="156" y="1004" type="line"/>
      <point x="156" y="-67" type="line" smooth="yes"/>
      <point x="156" y="-184"/>
      <point x="130" y="-249"/>
      <point x="40" y="-249" type="curve" smooth="yes"/>
      <point x="7" y="-249"/>
      <point x="-24" y="-242"/>
      <point x="-49" y="-234" type="curve"/>
      <point x="-91" y="-399" type="line"/>
      <point x="-54" y="-414"/>
      <point x="-2" y="-426"/>
      <point x="69" y="-426" type="curve" smooth="yes"/>
      <point x="299" y="-426"/>
      <point x="378" y="-274"/>
    </contour>
    <contour>
      <point x="269" y="1049" type="move" name="mark0"/>
    </contour>
    <contour>
      <point x="143" y="800" type="move" name="top"/>
    </contour>
  </outline>
</glyph>
<glyph name="j.sups" format="1">
  <advance width="362"/>
  <unicode hex="02B2"/>
  <outline>
    <contour>
      <point x="85" y="1402" type="curve" name="hr01" smooth="yes"/>
      <point x="85" y="1349"/>
      <point x="126" y="1311"/>
      <point x="184" y="1311" type="curve" smooth="yes"/>
      <point x="241" y="1311"/>
      <point x="283" y="1349"/>
      <point x="283" y="1402" type="curve" smooth="yes"/>
      <point x="283" y="1454"/>
      <point x="241" y="1492"/>
      <point x="184" y="1492" type="curve" smooth="yes"/>
      <point x="126" y="1492"/>
      <point x="85" y="1454"/>
    </contour>
    <contour>
      <point x="-29" y="382" type="curve"/>
      <point x="-59" y="259" type="line"/>
      <point x="-29" y="250"/>
      <point x="-1" y="243"/>
      <point x="50" y="243" type="curve" smooth="yes"/>
      <point x="207" y="243"/>
      <point x="263" y="348"/>
      <point x="263" y="494" type="curve" name="hr02" smooth="yes"/>
      <point x="263" y="1197" type="line"/>
      <point x="103" y="1197" type="line"/>
      <point x="103" y="486" type="line" smooth="yes"/>
      <point x="103" y="410"/>
      <point x="87" y="372"/>
      <point x="28" y="372" type="curve" smooth="yes"/>
      <point x="2" y="372"/>
      <point x="-13" y="376"/>
    </contour>
  </outline>
</glyph>
<glyph name="r.sups" format="1">
  <advance width="517"/>
  <unicode hex="02B3"/>
  <outline>
    <contour>
      <point x="228" y="1197" type="line" name="hr00"/>
      <point x="98" y="1197" type="line"/>
      <point x="98" y="532" type="line"/>
      <point x="260" y="532" type="line"/>
      <point x="260" y="937" type="line"/>
      <point x="302" y="1036"/>
      <point x="365" y="1071"/>
      <point x="419" y="1071" type="curve" smooth="yes"/>
      <point x="444" y="1071"/>
      <point x="472" y="1064"/>
      <point x="488" y="1060" type="curve"/>
      <point x="518" y="1199" type="line"/>
      <point x="501" y="1208"/>
      <point x="473" y="1214"/>
      <point x="437" y="1214" type="curve" smooth="yes"/>
      <point x="367" y="1214"/>
      <point x="300" y="1168"/>
      <point x="248" y="1081" type="curve"/>
      <point x="242" y="1081" type="line"/>
    </contour>
  </outline>
</glyph>
<glyph name="uni02BE" format="1">
  <advance width="318"/>
  <unicode hex="02BE"/>
  <outline>
    <contour>
      <point x="58" y="1203" type="curve" name="hr00"/>
      <point x="58" y="1115" type="line"/>
      <point x="217" y="1109"/>
      <point x="300" y="1190"/>
      <point x="300" y="1312" type="curve" smooth="yes"/>
      <point x="300" y="1433"/>
      <point x="217" y="1514"/>
      <point x="58" y="1508" type="curve"/>
      <point x="58" y="1421" type="line"/>
      <point x="150" y="1421"/>
      <point x="184" y="1376"/>
      <point x="184" y="1312" type="curve" smooth="yes"/>
      <point x="184" y="1247"/>
      <point x="150" y="1203"/>
    </contour>
  </outline>
</glyph>
<glyph name="uni02BF" format="1">
  <advance width="337"/>
  <unicode hex="02BF"/>
  <outline>
    <contour>
      <point x="277" y="1421" type="curve" name="hr00"/>
      <point x="277" y="1508" type="line"/>
      <point x="118" y="1514"/>
      <point x="36" y="1433"/>
      <point x="36" y="1312" type="curve" smooth="yes"/>
      <point x="36" y="1190"/>
      <point x="118" y="1109"/>
      <point x="277" y="1115" type="curve"/>
      <point x="277" y="1203" type="line"/>
      <point x="185" y="1203"/>
      <point x="151" y="1247"/>
      <point x="151" y="1312" type="curve" smooth="yes"/>
      <point x="151" y="1376"/>
      <point x="185" y="1421"/>
    </contour>
  </outline>
</glyph>
<glyph name="uni02CA" format="1">
  <advance width="469"/>
  <unicode hex="02CA"/>
  <outline>
    <contour>
      <point x="86" y="1175" type="line" name="hr00"/>
      <point x="250" y="1175" type="line"/>
      <point x="490" y="1470" type="line"/>
      <point x="270" y="1470" type="line"/>
    </contour>
  </outline>
</glyph>
<glyph name="tilde" format="1">
  <advance width="1120"/>
  <unicode hex="02DC"/>
  <outline>
    <contour>
      <point x="433" y="1421" type="curve" name="hr01" smooth="yes"/>
      <point x="331" y="1421"/>
      <point x="263" y="1330"/>
      <point x="254" y="1183" type="curve"/>
      <point x="373" y="1183" type="line"/>
      <point x="382" y="1253"/>
      <point x="403" y="1284"/>
      <point x="442" y="1284" type="curve" smooth="yes"/>
      <point x="508" y="1284"/>
      <point x="584" y="1184"/>
      <point x="689" y="1184" type="curve" name="hr02" smooth="yes"/>
      <point x="792" y="1184"/>
      <point x="856" y="1276"/>
      <point x="866" y="1422" type="curve"/>
      <point x="748" y="1422" type="line"/>
      <point x="739" y="1354"/>
      <point x="717" y="1323"/>
      <point x="678" y="1323" type="curve" smooth="yes"/>
      <point x="614" y="1323"/>
      <point x="539" y="1421"/>
    </contour>
    <contour>
      <point x="560" y="800" type="move" name="_top"/>
    </contour>
  </outline>
</glyph>
<glyph name="uni0301" format="1">
  <advance width="0"/>
  <unicode hex="0301"/>
  <outline>
    <contour>
      <point x="-746" y="1175" type="line" name="hr00"/>
      <point x="-583" y="1175" type="line"/>
      <point x="-343" y="1470" type="line"/>
      <point x="-563" y="1470" type="line"/>
    </contour>
    <contour>
      <point x="-600" y="1048" type="move" name="_mark0"/>
    </contour>
  </outline>
</glyph>
<glyph name="uni0303" format="1">
  <advance width="0"/>
  <unicode hex="0303"/>
  <outline>
    <contour>
      <point x="-722" y="1422" type="curve" name="hr01" smooth="yes"/>
      <point x="-825" y="1422"/>
      <point x="-891" y="1330"/>
      <point x="-906" y="1183" type="curve"/>
      <point x="-788" y="1183" type="line"/>
      <point x="-775" y="1251"/>
      <point x="-754" y="1282"/>
      <point x="-715" y="1282" type="curve" smooth="yes"/>
      <point x="-648" y="1282"/>
      <point x="-584" y="1183"/>
      <point x="-478" y="1183" type="curve" name="hr02" smooth="yes"/>
      <point x="-375" y="1183"/>
      <point x="-309" y="1276"/>
      <point x="-294" y="1422" type="curve"/>
      <point x="-412" y="1422" type="line"/>
      <point x="-425" y="1354"/>
      <point x="-446" y="1323"/>
      <point x="-485" y="1323" type="curve" smooth="yes"/>
      <point x="-549" y="1323"/>
      <point x="-616" y="1422"/>
    </contour>
    <contour>
      <point x="-600" y="1048" type="move" name="_mark0"/>
    </contour>
  </outline>
</glyph>
<glyph name="uni030F" format="1">
  <advance width="0"/>
  <unicode hex="030F"/>
  <outline>
    <contour>
      <point x="-838" y="1171" type="line" name="hr00"/>
      <point x="-697" y="1171" type="line"/>
      <point x="-841" y="1470" type="line"/>
      <point x="-1024" y="1470" type="line"/>
    </contour>
    <contour>
      <point x="-518" y="1171" type="line"/>
      <point x="-378" y="1171" type="line"/>
      <point x="-520" y="1470" type="line"/>
      <point x="-704" y="1470" type="line"/>
    </contour>
    <contour>
      <point x="-600" y="1048" type="move" name="_mark0"/>
    </contour>
  </outline>
</glyph>
<glyph name="uni0312" format="1">
  <advance width="0"/>
  <unicode hex="0312"/>
  <outline>
    <contour>
      <point x="-500" y="1442" type="curve" name="hr00"/>
      <point x="-541" y="1518" type="line"/>
      <point x="-665" y="1465"/>
      <point x="-720" y="1371"/>
      <point x="-720" y="1267" type="curve" smooth="yes"/>
      <point x="-720" y="1168"/>
      <point x="-680" y="1115"/>
      <point x="-604" y="1115" type="curve" smooth="yes"/>
      <point x="-554" y="1115"/>
      <point x="-512" y="1152"/>
      <point x="-512" y="1217" type="curve" smooth="yes"/>
      <point x="-512" y="1275"/>
      <point x="-558" y="1307"/>
      <point x="-605" y="1307" type="curve" smooth="yes"/>
      <point x="-610" y="1307"/>
      <point x="-615" y="1307"/>
      <point x="-621" y="1305" type="curve"/>
      <point x="-615" y="1364"/>
      <point x="-578" y="1410"/>
    </contour>
    <contour>
      <point x="-600" y="1048" type="move" name="_mark0"/>
    </contour>
  </outline>
</glyph>
<glyph name="uni0313" format="1">
  <advance width="0"/>
  <unicode hex="0313"/>
  <outline>
    <contour>
      <point x="-703" y="1188" type="curve" name="hr00"/>
      <point x="-664" y="1112" type="line"/>
      <point x="-539" y="1165"/>
      <point x="-485" y="1258"/>
      <point x="-485" y="1361" type="curve" smooth="yes"/>
      <point x="-485" y="1460"/>
      <point x="-525" y="1513"/>
      <point x="-600" y="1513" type="curve" smooth="yes"/>
      <point x="-650" y="1513"/>
      <point x="-693" y="1477"/>
      <point x="-693" y="1413" type="curve" smooth="yes"/>
      <point x="-693" y="1355"/>
      <point x="-647" y="1323"/>
      <point x="-600" y="1323" type="curve" smooth="yes"/>
      <point x="-594" y="1323"/>
      <point x="-588" y="1323"/>
      <point x="-583" y="1325" type="curve"/>
      <point x="-589" y="1267"/>
      <point x="-627" y="1222"/>
    </contour>
    <contour>
      <point x="-600" y="1048" type="move" name="_mark0"/>
    </contour>
  </outline>
</glyph>
<glyph name="visarga-deva" format="1">
  <advance width="545"/>
  <unicode hex="0903"/>
  <outline>
    <contour>
      <point x="194" y="880"/>
      <point x="159" y="846"/>
      <point x="159" y="766" type="curve" smooth="yes"/>
      <point x="159" y="688"/>
      <point x="194" y="654"/>
      <point x="274" y="654" type="curve" smooth="yes"/>
      <point x="353" y="654"/>
      <point x="388" y="688"/>
      <point x="388" y="766" type="curve" smooth="yes"/>
      <point x="388" y="846"/>
      <point x="353" y="880"/>
      <point x="274" y="880" type="curve" smooth="yes"/>
    </contour>
    <contour>
      <point x="194" y="324"/>
      <point x="159" y="290"/>
      <point x="159" y="210" type="curve" smooth="yes"/>
      <point x="159" y="131"/>
      <point x="194" y="98"/>
      <point x="274" y="98" type="curve" smooth="yes"/>
      <point x="353" y="98"/>
      <point x="388" y="131"/>
      <point x="388" y="210" type="curve" smooth="yes"/>
      <point x="388" y="290"/>
      <point x="353" y="324"/>
      <point x="274" y="324" type="curve" smooth="yes"/>
    </contour>
  </outline>
</glyph>
<glyph name="aShort-deva" format="1">
  <advance width="1398"/>
  <unicode hex="0904"/>
  <outline>
    <component base="a-deva"/>
    <component base="eShortMatra-deva" xOffset="873" yOffset="27"/>
    <contour>
      <point x="62" y="106" type="move" name="top"/>
    </contour>
    <contour>
      <point x="62" y="3" type="move" name="bottom"/>
    </contour>
  </outline>
</glyph>
<glyph name="aa-deva" format="1">
  <advance width="1959"/>
  <unicode hex="0906"/>
  <outline>
    <component base="a-deva"/>
    <component base="aaMatra-deva" xOffset="1398"/>
    <contour>
      <point x="1682" y="1167" type="move" name="top"/>
    </contour>
    <contour>
      <point x="1682" y="28" type="move" name="bottom"/>
    </contour>
    <contour>
      <point x="1428" y="1167" type="move" name="topcandra"/>
    </contour>
  </outline>
</glyph>
<glyph name="uu-deva" format="1">
  <advance width="1365"/>
  <unicode hex="090A"/>
  <outline>
    <contour>
      <point x="530" y="1287" type="line"/>
      <point x="530" y="1104" type="line"/>
      <point x="1384" y="1104" type="line"/>
      <point x="1384" y="1287" type="line"/>
    </contour>
    <contour>
      <point x="905" y="719"/>
      <point x="808" y="671"/>
      <point x="713" y="543" type="curve"/>
      <point x="735" y="235" type="line"/>
      <point x="861" y="493"/>
      <point x="939" y="540"/>
      <point x="1011" y="540" type="curve" smooth="yes"/>
      <point x="1088" y="540"/>
      <point x="1123" y="498"/>
      <point x="1123" y="414" type="curve" smooth="yes"/>
      <point x="1123" y="314"/>
      <point x="1069" y="230"/>
      <point x="992" y="136" type="curve"/>
      <point x="1131" y="20" type="line"/>
      <point x="1248" y="125"/>
      <point x="1312" y="264"/>
      <point x="1312" y="400" type="curve" smooth="yes"/>
      <point x="1312" y="625"/>
      <point x="1168" y="719"/>
      <point x="1027" y="719" type="curve" smooth="yes"/>
    </contour>
    <component base="u-deva"/>
    <contour>
      <point x="564" y="1167" type="move" name="top"/>
    </contour>
    <contour>
      <point x="761" y="27" type="move" name="bottom"/>
    </contour>
    <contour>
      <point x="754" y="1167" type="move" name="topcandra"/>
    </contour>
  </outline>
</glyph>
<glyph name="eShort-deva" format="1">
  <advance width="1059"/>
  <unicode hex="090E"/>
  <outline>
    <component base="e-deva"/>
    <component base="eShortMatra-deva" xOffset="585" yOffset="27"/>
    <contour>
      <point x="895" y="1448" type="move" name="topcandra"/>
    </contour>
  </outline>
</glyph>
<glyph name="ja-deva" format="1">
  <advance width="1422"/>
  <unicode hex="091C"/>
  <outline>
    <contour>
      <point x="45" y="882" type="line"/>
      <point x="64" y="490"/>
      <point x="183" y="197"/>
      <point x="526" y="197" type="curve" smooth="yes"/>
      <point x="729" y="197"/>
      <point x="868" y="312"/>
      <point x="868" y="495" type="curve" smooth="yes"/>
      <point x="868" y="637"/>
      <point x="802" y="708"/>
      <point x="659" y="782" type="curve"/>
      <point x="571" y="908" type="line"/>
      <point x="503" y="761" type="line"/>
      <point x="619" y="708"/>
      <point x="663" y="633"/>
      <point x="663" y="545" type="curve" smooth="yes"/>
      <point x="663" y="452"/>
      <point x="611" y="395"/>
      <point x="511" y="394" type="curve" smooth="yes"/>
      <point x="267" y="389"/>
      <point x="234" y="731"/>
      <point x="210" y="905" type="curve"/>
    </contour>
    <contour>
      <point x="571" y="908" type="line"/>
      <point x="647" y="721" type="line"/>
      <point x="1168" y="721" type="line"/>
      <point x="1168" y="908" type="line"/>
    </contour>
    <contour>
      <point x="1037" y="1199" type="line"/>
      <point x="1037" y="0" type="line"/>
      <point x="1247" y="0" type="line"/>
      <point x="1247" y="1199" type="line"/>
    </contour>
    <contour>
      <point x="-19" y="1287" type="line"/>
      <point x="-19" y="1104" type="line"/>
      <point x="1441" y="1104" type="line"/>
      <point x="1441" y="1287" type="line"/>
    </contour>
    <contour>
      <point x="211" y="84" type="move" name="nukta"/>
    </contour>
    <contour>
      <point x="1144" y="1167" type="move" name="top"/>
    </contour>
    <contour>
      <point x="743" y="1167" type="move" name="topcandra"/>
    </contour>
    <contour>
      <point x="1147" y="27" type="move" name="bottom"/>
    </contour>
  </outline>
</glyph>
<glyph name="tha-deva" format="1">
  <advance width="1259"/>
  <unicode hex="0925"/>
  <outline>
    <contour>
      <point x="174" y="1306"/>
      <point x="88" y="1202"/>
      <point x="89" y="1091" type="curve" smooth="yes"/>
      <point x="89" y="1005"/>
      <point x="146" y="929"/>
      <point x="242" y="880" type="curve"/>
      <point x="325" y="970" type="line"/>
      <point x="291" y="1001"/>
      <point x="270" y="1029"/>
      <point x="270" y="1065" type="curve" smooth="yes"/>
      <point x="270" y="1105"/>
      <point x="298" y="1131"/>
      <point x="354" y="1131" type="curve" smooth="yes"/>
      <point x="422" y="1131"/>
      <point x="464" y="1086"/>
      <point x="464" y="1012" type="curve" smooth="yes"/>
      <point x="464" y="855"/>
      <point x="280" y="765"/>
      <point x="121" y="698" type="curve"/>
      <point x="178" y="390"/>
      <point x="364" y="249"/>
      <point x="579" y="249" type="curve" smooth="yes"/>
      <point x="711" y="249"/>
      <point x="838" y="294"/>
      <point x="921" y="405" type="curve"/>
      <point x="902" y="617" type="line"/>
      <point x="814" y="488"/>
      <point x="699" y="440"/>
      <point x="589" y="440" type="curve" smooth="yes"/>
      <point x="461" y="440"/>
      <point x="370" y="499"/>
      <point x="319" y="640" type="curve"/>
      <point x="300" y="587" type="line"/>
      <point x="477" y="650"/>
      <point x="667" y="782"/>
      <point x="667" y="999" type="curve" smooth="yes"/>
      <point x="667" y="1137"/>
      <point x="571" y="1306"/>
      <point x="348" y="1306" type="curve" smooth="yes"/>
    </contour>
    <contour>
      <point x="873" y="1182" type="line"/>
      <point x="873" y="0" type="line"/>
      <point x="1083" y="0" type="line"/>
      <point x="1083" y="1182" type="line"/>
    </contour>
    <contour>
      <point x="751" y="1287" type="line"/>
      <point x="751" y="1104" type="line"/>
      <point x="1278" y="1104" type="line"/>
      <point x="1278" y="1287" type="line"/>
    </contour>
    <contour>
      <point x="202" y="111" type="move" name="nukta"/>
    </contour>
    <contour>
      <point x="978" y="1167" type="move" name="top"/>
    </contour>
    <contour>
      <point x="671" y="1167" type="move" name="topcandra"/>
    </contour>
    <contour>
      <point x="978" y="27" type="move" name="bottom"/>
    </contour>
  </outline>
</glyph>
<glyph name="da-deva" format="1">
  <advance width="1033"/>
  <unicode hex="0926"/>
  <outline>
    <contour>
      <point x="615" y="1134" type="line"/>
      <point x="615" y="840" type="line"/>
      <point x="756" y="870" type="line"/>
      <point x="668" y="899"/>
      <point x="598" y="908"/>
      <point x="544" y="908" type="curve" smooth="yes"/>
      <point x="201" y="908"/>
      <point x="63" y="745"/>
      <point x="63" y="502" type="curve" smooth="yes"/>
      <point x="63" y="248"/>
      <point x="218" y="55"/>
      <point x="549" y="55" type="curve" smooth="yes"/>
      <point x="664" y="55"/>
      <point x="769" y="78"/>
      <point x="854" y="134" type="curve" smooth="yes"/>
      <point x="912" y="174"/>
      <point x="953" y="259"/>
      <point x="953" y="323" type="curve" smooth="yes"/>
      <point x="953" y="432"/>
      <point x="849" y="507"/>
      <point x="735" y="537" type="curve"/>
      <point x="619" y="450" type="line"/>
      <point x="722" y="231" type="line"/>
      <point x="800" y="326" type="line"/>
      <point x="701" y="260"/>
      <point x="654" y="233"/>
      <point x="540" y="233" type="curve" smooth="yes"/>
      <point x="368" y="233"/>
      <point x="281" y="296"/>
      <point x="281" y="474" type="curve" smooth="yes"/>
      <point x="281" y="681"/>
      <point x="397" y="721"/>
      <point x="602" y="721" type="curve" smooth="yes"/>
      <point x="710" y="721"/>
      <point x="763" y="717"/>
      <point x="826" y="713" type="curve"/>
      <point x="826" y="1134" type="line"/>
    </contour>
    <contour>
      <point x="730" y="216" type="line"/>
      <point x="921" y="-171" type="line"/>
      <point x="1085" y="-73" type="line"/>
      <point x="854" y="272" type="line"/>
    </contour>
    <contour>
      <point x="-19" y="1287" type="line"/>
      <point x="-19" y="1104" type="line"/>
      <point x="1052" y="1104" type="line"/>
      <point x="1052" y="1287" type="line"/>
    </contour>
    <contour>
      <point x="16" y="82" type="move" name="nukta"/>
    </contour>
    <contour>
      <point x="721" y="1167" type="move" name="top"/>
    </contour>
    <contour>
      <point x="534" y="1167" type="move" name="topcandra"/>
    </contour>
    <contour>
      <point x="555" y="-17" type="move" name="bottom"/>
    </contour>
  </outline>
</glyph>
<glyph name="pa-deva" format="1">
  <advance width="1176"/>
  <unicode hex="092A"/>
  <outline>
    <contour>
      <point x="151" y="1133" type="line"/>
      <point x="151" y="675" type="line" smooth="yes"/>
      <point x="151" y="419"/>
      <point x="276" y="285"/>
      <point x="507" y="285" type="curve" smooth="yes"/>
      <point x="662" y="285"/>
      <point x="805" y="365"/>
      <point x="884" y="491" type="curve"/>
      <point x="838" y="681" type="line"/>
      <point x="764" y="551"/>
      <point x="654" y="477"/>
      <point x="520" y="476" type="curve" smooth="yes"/>
      <point x="398" y="475"/>
      <point x="365" y="529"/>
      <point x="365" y="666" type="curve" smooth="yes"/>
      <point x="365" y="1133" type="line"/>
    </contour>
    <contour>
      <point x="790" y="1199" type="line"/>
      <point x="790" y="0" type="line"/>
      <point x="1001" y="0" type="line"/>
      <point x="1001" y="1199" type="line"/>
    </contour>
    <contour>
      <point x="-20" y="1287" type="line"/>
      <point x="-20" y="1104" type="line"/>
      <point x="1195" y="1104" type="line"/>
      <point x="1195" y="1287" type="line"/>
    </contour>
    <contour>
      <point x="261" y="92" type="move" name="nukta"/>
    </contour>
    <contour>
      <point x="896" y="1167" type="move" name="top"/>
    </contour>
    <contour>
      <point x="591" y="1167" type="move" name="topcandra"/>
    </contour>
    <contour>
      <point x="896" y="27" type="move" name="bottom"/>
    </contour>
  </outline>
</glyph>
<glyph name="ssa-deva" format="1">
  <advance width="1178"/>
  <unicode hex="0937"/>
  <outline>
    <contour>
      <point x="152" y="1115" type="line"/>
      <point x="152" y="655" type="line" smooth="yes"/>
      <point x="152" y="399"/>
      <point x="277" y="265"/>
      <point x="508" y="265" type="curve" smooth="yes"/>
      <point x="663" y="265"/>
      <point x="805" y="345"/>
      <point x="884" y="471" type="curve"/>
      <point x="874" y="673" type="line"/>
      <point x="801" y="544"/>
      <point x="655" y="457"/>
      <point x="520" y="456" type="curve" smooth="yes"/>
      <point x="393" y="455"/>
      <point x="360" y="510"/>
      <point x="360" y="649" type="curve" smooth="yes"/>
      <point x="360" y="1115" type="line"/>
    </contour>
    <contour>
      <point x="224" y="1066" type="line"/>
      <point x="826" y="456" type="line"/>
      <point x="946" y="566" type="line"/>
      <point x="344" y="1176" type="line"/>
    </contour>
    <contour>
      <point x="791" y="1199" type="line"/>
      <point x="791" y="0" type="line"/>
      <point x="1002" y="0" type="line"/>
      <point x="1002" y="1199" type="line"/>
    </contour>
    <contour>
      <point x="-19" y="1287" type="line"/>
      <point x="-19" y="1104" type="line"/>
      <point x="1197" y="1104" type="line"/>
      <point x="1197" y="1287" type="line"/>
    </contour>
    <contour>
      <point x="293" y="82" type="move" name="nukta"/>
    </contour>
    <contour>
      <point x="897" y="1167" type="move" name="top"/>
    </contour>
    <contour>
      <point x="595" y="1167" type="move" name="topcandra"/>
    </contour>
    <contour>
      <point x="897" y="27" type="move" name="bottom"/>
    </contour>
  </outline>
</glyph>
<glyph name="oeMatra-deva" format="1">
  <advance width="540"/>
  <unicode hex="093A"/>
  <outline>
    <contour>
      <point x="165" y="1091" type="line"/>
      <point x="375" y="1091" type="line"/>
      <point x="375" y="1538" type="line"/>
      <point x="165" y="1538" type="line"/>
    </contour>
  </outline>
</glyph>
<glyph name="rVocalicMatra-deva" format="1">
  <advance width="540"/>
  <unicode hex="0943"/>
  <outline>
    <contour>
      <point x="97" y="92"/>
      <point x="-31" y="-10"/>
      <point x="-31" y="-176" type="curve"/>
      <point x="-31" y="-316"/>
      <point x="90" y="-416"/>
      <point x="245" y="-416" type="curve" smooth="yes"/>
      <point x="352" y="-416"/>
      <point x="454" y="-379"/>
      <point x="532" y="-321" type="curve"/>
      <point x="465" y="-181" type="line"/>
      <point x="400" y="-221"/>
      <point x="328" y="-253"/>
      <point x="261" y="-253" type="curve" smooth="yes"/>
      <point x="190" y="-253"/>
      <point x="158" y="-218"/>
      <point x="158" y="-169" type="curve" smooth="yes"/>
      <point x="158" y="-105"/>
      <point x="197" y="-55"/>
      <point x="351" y="0" type="curve"/>
      <point x="280" y="139" type="line"/>
    </contour>
    <contour>
      <point x="256" y="21" type="move" name="_bottom"/>
    </contour>
  </outline>
</glyph>
<glyph name="oShortMatra-deva" format="1">
  <advance width="561"/>
  <unicode hex="094A"/>
  <outline>
    <component base="aaMatra-deva"/>
    <component base="eShortMatra-deva" xOffset="36" yOffset="27"/>
    <contour>
      <point x="357" y="1340" type="move" name="top"/>
    </contour>
  </outline>
</glyph>
<glyph name="oMatra-deva" format="1">
  <advance width="561"/>
  <unicode hex="094B"/>
  <outline>
    <component base="aaMatra-deva"/>
    <component base="eMatra-deva" xOffset="11"/>
    <contour>
      <point x="462" y="1195" type="move" name="top"/>
    </contour>
    <contour>
      <point x="601" y="1220" type="move" name="topcandra"/>
    </contour>
  </outline>
</glyph>
<glyph name="awMatra-deva" format="1">
  <advance width="561"/>
  <unicode hex="094F"/>
  <outline>
    <contour>
      <point x="-450" y="1856"/>
      <point x="-464" y="1820"/>
      <point x="-464" y="1786" type="curve" smooth="yes"/>
      <point x="-464" y="1711"/>
      <point x="-397" y="1641"/>
      <point x="-269" y="1620" type="curve" smooth="yes"/>
      <point x="34" y="1574" type="line" smooth="yes"/>
      <point x="175" y="1551"/>
      <point x="271" y="1526"/>
      <point x="271" y="1383" type="curve" smooth="yes"/>
      <point x="271" y="1343"/>
      <point x="269" y="1308"/>
      <point x="239" y="1250" type="curve"/>
      <point x="304" y="1197" type="line"/>
      <point x="382" y="1298"/>
      <point x="411" y="1386"/>
      <point x="411" y="1469" type="curve" smooth="yes"/>
      <point x="411" y="1616"/>
      <point x="303" y="1692"/>
      <point x="125" y="1720" type="curve" smooth="yes"/>
      <point x="-164" y="1765" type="line" smooth="yes"/>
      <point x="-296" y="1786"/>
      <point x="-328" y="1803"/>
      <point x="-333" y="1848" type="curve" smooth="yes"/>
      <point x="-334" y="1855"/>
      <point x="-334" y="1863"/>
      <point x="-334" y="1872" type="curve"/>
      <point x="-417" y="1888" type="line"/>
    </contour>
    <contour>
      <point x="-616" y="1686"/>
      <point x="-627" y="1646"/>
      <point x="-627" y="1608" type="curve" smooth="yes"/>
      <point x="-627" y="1503"/>
      <point x="-548" y="1408"/>
      <point x="-368" y="1389" type="curve" smooth="yes"/>
      <point x="22" y="1347" type="line" smooth="yes"/>
      <point x="148" y="1332"/>
      <point x="176" y="1302"/>
      <point x="176" y="1233" type="curve" smooth="yes"/>
      <point x="176" y="1210"/>
      <point x="172" y="1180"/>
      <point x="169" y="1143" type="curve"/>
      <point x="236" y="1119" type="line"/>
      <point x="254" y="1172"/>
      <point x="268" y="1228"/>
      <point x="268" y="1273" type="curve" smooth="yes"/>
      <point x="268" y="1402"/>
      <point x="216" y="1464"/>
      <point x="16" y="1496" type="curve" smooth="yes"/>
      <point x="-324" y="1549" type="line" smooth="yes"/>
      <point x="-470" y="1571"/>
      <point x="-498" y="1615"/>
      <point x="-500" y="1682" type="curve" smooth="yes"/>
      <point x="-501" y="1691"/>
      <point x="-501" y="1700"/>
      <point x="-501" y="1709" type="curve"/>
      <point x="-594" y="1724" type="line"/>
    </contour>
    <component base="aaMatra-deva"/>
  </outline>
</glyph>
<glyph name="nine-deva" format="1">
  <advance width="852"/>
  <unicode hex="096F"/>
  <outline>
    <contour>
      <point x="215" y="1306"/>
      <point x="69" y="1183"/>
      <point x="69" y="964" type="curve" smooth="yes"/>
      <point x="69" y="786"/>
      <point x="155" y="667"/>
      <point x="320" y="468" type="curve" smooth="yes"/>
      <point x="494" y="256"/>
      <point x="590" y="166"/>
      <point x="590" y="112" type="curve" smooth="yes"/>
      <point x="590" y="48"/>
      <point x="482" y="16"/>
      <point x="381" y="-3" type="curve"/>
      <point x="463" y="-176" type="line"/>
      <point x="655" y="-150"/>
      <point x="797" y="-25"/>
      <point x="797" y="103" type="curve" smooth="yes"/>
      <point x="797" y="244"/>
      <point x="714" y="309"/>
      <point x="496" y="568" type="curve" smooth="yes"/>
      <point x="348" y="744"/>
      <point x="278" y="822"/>
      <point x="276" y="948" type="curve" smooth="yes"/>
      <point x="275" y="1078"/>
      <point x="348" y="1122"/>
      <point x="439" y="1122" type="curve" smooth="yes"/>
      <point x="518" y="1122"/>
      <point x="579" y="1076"/>
      <point x="581" y="982" type="curve" smooth="yes"/>
      <point x="585" y="793"/>
      <point x="412" y="744"/>
      <point x="275" y="743" type="curve"/>
      <point x="340" y="604" type="line"/>
      <point x="538" y="604"/>
      <point x="789" y="710"/>
      <point x="789" y="989" type="curve" smooth="yes"/>
      <point x="789" y="1191"/>
      <point x="640" y="1306"/>
      <point x="432" y="1306" type="curve" smooth="yes"/>
    </contour>
  </outline>
</glyph>
<glyph name="ooe-deva" format="1">
  <advance width="1962"/>
  <unicode hex="0974"/>
  <outline>
    <contour>
      <point x="1575" y="1091" type="line"/>
      <point x="1785" y="1091" type="line"/>
      <point x="1785" y="1574" type="line"/>
      <point x="1575" y="1574" type="line"/>
    </contour>
    <component base="aa-deva"/>
  </outline>
</glyph>
<glyph name="ue-deva" format="1">
  <advance width="1399"/>
  <unicode hex="0976"/>
  <outline>
    <contour>
      <point x="205" y="-29" type="line"/>
      <point x="255" y="-153"/>
      <point x="379" y="-274"/>
      <point x="572" y="-274" type="curve" smooth="yes"/>
      <point x="744" y="-274"/>
      <point x="860" y="-185"/>
      <point x="934" y="-22" type="curve"/>
      <point x="799" y="53" type="line"/>
      <point x="757" y="-15"/>
      <point x="686" y="-92"/>
      <point x="558" y="-92" type="curve" smooth="yes"/>
      <point x="428" y="-92"/>
      <point x="361" y="-28"/>
      <point x="317" y="48" type="curve"/>
    </contour>
    <component base="a-deva"/>
  </outline>
</glyph>
<glyph name="uue-deva" format="1">
  <advance width="1399"/>
  <unicode hex="0977"/>
  <outline>
    <contour>
      <point x="205" y="-29" type="line"/>
      <point x="255" y="-153"/>
      <point x="379" y="-274"/>
      <point x="572" y="-274" type="curve" smooth="yes"/>
      <point x="744" y="-274"/>
      <point x="860" y="-185"/>
      <point x="934" y="-22" type="curve"/>
      <point x="799" y="53" type="line"/>
      <point x="757" y="-15"/>
      <point x="686" y="-92"/>
      <point x="558" y="-92" type="curve" smooth="yes"/>
      <point x="428" y="-92"/>
      <point x="361" y="-28"/>
      <point x="317" y="48" type="curve"/>
    </contour>
    <contour>
      <point x="221" y="-355" type="line"/>
      <point x="271" y="-478"/>
      <point x="395" y="-600"/>
      <point x="588" y="-600" type="curve" smooth="yes"/>
      <point x="760" y="-600"/>
      <point x="876" y="-511"/>
      <point x="950" y="-348" type="curve"/>
      <point x="815" y="-273" type="line"/>
      <point x="773" y="-341"/>
      <point x="702" y="-417"/>
      <point x="574" y="-417" type="curve" smooth="yes"/>
      <point x="444" y="-417"/>
      <point x="377" y="-353"/>
      <point x="333" y="-278" type="curve"/>
    </contour>
    <component base="a-deva"/>
  </outline>
</glyph>
<glyph name="ddda-deva" format="1">
  <advance width="1056"/>
  <unicode hex="097E"/>
  <outline>
    <contour>
      <point x="97" y="-169" type="line"/>
      <point x="97" y="-339" type="line"/>
      <point x="976" y="-339" type="line"/>
      <point x="976" y="-169" type="line"/>
    </contour>
    <component base="dda-deva"/>
  </outline>
</glyph>
<glyph name="g.sups" format="1">
  <advance width="716"/>
  <unicode hex="1D4D"/>
  <outline>
    <contour>
      <point x="150" y="558" type="curve" name="hr01"/>
      <point x="150" y="550" type="line"/>
      <point x="89" y="516"/>
      <point x="56" y="470"/>
      <point x="56" y="413" type="curve" smooth="yes"/>
      <point x="56" y="295"/>
      <point x="172" y="239"/>
      <point x="334" y="239" type="curve" smooth="yes"/>
      <point x="557" y="239"/>
      <point x="693" y="343"/>
      <point x="693" y="474" type="curve" smooth="yes"/>
      <point x="693" y="590"/>
      <point x="613" y="639"/>
      <point x="448" y="639" type="curve" smooth="yes"/>
      <point x="328" y="639" type="line" smooth="yes"/>
      <point x="247" y="639"/>
      <point x="219" y="658"/>
      <point x="219" y="696" type="curve" name="hr02" smooth="yes"/>
      <point x="219" y="724"/>
      <point x="232" y="741"/>
      <point x="252" y="758" type="curve"/>
      <point x="284" y="744"/>
      <point x="315" y="739"/>
      <point x="343" y="739" type="curve" smooth="yes"/>
      <point x="484" y="739"/>
      <point x="601" y="820"/>
      <point x="601" y="970" type="curve" smooth="yes"/>
      <point x="601" y="1010"/>
      <point x="585" y="1053"/>
      <point x="565" y="1076" type="curve"/>
      <point x="683" y="1076" type="line"/>
      <point x="683" y="1196" type="line"/>
      <point x="449" y="1196" type="line"/>
      <point x="419" y="1208"/>
      <point x="383" y="1214"/>
      <point x="343" y="1214" type="curve" name="hr03" smooth="yes"/>
      <point x="200" y="1214"/>
      <point x="75" y="1127"/>
      <point x="75" y="973" type="curve" smooth="yes"/>
      <point x="75" y="895"/>
      <point x="118" y="832"/>
      <point x="165" y="800" type="curve"/>
      <point x="165" y="791" type="line"/>
      <point x="124" y="765"/>
      <point x="90" y="718"/>
      <point x="90" y="671" type="curve" name="hr04" smooth="yes"/>
      <point x="90" y="615"/>
      <point x="115" y="582"/>
    </contour>
    <contour>
      <point x="460" y="973" type="curve" name="hr06" smooth="yes"/>
      <point x="460" y="891"/>
      <point x="408" y="841"/>
      <point x="343" y="841" type="curve" smooth="yes"/>
      <point x="274" y="841"/>
      <point x="225" y="891"/>
      <point x="225" y="973" type="curve" smooth="yes"/>
      <point x="225" y="1057"/>
      <point x="274" y="1103"/>
      <point x="343" y="1103" type="curve" smooth="yes"/>
      <point x="408" y="1103"/>
      <point x="460" y="1057"/>
    </contour>
    <contour>
      <point x="359" y="344" type="curve" name="hr07" smooth="yes"/>
      <point x="254" y="344"/>
      <point x="189" y="378"/>
      <point x="189" y="438" type="curve" smooth="yes"/>
      <point x="189" y="468"/>
      <point x="208" y="497"/>
      <point x="241" y="521" type="curve"/>
      <point x="270" y="513"/>
      <point x="304" y="513"/>
      <point x="329" y="513" type="curve" smooth="yes"/>
      <point x="423" y="513" type="line" smooth="yes"/>
      <point x="498" y="513"/>
      <point x="540" y="498"/>
      <point x="540" y="449" type="curve" smooth="yes"/>
      <point x="540" y="392"/>
      <point x="467" y="344"/>
    </contour>
  </outline>
</glyph>
<glyph name="k.sups" format="1">
  <advance width="717"/>
  <unicode hex="1D4F"/>
  <outline>
    <contour>
      <point x="258" y="1488" type="line" name="hr00"/>
      <point x="98" y="1488" type="line"/>
      <point x="98" y="532" type="line"/>
      <point x="258" y="532" type="line"/>
      <point x="258" y="697" type="line"/>
      <point x="357" y="817" type="line"/>
      <point x="533" y="532" type="line"/>
      <point x="707" y="532" type="line"/>
      <point x="448" y="922" type="line"/>
      <point x="683" y="1197" type="line"/>
      <point x="508" y="1197" type="line"/>
      <point x="267" y="894" type="line"/>
      <point x="258" y="894" type="line"/>
    </contour>
  </outline>
</glyph>
<glyph name="perthousand" format="1">
  <advance width="2488"/>
  <unicode hex="2030"/>
  <outline>
    <contour>
      <point x="65" y="943" type="curve" name="hr00" smooth="yes"/>
      <point x="65" y="674"/>
      <point x="193" y="517"/>
      <point x="380" y="517" type="curve" smooth="yes"/>
      <point x="566" y="517"/>
      <point x="696" y="674"/>
      <point x="696" y="943" type="curve" smooth="yes"/>
      <point x="696" y="1212"/>
      <point x="566" y="1365"/>
      <point x="380" y="1365" type="curve" smooth="yes"/>
      <point x="193" y="1365"/>
      <point x="65" y="1212"/>
    </contour>
    <contour>
      <point x="1151" y="1365" type="line"/>
      <point x="418" y="-25" type="line"/>
      <point x="555" y="-25" type="line"/>
      <point x="1289" y="1365" type="line"/>
    </contour>
    <contour>
      <point x="536" y="943" type="curve" smooth="yes"/>
      <point x="536" y="739"/>
      <point x="470" y="646"/>
      <point x="380" y="646" type="curve" smooth="yes"/>
      <point x="288" y="646"/>
      <point x="223" y="739"/>
      <point x="223" y="943" type="curve" smooth="yes"/>
      <point x="223" y="1148"/>
      <point x="288" y="1237"/>
      <point x="380" y="1237" type="curve" smooth="yes"/>
      <point x="470" y="1237"/>
      <point x="536" y="1148"/>
    </contour>
    <contour>
      <point x="1014" y="401" type="curve" smooth="yes"/>
      <point x="1014" y="131"/>
      <point x="1144" y="-25"/>
      <point x="1330" y="-25" type="curve" smooth="yes"/>
      <point x="1518" y="-25"/>
      <point x="1646" y="131"/>
      <point x="1646" y="401" type="curve" smooth="yes"/>
      <point x="1646" y="669"/>
      <point x="1518" y="823"/>
      <point x="1330" y="823" type="curve" smooth="yes"/>
      <point x="1144" y="823"/>
      <point x="1014" y="669"/>
    </contour>
    <contour>
      <point x="1792" y="401" type="curve" smooth="yes"/>
      <point x="1792" y="131"/>
      <point x="1921" y="-25"/>
      <point x="2108" y="-25" type="curve" smooth="yes"/>
      <point x="2296" y="-25"/>
      <point x="2425" y="131"/>
      <point x="2425" y="401" type="curve" smooth="yes"/>
      <point x="2425" y="669"/>
      <point x="2296" y="823"/>
      <point x="2108" y="823" type="curve" smooth="yes"/>
      <point x="1921" y="823"/>
      <point x="1792" y="669"/>
    </contour>
    <contour>
      <point x="1488" y="401" type="curve" smooth="yes"/>
      <point x="1488" y="197"/>
      <point x="1422" y="104"/>
      <point x="1330" y="104" type="curve" smooth="yes"/>
      <point x="1239" y="104"/>
      <point x="1174" y="197"/>
      <point x="1174" y="401" type="curve" smooth="yes"/>
      <point x="1174" y="606"/>
      <point x="1239" y="695"/>
      <point x="1330" y="695" type="curve" smooth="yes"/>
      <point x="1422" y="695"/>
      <point x="1488" y="606"/>
    </contour>
    <contour>
      <point x="2266" y="401" type="curve" smooth="yes"/>
      <point x="2266" y="197"/>
      <point x="2200" y="104"/>
      <point x="2108" y="104" type="curve" smooth="yes"/>
      <point x="2018" y="104"/>
      <point x="1952" y="197"/>
      <point x="1952" y="401" type="curve" smooth="yes"/>
      <point x="1952" y="606"/>
      <point x="2018" y="695"/>
      <point x="2108" y="695" type="curve" smooth="yes"/>
      <point x="2200" y="695"/>
      <point x="2266" y="606"/>
    </contour>
  </outline>
</glyph>
<glyph name="uni2032" format="1">
  <advance width="550"/>
  <unicode hex="2032"/>
  <outline>
    <contour>
      <point x="428" y="1410" type="line" name="hr00"/>
      <point x="211" y="1410" type="line"/>
      <point x="165" y="827" type="line"/>
      <point x="307" y="827" type="line"/>
      <point x="388" y="1170" type="line"/>
    </contour>
  </outline>
</glyph>
<glyph name="uni2033" format="1">
  <advance width="959"/>
  <unicode hex="2033"/>
  <outline>
    <contour>
      <point x="428" y="1410" type="line" name="hr00"/>
      <point x="211" y="1410" type="line"/>
      <point x="165" y="827" type="line"/>
      <point x="307" y="827" type="line"/>
      <point x="388" y="1170" type="line"/>
    </contour>
    <contour>
      <point x="835" y="1410" type="line"/>
      <point x="618" y="1410" type="line"/>
      <point x="572" y="827" type="line"/>
      <point x="716" y="827" type="line"/>
      <point x="797" y="1170" type="line"/>
    </contour>
  </outline>
</glyph>
<glyph name="guilsinglleft" format="1">
  <advance width="571"/>
  <unicode hex="2039"/>
  <outline>
    <contour>
      <point x="95" y="596" type="line" name="hr00"/>
      <point x="95" y="437" type="line"/>
      <point x="373" y="127" type="line"/>
      <point x="460" y="198" type="line"/>
      <point x="225" y="516" type="line"/>
      <point x="460" y="833" type="line"/>
      <point x="373" y="905" type="line"/>
    </contour>
  </outline>
</glyph>
<glyph name="parenright.sups" format="1">
  <advance width="509"/>
  <unicode hex="207E"/>
  <outline>
    <contour>
      <point x="220" y="1301" type="curve" name="hr00" smooth="yes"/>
      <point x="220" y="1118"/>
      <point x="176" y="949"/>
      <point x="77" y="783" type="curve"/>
      <point x="199" y="731" type="line"/>
      <point x="313" y="902"/>
      <point x="378" y="1064"/>
      <point x="378" y="1301" type="curve" smooth="yes"/>
      <point x="378" y="1536"/>
      <point x="313" y="1697"/>
      <point x="199" y="1869" type="curve"/>
      <point x="77" y="1815" type="line"/>
      <point x="176" y="1654"/>
      <point x="220" y="1483"/>
    </contour>
  </outline>
</glyph>
<glyph name="zero.subs" format="1">
  <advance width="759"/>
  <unicode hex="2080"/>
  <outline>
    <contour>
      <point x="65" y="-61" type="curve" name="hr00" smooth="yes"/>
      <point x="65" y="-330"/>
      <point x="193" y="-487"/>
      <point x="380" y="-487" type="curve" smooth="yes"/>
      <point x="566" y="-487"/>
      <point x="696" y="-330"/>
      <point x="696" y="-61" type="curve" smooth="yes"/>
      <point x="696" y="208"/>
      <point x="566" y="361"/>
      <point x="380" y="361" type="curve" smooth="yes"/>
      <point x="193" y="361"/>
      <point x="65" y="208"/>
    </contour>
    <contour>
      <point x="536" y="-61" type="curve" smooth="yes"/>
      <point x="536" y="-265"/>
      <point x="470" y="-358"/>
      <point x="380" y="-358" type="curve" smooth="yes"/>
      <point x="288" y="-358"/>
      <point x="223" y="-265"/>
      <point x="223" y="-61" type="curve" smooth="yes"/>
      <point x="223" y="145"/>
      <point x="288" y="233"/>
      <point x="380" y="233" type="curve" smooth="yes"/>
      <point x="470" y="233"/>
      <point x="536" y="145"/>
    </contour>
  </outline>
</glyph>
<glyph name="one.subs" format="1">
  <advance width="759"/>
  <unicode hex="2081"/>
  <outline>
    <contour>
      <point x="170" y="148" type="line" name="hr00"/>
      <point x="347" y="148" type="line"/>
      <point x="347" y="-462" type="line"/>
      <point x="513" y="-462" type="line"/>
      <point x="513" y="337" type="line"/>
      <point x="380" y="337" type="line"/>
      <point x="320" y="293"/>
      <point x="267" y="269"/>
      <point x="170" y="252" type="curve"/>
    </contour>
  </outline>
</glyph>
<glyph name="four.subs" format="1">
  <advance width="759"/>
  <unicode hex="2084"/>
  <outline>
    <contour>
      <point x="594" y="-262" type="line" name="hr00"/>
      <point x="713" y="-262" type="line"/>
      <point x="713" y="-150" type="line"/>
      <point x="594" y="-150" type="line"/>
      <point x="594" y="337" type="line"/>
      <point x="398" y="337" type="line"/>
      <point x="81" y="-178" type="line"/>
      <point x="81" y="-262" type="line"/>
      <point x="446" y="-262" type="line"/>
      <point x="446" y="-462" type="line"/>
      <point x="594" y="-462" type="line"/>
    </contour>
    <contour>
      <point x="446" y="-27" type="line"/>
      <point x="446" y="-150" type="line"/>
      <point x="242" y="-150" type="line"/>
      <point x="353" y="38" type="line"/>
      <point x="448" y="201" type="line"/>
      <point x="456" y="201" type="line"/>
    </contour>
  </outline>
</glyph>
<glyph name="uni20B1" format="1">
  <advance width="1042"/>
  <unicode hex="20B1"/>
  <outline>
    <contour>
      <point x="895" y="955" type="curve" name="hr00"/>
      <point x="1018" y="955" type="line"/>
      <point x="1018" y="1052" type="line"/>
      <point x="877" y="1052" type="line"/>
      <point x="816" y="1235"/>
      <point x="650" y="1304"/>
      <point x="444" y="1304" type="curve" smooth="yes"/>
      <point x="156" y="1304" type="line"/>
      <point x="156" y="1051" type="line"/>
      <point x="15" y="1043" type="line"/>
      <point x="15" y="955" type="line"/>
      <point x="156" y="955" type="line"/>
      <point x="156" y="844" type="line"/>
      <point x="15" y="834" type="line"/>
      <point x="15" y="748" type="line"/>
      <point x="156" y="748" type="line"/>
      <point x="156" y="0" type="line"/>
      <point x="365" y="0" type="line"/>
      <point x="365" y="475" type="line"/>
      <point x="444" y="475" type="line" smooth="yes"/>
      <point x="650" y="475"/>
      <point x="821" y="563"/>
      <point x="878" y="748" type="curve"/>
      <point x="1018" y="748" type="line"/>
      <point x="1018" y="845" type="line"/>
      <point x="896" y="845" type="line"/>
      <point x="898" y="860"/>
      <point x="898" y="876"/>
      <point x="898" y="892" type="curve" smooth="yes"/>
      <point x="898" y="915"/>
      <point x="897" y="935"/>
    </contour>
    <contour>
      <point x="365" y="1052" type="line"/>
      <point x="365" y="1160" type="line"/>
      <point x="424" y="1160" type="line" smooth="yes"/>
      <point x="539" y="1160"/>
      <point x="619" y="1129"/>
      <point x="660" y="1052" type="curve"/>
    </contour>
    <contour>
      <point x="690" y="845" type="curve"/>
      <point x="365" y="845" type="line"/>
      <point x="365" y="955" type="line"/>
      <point x="690" y="955" type="line"/>
      <point x="692" y="936"/>
      <point x="694" y="915"/>
      <point x="694" y="892" type="curve" smooth="yes"/>
      <point x="694" y="876"/>
      <point x="692" y="860"/>
    </contour>
    <contour>
      <point x="424" y="619" type="curve"/>
      <point x="365" y="619" type="line"/>
      <point x="365" y="748" type="line"/>
      <point x="663" y="748" type="line"/>
      <point x="624" y="664"/>
      <point x="543" y="619"/>
    </contour>
  </outline>
</glyph>
<glyph name="trademark" format="1">
  <advance width="1340"/>
  <unicode hex="2122"/>
  <outline>
    <contour>
      <point x="7" y="1248" type="line" name="hr01"/>
      <point x="200" y="1248" type="line"/>
      <point x="200" y="747" type="line"/>
      <point x="351" y="747" type="line"/>
      <point x="351" y="1248" type="line"/>
      <point x="545" y="1248" type="line"/>
      <point x="545" y="1384" type="line"/>
      <point x="7" y="1384" type="line"/>
    </contour>
    <contour>
      <point x="861" y="1384" type="line"/>
      <point x="680" y="1384" type="line"/>
      <point x="680" y="747" type="line"/>
      <point x="826" y="747" type="line"/>
      <point x="826" y="995" type="line"/>
      <point x="808" y="1218" type="line"/>
      <point x="817" y="1218" type="line"/>
      <point x="949" y="843" type="line" name="hr02"/>
      <point x="1057" y="843" type="line"/>
      <point x="1189" y="1218" type="line"/>
      <point x="1197" y="1218" type="line"/>
      <point x="1180" y="995" type="line"/>
      <point x="1180" y="747" type="line"/>
      <point x="1325" y="747" type="line"/>
      <point x="1325" y="1384" type="line"/>
      <point x="1144" y="1384" type="line"/>
      <point x="1057" y="1172" type="line"/>
      <point x="1007" y="1020" type="line"/>
      <point x="999" y="1020" type="line"/>
      <point x="949" y="1172" type="line"/>
    </contour>
  </outline>
</glyph>
<glyph name="arrowleft" format="1">
  <advance width="1266"/>
  <unicode hex="2190"/>
  <outline>
    <contour>
      <point x="722" y="943" type="line" name="hr00"/>
      <point x="613" y="1065" type="line"/>
      <point x="50" y="520" type="line"/>
      <point x="50" y="512" type="line"/>
      <point x="613" y="-33" type="line"/>
      <point x="722" y="89" type="line"/>
      <point x="354" y="426" type="line"/>
      <point x="1184" y="426" type="line"/>
      <point x="1184" y="606" type="line"/>
      <point x="354" y="606" type="line"/>
    </contour>
  </outline>
</glyph>
<glyph name="arrowup" format="1">
  <advance width="1266"/>
  <unicode hex="2191"/>
  <outline>
    <contour>
      <point x="1183" y="519" type="line" name="hr00"/>
      <point x="636" y="1081" type="line"/>
      <point x="628" y="1081" type="line"/>
      <point x="84" y="519" type="line"/>
      <point x="204" y="412" type="line"/>
      <point x="544" y="784" type="line"/>
      <point x="544" y="-52" type="line"/>
      <point x="721" y="-52" type="line"/>
      <point x="721" y="784" type="line"/>
      <point x="1060" y="412" type="line"/>
    </contour>
  </outline>
</glyph>
<glyph name="arrowright" format="1">
  <advance width="1266"/>
  <unicode hex="2192"/>
  <outline>
    <contour>
      <point x="541" y="89" type="line" name="hr00"/>
      <point x="651" y="-33" type="line"/>
      <point x="1214" y="512" type="line"/>
      <point x="1214" y="520" type="line"/>
      <point x="651" y="1065" type="line"/>
      <point x="541" y="943" type="line"/>
      <point x="909" y="606" type="line"/>
      <point x="81" y="606" type="line"/>
      <point x="81" y="426" type="line"/>
      <point x="909" y="426" type="line"/>
    </contour>
  </outline>
</glyph>
<glyph name="minus" format="1">
  <advance width="1042"/>
  <unicode hex="2212"/>
  <outline>
    <contour>
      <point x="972" y="755" type="line" name="hr00"/>
      <point x="70" y="755" type="line"/>
      <point x="70" y="596" type="line"/>
      <point x="972" y="596" type="line"/>
    </contour>
  </outline>
</glyph>
<glyph name="uni2215" format="1">
  <advance width="184"/>
  <unicode hex="2215"/>
  <outline>
    <contour>
      <point x="388" y="1365" type="line" name="hr00"/>
      <point x="-345" y="-25" type="line"/>
      <point x="-208" y="-25" type="line"/>
      <point x="526" y="1365" type="line"/>
    </contour>
  </outline>
</glyph>
<glyph name="uni2219" format="1">
  <advance width="1049"/>
  <unicode hex="2219"/>
  <outline>
    <contour>
      <point x="375" y="669" type="curve" smooth="yes"/>
      <point x="375" y="581"/>
      <point x="438" y="518"/>
      <point x="519" y="518" type="curve" smooth="yes"/>
      <point x="600" y="518"/>
      <point x="664" y="581"/>
      <point x="664" y="669" type="curve" smooth="yes"/>
      <point x="664" y="757"/>
      <point x="600" y="821"/>
      <point x="519" y="821" type="curve" smooth="yes"/>
      <point x="438" y="821"/>
      <point x="375" y="757"/>
    </contour>
  </outline>
</glyph>
<glyph name="blackleftpointingtriangle" format="1">
  <advance width="1187"/>
  <unicode hex="25C0"/>
  <outline>
    <contour>
      <point x="34" y="582" type="line"/>
      <point x="34" y="573" type="line"/>
      <point x="1069" y="27" type="line"/>
      <point x="1073" y="27" type="line"/>
      <point x="1073" y="1126" type="line"/>
      <point x="1069" y="1126" type="line"/>
    </contour>
  </outline>
</glyph>
<glyph name="uni25C9" format="1">
  <advance width="941"/>
  <unicode hex="25C9"/>
  <outline>
    <contour>
      <point x="471" y="407" type="curve" smooth="yes"/>
      <point x="539" y="407"/>
      <point x="596" y="462"/>
      <point x="596" y="538" type="curve" smooth="yes"/>
      <point x="596" y="614"/>
      <point x="539" y="669"/>
      <point x="471" y="669" type="curve" smooth="yes"/>
      <point x="402" y="669"/>
      <point x="346" y="614"/>
      <point x="346" y="538" type="curve" smooth="yes"/>
      <point x="346" y="462"/>
      <point x="402" y="407"/>
    </contour>
    <contour>
      <point x="471" y="146" type="curve" smooth="yes"/>
      <point x="684" y="146"/>
      <point x="857" y="301"/>
      <point x="857" y="538" type="curve" smooth="yes"/>
      <point x="857" y="775"/>
      <point x="684" y="931"/>
      <point x="471" y="931" type="curve" smooth="yes"/>
      <point x="257" y="931"/>
      <point x="83" y="775"/>
      <point x="83" y="538" type="curve" smooth="yes"/>
      <point x="83" y="301"/>
      <point x="257" y="146"/>
    </contour>
    <contour>
      <point x="471" y="265" type="curve" smooth="yes"/>
      <point x="331" y="265"/>
      <point x="212" y="370"/>
      <point x="212" y="538" type="curve" smooth="yes"/>
      <point x="212" y="708"/>
      <point x="331" y="812"/>
      <point x="471" y="812" type="curve" smooth="yes"/>
      <point x="611" y="812"/>
      <point x="731" y="708"/>
      <point x="731" y="538" type="curve" smooth="yes"/>
      <point x="731" y="370"/>
      <point x="611" y="265"/>
    </contour>
  </outline>
</glyph>
<glyph name="uni2610" format="1">
  <advance width="1642"/>
  <unicode hex="2610"/>
  <outline>
    <contour>
      <point x="251" y="79" type="line"/>
      <point x="251" y="1214" type="line"/>
      <point x="1326" y="1214" type="line"/>
      <point x="1326" y="79" type="line"/>
    </contour>
    <contour>
      <point x="152" y="-20" type="line"/>
      <point x="1373" y="-20" type="line"/>
      <point x="1491" y="115" type="line"/>
      <point x="1491" y="1377" type="line"/>
      <point x="287" y="1377" type="line"/>
      <point x="152" y="1262" type="line"/>
    </contour>
  </outline>
</glyph>
<glyph name="uni2611" format="1">
  <advance width="1642"/>
  <unicode hex="2611"/>
  <outline>
    <contour>
      <point x="1326" y="79" type="line"/>
      <point x="251" y="79" type="line"/>
      <point x="251" y="1214" type="line"/>
      <point x="1177" y="1214" type="line"/>
      <point x="1015" y="964"/>
      <point x="879" y="676"/>
      <point x="795" y="388" type="curve"/>
      <point x="786" y="388" type="line"/>
      <point x="731" y="553"/>
      <point x="653" y="721"/>
      <point x="556" y="875" type="curve"/>
      <point x="412" y="779" type="line"/>
      <point x="532" y="601"/>
      <point x="624" y="425"/>
      <point x="699" y="216" type="curve"/>
      <point x="915" y="241" type="line"/>
      <point x="1011" y="588"/>
      <point x="1158" y="888"/>
      <point x="1326" y="1133" type="curve"/>
    </contour>
    <contour>
      <point x="1514" y="1642" type="line"/>
      <point x="1438" y="1564"/>
      <point x="1362" y="1476"/>
      <point x="1289" y="1377" type="curve"/>
      <point x="287" y="1377" type="line"/>
      <point x="152" y="1262" type="line"/>
      <point x="152" y="-20" type="line"/>
      <point x="1373" y="-20" type="line"/>
      <point x="1491" y="115" type="line"/>
      <point x="1491" y="1349" type="line"/>
      <point x="1543" y="1410"/>
      <point x="1598" y="1467"/>
      <point x="1652" y="1517" type="curve"/>
    </contour>
  </outline>
</glyph>
<glyph name="commaaccent" format="1">
  <advance width="419"/>
  <unicode hex="F6C3"/>
  <outline>
    <contour>
      <point x="372" y="-257" type="curve" name="hr00" smooth="yes"/>
      <point x="372" y="-161"/>
      <point x="309" y="-113"/>
      <point x="155" y="-93" type="curve"/>
      <point x="110" y="-184" type="line"/>
      <point x="168" y="-199"/>
      <point x="208" y="-221"/>
      <point x="208" y="-268" type="curve" smooth="yes"/>
      <point x="208" y="-319"/>
      <point x="135" y="-343"/>
      <point x="30" y="-355" type="curve"/>
      <point x="50" y="-452" type="line"/>
      <point x="220" y="-441"/>
      <point x="372" y="-383"/>
    </contour>
    <contour>
      <point x="201" y="800" type="move" name="top"/>
    </contour>
  </outline>
</glyph>
<glyph name="fi" format="1">
  <advance width="1200"/>
  <unicode hex="FB01"/>
  <outline>
    <contour>
      <point x="192" y="1121" type="curve" name="hr01"/>
      <point x="192" y="1002" type="line" name="hr02"/>
      <point x="56" y="992" type="line"/>
      <point x="56" y="828" type="line" name="hr03"/>
      <point x="192" y="828" type="line"/>
      <point x="192" y="0" type="line"/>
      <point x="411" y="0" type="line"/>
      <point x="411" y="828" type="line"/>
      <point x="610" y="828" type="line"/>
      <point x="610" y="1003" type="line"/>
      <point x="411" y="1003" type="line"/>
      <point x="411" y="1124" type="line" smooth="yes"/>
      <point x="411" y="1243"/>
      <point x="455" y="1299"/>
      <point x="541" y="1299" type="curve" smooth="yes"/>
      <point x="577" y="1299"/>
      <point x="615" y="1290"/>
      <point x="651" y="1276" type="curve"/>
      <point x="695" y="1440" type="line"/>
      <point x="650" y="1457"/>
      <point x="585" y="1474"/>
      <point x="514" y="1474" type="curve" smooth="yes"/>
      <point x="287" y="1474"/>
      <point x="192" y="1329"/>
    </contour>
    <contour>
      <point x="1076" y="1314" type="curve" name="hr04" smooth="yes"/>
      <point x="1076" y="1390"/>
      <point x="1017" y="1441"/>
      <point x="938" y="1441" type="curve" smooth="yes"/>
      <point x="859" y="1441"/>
      <point x="799" y="1390"/>
      <point x="799" y="1314" type="curve" smooth="yes"/>
      <point x="799" y="1240"/>
      <point x="859" y="1187"/>
      <point x="938" y="1187" type="curve" smooth="yes"/>
      <point x="1017" y="1187"/>
      <point x="1076" y="1240"/>
    </contour>
    <contour>
      <point x="1047" y="1003" type="line" name="hr05"/>
      <point x="828" y="1003" type="line"/>
      <point x="828" y="0" type="line"/>
      <point x="1047" y="0" type="line"/>
    </contour>
  </outline>
</glyph>
<glyph name="b-deva" format="1">
  <advance width="597"/>
  <outline>
    <contour>
      <point x="255" y="951"/>
      <point x="68" y="859"/>
      <point x="68" y="564" type="curve" smooth="yes"/>
      <point x="68" y="380"/>
      <point x="146" y="176"/>
      <point x="426" y="176" type="curve" smooth="yes"/>
      <point x="603" y="176"/>
      <point x="747" y="246"/>
      <point x="848" y="382" type="curve"/>
      <point x="814" y="591" type="line"/>
      <point x="730" y="443"/>
      <point x="624" y="341"/>
      <point x="465" y="341" type="curve" smooth="yes"/>
      <point x="332" y="341"/>
      <point x="274" y="396"/>
      <point x="274" y="553" type="curve" smooth="yes"/>
      <point x="274" y="725"/>
      <point x="320" y="776"/>
      <point x="492" y="781" type="curve" smooth="yes"/>
      <point x="590" y="784"/>
      <point x="751" y="747"/>
      <point x="867" y="651" type="curve"/>
      <point x="909" y="814" type="line"/>
      <point x="838" y="894"/>
      <point x="649" y="950"/>
      <point x="487" y="951" type="curve" smooth="yes"/>
    </contour>
    <contour>
      <point x="-19" y="1287" type="line"/>
      <point x="-19" y="1104" type="line"/>
      <point x="608" y="1104" type="line"/>
      <point x="608" y="1287" type="line"/>
    </contour>
    <contour>
      <point x="242" y="745" type="line"/>
      <point x="697" y="289" type="line"/>
      <point x="800" y="395" type="line"/>
      <point x="345" y="851" type="line"/>
    </contour>
  </outline>
</glyph>
<glyph name="b_ja-deva" format="1">
  <advance width="2016"/>
  <outline>
    <contour>
      <point x="140" y="953"/>
      <point x="-37" y="852"/>
      <point x="-37" y="564" type="curve" smooth="yes"/>
      <point x="-37" y="383"/>
      <point x="37" y="171"/>
      <point x="325" y="171" type="curve" smooth="yes"/>
      <point x="509" y="171"/>
      <point x="665" y="258"/>
      <point x="763" y="388" type="curve"/>
      <point x="714" y="594" type="line"/>
      <point x="632" y="448"/>
      <point x="527" y="345"/>
      <point x="367" y="345" type="curve" smooth="yes"/>
      <point x="237" y="345"/>
      <point x="180" y="397"/>
      <point x="180" y="552" type="curve" smooth="yes"/>
      <point x="180" y="712"/>
      <point x="212" y="775"/>
      <point x="392" y="775" type="curve" smooth="yes"/>
      <point x="461" y="775"/>
      <point x="500" y="774"/>
      <point x="545" y="758" type="curve"/>
      <point x="584" y="920" type="line"/>
      <point x="527" y="945"/>
      <point x="445" y="953"/>
      <point x="386" y="953" type="curve" smooth="yes"/>
    </contour>
    <contour>
      <point x="-99" y="1293" type="line"/>
      <point x="-99" y="1099" type="line"/>
      <point x="721" y="1099" type="line"/>
      <point x="721" y="1293" type="line"/>
    </contour>
    <contour>
      <point x="143" y="738" type="line"/>
      <point x="595" y="285" type="line"/>
      <point x="704" y="396" type="line"/>
      <point x="252" y="849" type="line"/>
    </contour>
    <component base="ja-deva" xOffset="593"/>
  </outline>
</glyph>
<glyph name="b_sha-deva" format="1">
  <advance width="2067"/>
  <outline>
    <contour>
      <point x="235" y="951"/>
      <point x="49" y="859"/>
      <point x="49" y="564" type="curve" smooth="yes"/>
      <point x="49" y="380"/>
      <point x="127" y="176"/>
      <point x="407" y="176" type="curve" smooth="yes"/>
      <point x="584" y="176"/>
      <point x="742" y="259"/>
      <point x="842" y="395" type="curve"/>
      <point x="795" y="591" type="line"/>
      <point x="711" y="443"/>
      <point x="605" y="341"/>
      <point x="446" y="341" type="curve" smooth="yes"/>
      <point x="313" y="341"/>
      <point x="255" y="396"/>
      <point x="255" y="553" type="curve" smooth="yes"/>
      <point x="255" y="725"/>
      <point x="301" y="782"/>
      <point x="473" y="782" type="curve" smooth="yes"/>
      <point x="540" y="782"/>
      <point x="579" y="780"/>
      <point x="623" y="765" type="curve"/>
      <point x="661" y="918" type="line"/>
      <point x="604" y="943"/>
      <point x="528" y="951"/>
      <point x="468" y="951" type="curve" smooth="yes"/>
    </contour>
    <contour>
      <point x="-19" y="1287" type="line"/>
      <point x="-19" y="1104" type="line"/>
      <point x="718" y="1104" type="line"/>
      <point x="718" y="1287" type="line"/>
    </contour>
    <contour>
      <point x="223" y="745" type="line"/>
      <point x="678" y="289" type="line"/>
      <point x="781" y="395" type="line"/>
      <point x="326" y="851" type="line"/>
    </contour>
    <component base="sha-deva" xOffset="675"/>
  </outline>
</glyph>
<glyph name="bha_ra-deva" format="1">
  <advance width="1242"/>
  <outline>
    <contour>
      <point x="1045" y="416" type="line"/>
      <point x="909" y="529" type="line"/>
      <point x="271" y="82" type="line"/>
      <point x="397" y="-70" type="line"/>
    </contour>
    <component base="bha-deva"/>
    <contour>
      <point x="971" y="1167" type="move" name="top"/>
    </contour>
    <contour>
      <point x="971" y="27" type="move" name="bottom"/>
    </contour>
    <contour>
      <point x="665" y="1167" type="move" name="topcandra"/>
    </contour>
  </outline>
</glyph>
<glyph name="ca_ca-deva" format="1">
  <advance width="2010"/>
  <outline>
    <component base="c-deva"/>
    <component base="ca-deva" xOffset="749"/>
    <contour>
      <point x="1737" y="1167" type="move" name="top"/>
    </contour>
    <contour>
      <point x="1737" y="27" type="move" name="bottom"/>
    </contour>
    <contour>
      <point x="1713" y="1167" type="move" name="topcandra"/>
    </contour>
  </outline>
</glyph>
<glyph name="comma.dnom" format="1">
  <advance width="386"/>
  <outline>
    <contour>
      <point x="66" y="-159" type="curve" name="hr01"/>
      <point x="103" y="-249" type="line"/>
      <point x="240" y="-203"/>
      <point x="321" y="-97"/>
      <point x="321" y="37" type="curve" smooth="yes"/>
      <point x="321" y="146"/>
      <point x="275" y="205"/>
      <point x="198" y="205" type="curve" name="hr02" smooth="yes"/>
      <point x="138" y="205"/>
      <point x="88" y="162"/>
      <point x="88" y="100" type="curve" smooth="yes"/>
      <point x="88" y="34"/>
      <point x="139" y="0"/>
      <point x="194" y="0" type="curve" name="hr03" smooth="yes"/>
      <point x="198" y="0"/>
      <point x="203" y="0"/>
      <point x="207" y="1" type="curve"/>
      <point x="206" y="-77"/>
      <point x="154" y="-127"/>
    </contour>
  </outline>
</glyph>
<glyph name="comma.subs" format="1">
  <advance width="386"/>
  <outline>
    <contour>
      <point x="66" y="-621" type="curve" name="hr00"/>
      <point x="103" y="-709" type="line"/>
      <point x="240" y="-664"/>
      <point x="321" y="-560"/>
      <point x="321" y="-424" type="curve" smooth="yes"/>
      <point x="321" y="-316"/>
      <point x="275" y="-256"/>
      <point x="198" y="-256" type="curve" smooth="yes"/>
      <point x="138" y="-256"/>
      <point x="88" y="-299"/>
      <point x="88" y="-361" type="curve" smooth="yes"/>
      <point x="88" y="-427"/>
      <point x="139" y="-461"/>
      <point x="194" y="-461" type="curve" smooth="yes"/>
      <point x="198" y="-461"/>
      <point x="203" y="-461"/>
      <point x="207" y="-460" type="curve"/>
      <point x="206" y="-539"/>
      <point x="154" y="-588"/>
    </contour>
  </outline>
</glyph>
<glyph name="d_g_ra-deva" format="1">
  <advance width="1033"/>
  <outline>
    <contour>
      <point x="227" y="-40" type="line"/>
      <point x="86" y="-81" type="line"/>
      <point x="86" y="-195" type="line"/>
      <point x="241" y="-340" type="line"/>
      <point x="381" y="-339"/>
      <point x="400" y="-273"/>
      <point x="400" y="-213" type="curve" smooth="yes"/>
      <point x="400" y="-19" type="line"/>
    </contour>
    <contour>
      <point x="209" y="245" type="line"/>
      <point x="209" y="-91" type="line"/>
      <point x="400" y="-70" type="line"/>
      <point x="400" y="245" type="line"/>
    </contour>
    <contour>
      <point x="635" y="230" type="line"/>
      <point x="635" y="-580" type="line"/>
      <point x="826" y="-580" type="line"/>
      <point x="826" y="230" type="line"/>
    </contour>
    <contour>
      <point x="795" y="-267" type="line"/>
      <point x="691" y="-166" type="line"/>
      <point x="177" y="-536" type="line"/>
      <point x="294" y="-678" type="line"/>
    </contour>
    <component base="da-deva"/>
  </outline>
</glyph>
<glyph name="d_ga-deva" format="1">
  <advance width="1039"/>
  <outline>
    <contour>
      <point x="402" y="-132" type="line"/>
      <point x="214" y="-155" type="line"/>
      <point x="214" y="-298" type="line"/>
      <point x="399" y="-504" type="line"/>
      <point x="530" y="-504"/>
      <point x="559" y="-438"/>
      <point x="559" y="-356" type="curve" smooth="yes"/>
      <point x="559" y="-132" type="line"/>
    </contour>
    <contour>
      <point x="363" y="178" type="line"/>
      <point x="358" y="-396" type="line"/>
      <point x="560" y="-209" type="line"/>
      <point x="563" y="177" type="line"/>
    </contour>
    <component base="da-deva"/>
    <contour>
      <point x="727" y="1167" type="move" name="top"/>
    </contour>
    <contour>
      <point x="979" y="-67" type="move" name="bottom"/>
    </contour>
    <contour>
      <point x="537" y="1167" type="move" name="topcandra"/>
    </contour>
  </outline>
</glyph>
<glyph name="d_ya-deva" format="1">
  <advance width="1267"/>
  <outline>
    <contour>
      <point x="570" y="625" type="line"/>
      <point x="202" y="622"/>
      <point x="106" y="459"/>
      <point x="106" y="317" type="curve" smooth="yes"/>
      <point x="106" y="146"/>
      <point x="228" y="13"/>
      <point x="465" y="13" type="curve" smooth="yes"/>
      <point x="699" y="13"/>
      <point x="861" y="148"/>
      <point x="951" y="254" type="curve"/>
      <point x="927" y="469" type="line"/>
      <point x="832" y="319"/>
      <point x="654" y="193"/>
      <point x="461" y="193" type="curve" smooth="yes"/>
      <point x="359" y="193"/>
      <point x="315" y="238"/>
      <point x="315" y="298" type="curve" smooth="yes"/>
      <point x="315" y="398"/>
      <point x="391" y="442"/>
      <point x="583" y="450" type="curve"/>
    </contour>
    <contour>
      <point x="534" y="965" type="line"/>
      <point x="336" y="964" type="line" smooth="yes"/>
      <point x="137" y="962"/>
      <point x="56" y="884"/>
      <point x="56" y="751" type="curve" smooth="yes"/>
      <point x="56" y="632"/>
      <point x="153" y="510"/>
      <point x="261" y="453" type="curve"/>
      <point x="328" y="564" type="line"/>
      <point x="259" y="602"/>
      <point x="238" y="671"/>
      <point x="238" y="713" type="curve" smooth="yes"/>
      <point x="238" y="752"/>
      <point x="254" y="779"/>
      <point x="401" y="779" type="curve" smooth="yes"/>
      <point x="557" y="779" type="line"/>
    </contour>
    <contour>
      <point x="632" y="1197" type="line"/>
      <point x="426" y="1197" type="line"/>
      <point x="426" y="779" type="line"/>
      <point x="633" y="779" type="line"/>
    </contour>
    <contour>
      <point x="881" y="1225" type="line"/>
      <point x="881" y="-17" type="line"/>
      <point x="1091" y="-17" type="line"/>
      <point x="1091" y="1225" type="line"/>
    </contour>
    <contour>
      <point x="-19" y="1287" type="line"/>
      <point x="-19" y="1104" type="line"/>
      <point x="1286" y="1104" type="line"/>
      <point x="1286" y="1287" type="line"/>
    </contour>
    <contour>
      <point x="986" y="1167" type="move" name="top"/>
    </contour>
    <contour>
      <point x="986" y="27" type="move" name="bottom"/>
    </contour>
    <contour>
      <point x="743" y="1167" type="move" name="topcandra"/>
    </contour>
  </outline>
</glyph>
<glyph name="dd_ddha-deva" format="1">
  <advance width="1074"/>
  <outline>
    <contour>
      <point x="-19" y="1287" type="line"/>
      <point x="-19" y="1104" type="line"/>
      <point x="1093" y="1104" type="line"/>
      <point x="1093" y="1287" type="line"/>
    </contour>
    <contour>
      <point x="689" y="1233" type="line"/>
      <point x="689" y="794" type="line"/>
      <point x="891" y="794" type="line"/>
      <point x="891" y="1233" type="line"/>
    </contour>
    <contour>
      <point x="431" y="973" type="line" smooth="yes"/>
      <point x="243" y="973"/>
      <point x="159" y="911"/>
      <point x="159" y="776" type="curve" smooth="yes"/>
      <point x="159" y="663"/>
      <point x="219" y="545"/>
      <point x="287" y="488" type="curve"/>
      <point x="321" y="460"/>
      <point x="346" y="458"/>
      <point x="366" y="460" type="curve" smooth="yes"/>
      <point x="432" y="466"/>
      <point x="565" y="482"/>
      <point x="676" y="482" type="curve" smooth="yes"/>
      <point x="787" y="482"/>
      <point x="806" y="459"/>
      <point x="806" y="400" type="curve" smooth="yes"/>
      <point x="806" y="327"/>
      <point x="748" y="290"/>
      <point x="587" y="290" type="curve" smooth="yes"/>
      <point x="385" y="290"/>
      <point x="300" y="338"/>
      <point x="183" y="456" type="curve"/>
      <point x="79" y="354" type="line"/>
      <point x="197" y="199"/>
      <point x="381" y="118"/>
      <point x="577" y="118" type="curve" smooth="yes"/>
      <point x="813" y="118"/>
      <point x="1000" y="193"/>
      <point x="1000" y="422" type="curve" smooth="yes"/>
      <point x="1000" y="638"/>
      <point x="839" y="661"/>
      <point x="644" y="660" type="curve" smooth="yes"/>
      <point x="538" y="659"/>
      <point x="420" y="646"/>
      <point x="345" y="633" type="curve"/>
      <point x="364" y="619" type="line"/>
      <point x="357" y="627"/>
      <point x="340" y="672"/>
      <point x="340" y="716" type="curve" smooth="yes"/>
      <point x="340" y="779"/>
      <point x="367" y="794"/>
      <point x="487" y="794" type="curve" smooth="yes"/>
      <point x="813" y="794" type="line"/>
      <point x="790" y="973" type="line"/>
    </contour>
    <contour>
      <point x="332" y="8"/>
      <point x="414" y="114"/>
      <point x="636" y="120" type="curve"/>
      <point x="611" y="226" type="line"/>
      <point x="274" y="226"/>
      <point x="132" y="94"/>
      <point x="132" y="-147" type="curve" smooth="yes"/>
      <point x="132" y="-420"/>
      <point x="314" y="-572"/>
      <point x="598" y="-572" type="curve" smooth="yes"/>
      <point x="750" y="-572"/>
      <point x="1036" y="-524"/>
      <point x="1036" y="-253" type="curve" smooth="yes"/>
      <point x="1036" y="-91"/>
      <point x="922" y="-19"/>
      <point x="778" y="-19" type="curve" smooth="yes"/>
      <point x="602" y="-19"/>
      <point x="534" y="-126"/>
      <point x="534" y="-216" type="curve" smooth="yes"/>
      <point x="534" y="-304"/>
      <point x="565" y="-364"/>
      <point x="643" y="-435" type="curve"/>
      <point x="779" y="-409" type="line"/>
      <point x="718" y="-347"/>
      <point x="703" y="-302"/>
      <point x="703" y="-253" type="curve" smooth="yes"/>
      <point x="703" y="-209"/>
      <point x="731" y="-171"/>
      <point x="780" y="-171" type="curve" smooth="yes"/>
      <point x="828" y="-171"/>
      <point x="872" y="-179"/>
      <point x="872" y="-244" type="curve" smooth="yes"/>
      <point x="872" y="-360"/>
      <point x="778" y="-406"/>
      <point x="635" y="-409" type="curve" smooth="yes"/>
      <point x="411" y="-415"/>
      <point x="332" y="-356"/>
      <point x="332" y="-154" type="curve" smooth="yes"/>
    </contour>
    <contour>
      <point x="790" y="1167" type="move" name="top"/>
    </contour>
    <contour>
      <point x="668" y="-531" type="move" name="bottom"/>
    </contour>
    <contour>
      <point x="574" y="1167" type="move" name="topcandra"/>
    </contour>
  </outline>
</glyph>
<glyph name="dd_ya-deva" format="1">
  <advance width="2192"/>
  <outline>
    <contour>
      <point x="1012" y="1287" type="line"/>
      <point x="1012" y="1104" type="line"/>
      <point x="2211" y="1104" type="line"/>
      <point x="2211" y="1287" type="line"/>
    </contour>
    <contour>
      <point x="1290" y="756"/>
      <point x="1316" y="746"/>
      <point x="1316" y="709" type="curve" smooth="yes"/>
      <point x="1316" y="661"/>
      <point x="1244" y="620"/>
      <point x="1059" y="575" type="curve"/>
      <point x="1111" y="289"/>
      <point x="1282" y="127"/>
      <point x="1530" y="127" type="curve" smooth="yes"/>
      <point x="1659" y="127"/>
      <point x="1752" y="173"/>
      <point x="1833" y="257" type="curve"/>
      <point x="1845" y="513" type="line"/>
      <point x="1761" y="376"/>
      <point x="1634" y="319"/>
      <point x="1514" y="319" type="curve" smooth="yes"/>
      <point x="1389" y="319"/>
      <point x="1293" y="380"/>
      <point x="1257" y="526" type="curve"/>
      <point x="1240" y="448" type="line"/>
      <point x="1348" y="484"/>
      <point x="1508" y="549"/>
      <point x="1508" y="726" type="curve" smooth="yes"/>
      <point x="1508" y="876"/>
      <point x="1392" y="930"/>
      <point x="1185" y="930" type="curve" smooth="yes"/>
      <point x="654" y="930" type="line"/>
      <point x="653" y="756" type="line"/>
      <point x="1203" y="756" type="line" smooth="yes"/>
    </contour>
    <contour>
      <point x="1806" y="1131" type="line"/>
      <point x="1806" y="0" type="line"/>
      <point x="2016" y="0" type="line"/>
      <point x="2016" y="1131" type="line"/>
    </contour>
    <contour>
      <point x="398" y="932" type="line" smooth="yes"/>
      <point x="176" y="930"/>
      <point x="99" y="846"/>
      <point x="99" y="702" type="curve" smooth="yes"/>
      <point x="99" y="572"/>
      <point x="160" y="421"/>
      <point x="230" y="366" type="curve" smooth="yes"/>
      <point x="266" y="339"/>
      <point x="289" y="339"/>
      <point x="318" y="342" type="curve" smooth="yes"/>
      <point x="383" y="349"/>
      <point x="573" y="369"/>
      <point x="658" y="369" type="curve" smooth="yes"/>
      <point x="771" y="369"/>
      <point x="797" y="334"/>
      <point x="797" y="272" type="curve" smooth="yes"/>
      <point x="796" y="196"/>
      <point x="754" y="118"/>
      <point x="546" y="118" type="curve" smooth="yes"/>
      <point x="356" y="118"/>
      <point x="236" y="186"/>
      <point x="123" y="265" type="curve"/>
      <point x="41" y="135" type="line"/>
      <point x="155" y="23"/>
      <point x="349" y="-67"/>
      <point x="560" y="-67" type="curve" smooth="yes"/>
      <point x="823" y="-67"/>
      <point x="991" y="60"/>
      <point x="991" y="295" type="curve" smooth="yes"/>
      <point x="991" y="524"/>
      <point x="833" y="559"/>
      <point x="669" y="559" type="curve" smooth="yes"/>
      <point x="544" y="559"/>
      <point x="353" y="538"/>
      <point x="292" y="525" type="curve"/>
      <point x="315" y="518" type="line"/>
      <point x="302" y="542"/>
      <point x="286" y="592"/>
      <point x="286" y="645" type="curve" smooth="yes"/>
      <point x="286" y="729"/>
      <point x="316" y="756"/>
      <point x="435" y="756" type="curve" smooth="yes"/>
      <point x="782" y="756" type="line"/>
      <point x="759" y="932" type="line"/>
    </contour>
    <contour>
      <point x="-17" y="1287" type="line"/>
      <point x="-17" y="1104" type="line"/>
      <point x="1078" y="1104" type="line"/>
      <point x="1078" y="1287" type="line"/>
    </contour>
    <contour>
      <point x="653" y="1180" type="line"/>
      <point x="653" y="756" type="line"/>
      <point x="860" y="756" type="line"/>
      <point x="860" y="1180" type="line"/>
    </contour>
    <contour>
      <point x="546" y="-241" type="move" name="nukta"/>
    </contour>
    <contour>
      <point x="761" y="1167" type="move" name="top"/>
    </contour>
    <contour>
      <point x="538" y="1167" type="move" name="topcandra"/>
    </contour>
    <contour>
      <point x="553" y="-37" type="move" name="bottom"/>
    </contour>
  </outline>
</glyph>
<glyph name="dotaccent.cap" format="1">
  <advance width="0"/>
  <outline>
    <contour>
      <point x="0" y="1450" type="curve" name="hr00" smooth="yes"/>
      <point x="81" y="1450"/>
      <point x="142" y="1504"/>
      <point x="142" y="1582" type="curve" smooth="yes"/>
      <point x="142" y="1658"/>
      <point x="81" y="1712"/>
      <point x="0" y="1712" type="curve" smooth="yes"/>
      <point x="-81" y="1712"/>
      <point x="-142" y="1658"/>
      <point x="-142" y="1582" type="curve" smooth="yes"/>
      <point x="-142" y="1504"/>
      <point x="-81" y="1450"/>
    </contour>
    <contour>
      <point x="0" y="800" type="move" name="_top"/>
    </contour>
  </outline>
</glyph>
<glyph name="eMatra_reph_anusvara-deva" format="1">
  <advance width="540"/>
  <outline>
    <component base="eMatra-deva"/>
    <component base="reph_anusvara-deva" xOffset="71"/>
    <contour>
      <point x="439" y="1589" type="move" name="topcandra"/>
    </contour>
    <contour>
      <point x="252" y="1167" type="move" name="_top"/>
    </contour>
  </outline>
</glyph>
<glyph name="five.tnum" format="1">
  <advance width="1042"/>
  <outline>
    <contour>
      <point x="163" y="131" type="curve" name="hr01"/>
      <point x="61" y="-6" type="line" name="hr02"/>
      <point x="156" y="-96"/>
      <point x="286" y="-179"/>
      <point x="497" y="-179" type="curve" name="hr03" smooth="yes"/>
      <point x="735" y="-179"/>
      <point x="944" y="-8"/>
      <point x="944" y="284" type="curve" smooth="yes"/>
      <point x="944" y="567"/>
      <point x="770" y="693"/>
      <point x="535" y="693" type="curve" smooth="yes"/>
      <point x="465" y="693"/>
      <point x="412" y="676"/>
      <point x="355" y="648" type="curve"/>
      <point x="385" y="993" type="line"/>
      <point x="881" y="993" type="line"/>
      <point x="881" y="1179" type="line"/>
      <point x="195" y="1179" type="line"/>
      <point x="155" y="528" type="line"/>
      <point x="262" y="458" type="line"/>
      <point x="340" y="511"/>
      <point x="389" y="533"/>
      <point x="473" y="533" type="curve" smooth="yes"/>
      <point x="623" y="533"/>
      <point x="724" y="446"/>
      <point x="724" y="278" type="curve" smooth="yes"/>
      <point x="724" y="110"/>
      <point x="620" y="0"/>
      <point x="470" y="0" type="curve" smooth="yes"/>
      <point x="333" y="0"/>
      <point x="241" y="63"/>
    </contour>
  </outline>
</glyph>
<glyph name="four.numr" format="1">
  <advance width="759"/>
  <outline>
    <contour>
      <point x="594" y="741" type="line" name="hr00"/>
      <point x="713" y="741" type="line"/>
      <point x="713" y="854" type="line"/>
      <point x="594" y="854" type="line"/>
      <point x="594" y="1340" type="line"/>
      <point x="398" y="1340" type="line"/>
      <point x="81" y="824" type="line"/>
      <point x="81" y="741" type="line"/>
      <point x="446" y="741" type="line"/>
      <point x="446" y="542" type="line"/>
      <point x="594" y="542" type="line"/>
    </contour>
    <contour>
      <point x="446" y="976" type="line"/>
      <point x="446" y="854" type="line"/>
      <point x="242" y="854" type="line"/>
      <point x="353" y="1042" type="line"/>
      <point x="448" y="1205" type="line"/>
      <point x="456" y="1205" type="line"/>
    </contour>
  </outline>
</glyph>
<glyph name="four.onum" format="1">
  <advance width="1082"/>
  <outline>
    <contour>
      <point x="837" y="184" type="line" name="hr00"/>
      <point x="1004" y="184" type="line"/>
      <point x="1004" y="355" type="line"/>
      <point x="837" y="355" type="line"/>
      <point x="837" y="1179" type="line"/>
      <point x="579" y="1179" type="line"/>
      <point x="53" y="332" type="line"/>
      <point x="53" y="184" type="line"/>
      <point x="631" y="184" type="line"/>
      <point x="631" y="-155" type="line"/>
      <point x="837" y="-155" type="line"/>
    </contour>
    <contour>
      <point x="631" y="702" type="curve"/>
      <point x="631" y="355" type="line"/>
      <point x="273" y="355" type="line"/>
      <point x="528" y="753" type="line"/>
      <point x="564" y="822"/>
      <point x="601" y="897"/>
      <point x="634" y="965" type="curve"/>
      <point x="642" y="965" type="line"/>
      <point x="638" y="891"/>
      <point x="631" y="777"/>
    </contour>
  </outline>
</glyph>
<glyph name="four.pnum" format="1">
  <advance width="1095"/>
  <outline>
    <contour>
      <point x="855" y="341" type="line" name="hr00"/>
      <point x="1022" y="341" type="line"/>
      <point x="1022" y="513" type="line"/>
      <point x="855" y="513" type="line"/>
      <point x="855" y="1343" type="line"/>
      <point x="599" y="1343" type="line"/>
      <point x="72" y="489" type="line"/>
      <point x="72" y="341" type="line"/>
      <point x="650" y="341" type="line"/>
      <point x="650" y="0" type="line"/>
      <point x="855" y="0" type="line"/>
    </contour>
    <contour>
      <point x="650" y="853" type="curve"/>
      <point x="650" y="513" type="line"/>
      <point x="291" y="513" type="line"/>
      <point x="545" y="922" type="line"/>
      <point x="582" y="990"/>
      <point x="619" y="1067"/>
      <point x="651" y="1133" type="curve"/>
      <point x="660" y="1133" type="line"/>
      <point x="656" y="1059"/>
      <point x="650" y="928"/>
    </contour>
  </outline>
</glyph>
<glyph name="g-deva" format="1">
  <advance width="605"/>
  <outline>
    <contour>
      <point x="272" y="729" type="line"/>
      <point x="84" y="706" type="line"/>
      <point x="84" y="563" type="line"/>
      <point x="269" y="357" type="line"/>
      <point x="409" y="358"/>
      <point x="437" y="424"/>
      <point x="437" y="506" type="curve" smooth="yes"/>
      <point x="437" y="729" type="line"/>
    </contour>
    <contour>
      <point x="227" y="1176" type="line"/>
      <point x="227" y="465" type="line"/>
      <point x="437" y="653" type="line"/>
      <point x="437" y="1176" type="line"/>
    </contour>
    <contour>
      <point x="-19" y="1287" type="line"/>
      <point x="-19" y="1104" type="line"/>
      <point x="624" y="1104" type="line"/>
      <point x="624" y="1287" type="line"/>
    </contour>
  </outline>
</glyph>
<glyph name="gh_h-deva" format="1">
  <advance width="605"/>
  <outline>
    <contour>
      <point x="272" y="729" type="line"/>
      <point x="84" y="706" type="line"/>
      <point x="84" y="563" type="line"/>
      <point x="269" y="357" type="line"/>
      <point x="409" y="358"/>
      <point x="437" y="424"/>
      <point x="437" y="506" type="curve" smooth="yes"/>
      <point x="437" y="729" type="line"/>
    </contour>
    <contour>
      <point x="227" y="1176" type="line"/>
      <point x="227" y="465" type="line"/>
      <point x="437" y="653" type="line"/>
      <point x="437" y="1176" type="line"/>
    </contour>
    <contour>
      <point x="-19" y="1287" type="line"/>
      <point x="-19" y="1104" type="line"/>
      <point x="624" y="1104" type="line"/>
      <point x="624" y="1287" type="line"/>
    </contour>
    <contour>
      <point x="246" y="243"/>
      <point x="214" y="212"/>
      <point x="214" y="139" type="curve" smooth="yes"/>
      <point x="214" y="67"/>
      <point x="246" y="36"/>
      <point x="319" y="36" type="curve" smooth="yes"/>
      <point x="393" y="36"/>
      <point x="424" y="67"/>
      <point x="424" y="139" type="curve" smooth="yes"/>
      <point x="424" y="212"/>
      <point x="393" y="243"/>
      <point x="319" y="243" type="curve" smooth="yes"/>
    </contour>
    <contour>
      <point x="336" y="1167" type="move" name="top"/>
    </contour>
    <contour>
      <point x="364" y="0" type="move" name="bottom"/>
    </contour>
  </outline>
</glyph>
<glyph name="gha_ra-deva" format="1">
  <advance width="1196"/>
  <outline>
    <contour>
      <point x="203" y="80" type="line"/>
      <point x="330" y="-71" type="line"/>
      <point x="940" y="396" type="line"/>
      <point x="893" y="538" type="line"/>
    </contour>
    <component base="gha-deva" xOffset="9"/>
    <contour>
      <point x="923" y="1167" type="move" name="top"/>
    </contour>
    <contour>
      <point x="923" y="27" type="move" name="bottom"/>
    </contour>
    <contour>
      <point x="583" y="1167" type="move" name="topcandra"/>
    </contour>
  </outline>
</glyph>
<glyph name="h_matra_vocalicR-deva" format="1">
  <advance width="1015"/>
  <outline>
    <contour>
      <point x="296" y="598"/>
      <point x="72" y="490"/>
      <point x="72" y="233" type="curve" smooth="yes"/>
      <point x="72" y="14"/>
      <point x="234" y="-245"/>
      <point x="784" y="-367" type="curve"/>
      <point x="834" y="-207" type="line"/>
      <point x="497" y="-122"/>
      <point x="280" y="9"/>
      <point x="280" y="193" type="curve" smooth="yes"/>
      <point x="280" y="315"/>
      <point x="370" y="417"/>
      <point x="561" y="417" type="curve" smooth="yes"/>
      <point x="670" y="417"/>
      <point x="692" y="393"/>
      <point x="692" y="374" type="curve" smooth="yes"/>
      <point x="692" y="352"/>
      <point x="675" y="343"/>
      <point x="626" y="315" type="curve" smooth="yes"/>
      <point x="549" y="271"/>
      <point x="482" y="233"/>
      <point x="482" y="127" type="curve" smooth="yes"/>
      <point x="482" y="50"/>
      <point x="534" y="-68"/>
      <point x="728" y="-68" type="curve" smooth="yes"/>
      <point x="794" y="-68"/>
      <point x="858" y="-55"/>
      <point x="921" y="-25" type="curve"/>
      <point x="881" y="131" type="line"/>
      <point x="832" y="109"/>
      <point x="755" y="90"/>
      <point x="703" y="92" type="curve" smooth="yes"/>
      <point x="674" y="93"/>
      <point x="649" y="102"/>
      <point x="649" y="128" type="curve" smooth="yes"/>
      <point x="649" y="151"/>
      <point x="657" y="160"/>
      <point x="736" y="203" type="curve" smooth="yes"/>
      <point x="818" y="247"/>
      <point x="882" y="280"/>
      <point x="882" y="386" type="curve" smooth="yes"/>
      <point x="882" y="500"/>
      <point x="760" y="598"/>
      <point x="544" y="598" type="curve" smooth="yes"/>
    </contour>
    <contour>
      <point x="637" y="1156" type="line"/>
      <point x="637" y="932" type="line"/>
      <point x="395" y="932" type="line" smooth="yes"/>
      <point x="181" y="932"/>
      <point x="99" y="835"/>
      <point x="98" y="721" type="curve" smooth="yes"/>
      <point x="98" y="621"/>
      <point x="160" y="525"/>
      <point x="267" y="405" type="curve"/>
      <point x="393" y="457" type="line"/>
      <point x="339" y="548"/>
      <point x="312" y="624"/>
      <point x="313" y="669" type="curve" smooth="yes"/>
      <point x="313" y="710"/>
      <point x="335" y="745"/>
      <point x="423" y="745" type="curve" smooth="yes"/>
      <point x="847" y="745" type="line"/>
      <point x="847" y="1156" type="line"/>
    </contour>
    <contour>
      <point x="-19" y="1287" type="line"/>
      <point x="-19" y="1104" type="line"/>
      <point x="1034" y="1104" type="line"/>
      <point x="1034" y="1287" type="line"/>
    </contour>
    <contour>
      <point x="742" y="1167" type="move" name="top"/>
    </contour>
    <contour>
      <point x="657" y="-239" type="move" name="bottom"/>
    </contour>
    <contour>
      <point x="542" y="1167" type="move" name="topcandra"/>
    </contour>
  </outline>
</glyph>
<glyph name="h_na-deva" format="1">
  <advance width="1130"/>
  <outline>
    <contour>
      <point x="317" y="559"/>
      <point x="70" y="463"/>
      <point x="70" y="189" type="curve" smooth="yes"/>
      <point x="70" y="-83"/>
      <point x="298" y="-352"/>
      <point x="782" y="-440" type="curve"/>
      <point x="829" y="-281" type="line"/>
      <point x="395" y="-186"/>
      <point x="270" y="3"/>
      <point x="270" y="161" type="curve" smooth="yes"/>
      <point x="270" y="305"/>
      <point x="337" y="385"/>
      <point x="570" y="385" type="curve" smooth="yes"/>
      <point x="814" y="385"/>
      <point x="858" y="285"/>
      <point x="858" y="187" type="curve" smooth="yes"/>
      <point x="858" y="116"/>
      <point x="834" y="61"/>
      <point x="791" y="1" type="curve"/>
      <point x="929" y="-99" type="line"/>
      <point x="1009" y="-9"/>
      <point x="1035" y="106"/>
      <point x="1035" y="198" type="curve" smooth="yes"/>
      <point x="1035" y="392"/>
      <point x="911" y="559"/>
      <point x="567" y="559" type="curve" smooth="yes"/>
    </contour>
    <contour>
      <point x="380" y="140" type="line"/>
      <point x="476" y="4" type="line"/>
      <point x="671" y="-72" type="line"/>
      <point x="756" y="-9"/>
      <point x="716" y="59"/>
      <point x="678" y="120" type="curve" smooth="yes"/>
      <point x="657" y="156" type="line"/>
      <point x="922" y="346" type="line"/>
      <point x="833" y="464" type="line"/>
    </contour>
    <contour>
      <point x="668" y="1156" type="line"/>
      <point x="668" y="932" type="line"/>
      <point x="399" y="932" type="line" smooth="yes"/>
      <point x="185" y="932"/>
      <point x="103" y="835"/>
      <point x="102" y="721" type="curve" smooth="yes"/>
      <point x="102" y="622"/>
      <point x="164" y="526"/>
      <point x="271" y="405" type="curve"/>
      <point x="397" y="457" type="line"/>
      <point x="343" y="548"/>
      <point x="316" y="624"/>
      <point x="317" y="669" type="curve" smooth="yes"/>
      <point x="317" y="710"/>
      <point x="339" y="745"/>
      <point x="427" y="745" type="curve" smooth="yes"/>
      <point x="878" y="745" type="line"/>
      <point x="878" y="1156" type="line"/>
    </contour>
    <contour>
      <point x="-19" y="1287" type="line"/>
      <point x="-19" y="1104" type="line"/>
      <point x="1149" y="1104" type="line"/>
      <point x="1149" y="1287" type="line"/>
    </contour>
    <contour>
      <point x="774" y="1167" type="move" name="top"/>
    </contour>
    <contour>
      <point x="610" y="-328" type="move" name="bottom"/>
    </contour>
    <contour>
      <point x="572" y="1167" type="move" name="topcandra"/>
    </contour>
  </outline>
</glyph>
<glyph name="iMatra-deva.01" format="1">
  <advance width="562"/>
  <outline>
    <contour>
      <point x="451" y="1204" type="line"/>
      <point x="311" y="1339"/>
      <point x="285" y="1398"/>
      <point x="285" y="1475" type="curve" smooth="yes"/>
      <point x="285" y="1568"/>
      <point x="337" y="1614"/>
      <point x="516" y="1614" type="curve" smooth="yes"/>
      <point x="792" y="1614"/>
      <point x="1066" y="1513"/>
      <point x="1332" y="1356" type="curve"/>
      <point x="1406" y="1477" type="line"/>
      <point x="1098" y="1697"/>
      <point x="763" y="1808"/>
      <point x="483" y="1808" type="curve" smooth="yes"/>
      <point x="271" y="1808"/>
      <point x="68" y="1741"/>
      <point x="68" y="1524" type="curve" smooth="yes"/>
      <point x="68" y="1403"/>
      <point x="130" y="1305"/>
      <point x="271" y="1197" type="curve"/>
    </contour>
    <contour>
      <point x="385" y="1" type="line"/>
      <point x="385" y="1217" type="line"/>
      <point x="175" y="1217" type="line"/>
      <point x="175" y="1" type="line"/>
    </contour>
    <contour>
      <point x="586" y="1104" type="line"/>
      <point x="586" y="1287" type="line"/>
      <point x="-19" y="1287" type="line"/>
      <point x="-19" y="1104" type="line"/>
    </contour>
    <contour>
      <point x="1368" y="1407" type="move" name="imatra"/>
    </contour>
    <contour>
      <point x="1186" y="1438" type="move" name="top"/>
    </contour>
    <contour>
      <point x="1541" y="1350" type="move" name="topcandra"/>
    </contour>
  </outline>
</glyph>
<glyph name="iMatra-deva.05" format="1">
  <advance width="561"/>
  <outline>
    <contour>
      <point x="451" y="1204" type="line"/>
      <point x="314" y="1338"/>
      <point x="285" y="1400"/>
      <point x="285" y="1466" type="curve" smooth="yes"/>
      <point x="285" y="1566"/>
      <point x="350" y="1614"/>
      <point x="632" y="1614" type="curve" smooth="yes"/>
      <point x="1049" y="1614"/>
      <point x="1412" y="1507"/>
      <point x="1772" y="1356" type="curve"/>
      <point x="1846" y="1477" type="line"/>
      <point x="1475" y="1696"/>
      <point x="1002" y="1808"/>
      <point x="602" y="1808" type="curve" smooth="yes"/>
      <point x="289" y="1808"/>
      <point x="68" y="1739"/>
      <point x="68" y="1521" type="curve" smooth="yes"/>
      <point x="68" y="1404"/>
      <point x="131" y="1305"/>
      <point x="271" y="1197" type="curve"/>
    </contour>
    <contour>
      <point x="385" y="1" type="line"/>
      <point x="385" y="1217" type="line"/>
      <point x="175" y="1217" type="line"/>
      <point x="175" y="1" type="line"/>
    </contour>
    <contour>
      <point x="586" y="1104" type="line"/>
      <point x="586" y="1287" type="line"/>
      <point x="-19" y="1287" type="line"/>
      <point x="-19" y="1104" type="line"/>
    </contour>
    <contour>
      <point x="1810" y="1407" type="move" name="imatra"/>
    </contour>
    <contour>
      <point x="1589" y="1438" type="move" name="top"/>
    </contour>
    <contour>
      <point x="1956" y="1350" type="move" name="topcandra"/>
    </contour>
  </outline>
</glyph>
<glyph name="iMatra-deva.15" format="1">
  <advance width="561"/>
  <outline>
    <contour>
      <point x="451" y="1204" type="line"/>
      <point x="314" y="1338"/>
      <point x="285" y="1400"/>
      <point x="285" y="1465" type="curve" smooth="yes"/>
      <point x="285" y="1565"/>
      <point x="351" y="1614"/>
      <point x="684" y="1614" type="curve" smooth="yes"/>
      <point x="1196" y="1614"/>
      <point x="1703" y="1497"/>
      <point x="2102" y="1356" type="curve"/>
      <point x="2176" y="1477" type="line"/>
      <point x="1768" y="1686"/>
      <point x="1145" y="1808"/>
      <point x="658" y="1808" type="curve" smooth="yes"/>
      <point x="289" y="1808"/>
      <point x="68" y="1738"/>
      <point x="68" y="1520" type="curve" smooth="yes"/>
      <point x="68" y="1404"/>
      <point x="131" y="1305"/>
      <point x="271" y="1197" type="curve"/>
    </contour>
    <contour>
      <point x="385" y="1" type="line"/>
      <point x="385" y="1217" type="line"/>
      <point x="175" y="1217" type="line"/>
      <point x="175" y="1" type="line"/>
    </contour>
    <contour>
      <point x="586" y="1104" type="line"/>
      <point x="586" y="1287" type="line"/>
      <point x="-19" y="1287" type="line"/>
      <point x="-19" y="1104" type="line"/>
    </contour>
    <contour>
      <point x="2132" y="1406" type="move" name="imatra"/>
    </contour>
    <contour>
      <point x="1894" y="1438" type="move" name="top"/>
    </contour>
    <contour>
      <point x="2231" y="1350" type="move" name="topcandra"/>
    </contour>
  </outline>
</glyph>
<glyph name="iiMatra_reph-deva.02" format="1">
  <advance width="551"/>
  <outline>
    <component base="reph-deva" xOffset="72"/>
    <component base="iiMatra-deva.02"/>
    <contour>
      <point x="426" y="1607" type="move" name="topcandra"/>
    </contour>
  </outline>
</glyph>
<glyph name="iiMatra_reph-deva" format="1">
  <advance width="563"/>
  <outline>
    <component base="iiMatra-deva"/>
    <component base="reph-deva" xOffset="85"/>
    <contour>
      <point x="439" y="1603" type="move" name="topcandra"/>
    </contour>
  </outline>
</glyph>
<glyph name="j_da-deva" format="1">
  <advance width="1959"/>
  <outline>
    <contour>
      <point x="1543" y="1134" type="line"/>
      <point x="1543" y="840" type="line"/>
      <point x="1683" y="870" type="line"/>
      <point x="1595" y="899"/>
      <point x="1498" y="907"/>
      <point x="1381" y="907" type="curve" smooth="yes"/>
      <point x="571" y="907" type="line"/>
      <point x="647" y="738" type="line"/>
      <point x="1128" y="738" type="line"/>
      <point x="1104" y="749" type="line"/>
      <point x="1032" y="677"/>
      <point x="990" y="595"/>
      <point x="990" y="471" type="curve"/>
      <point x="990" y="275"/>
      <point x="1127" y="55"/>
      <point x="1476" y="55" type="curve" smooth="yes"/>
      <point x="1591" y="55"/>
      <point x="1696" y="78"/>
      <point x="1781" y="134" type="curve" smooth="yes"/>
      <point x="1840" y="174"/>
      <point x="1880" y="259"/>
      <point x="1880" y="323" type="curve" smooth="yes"/>
      <point x="1880" y="432"/>
      <point x="1776" y="507"/>
      <point x="1663" y="537" type="curve"/>
      <point x="1546" y="450" type="line"/>
      <point x="1649" y="231" type="line"/>
      <point x="1727" y="326" type="line"/>
      <point x="1628" y="260"/>
      <point x="1581" y="233"/>
      <point x="1467" y="233" type="curve" smooth="yes"/>
      <point x="1295" y="233"/>
      <point x="1208" y="296"/>
      <point x="1208" y="474" type="curve" smooth="yes"/>
      <point x="1208" y="681"/>
      <point x="1324" y="721"/>
      <point x="1530" y="721" type="curve" smooth="yes"/>
      <point x="1637" y="721"/>
      <point x="1691" y="717"/>
      <point x="1753" y="713" type="curve"/>
      <point x="1753" y="1134" type="line"/>
    </contour>
    <contour>
      <point x="503" y="761" type="line"/>
      <point x="619" y="708"/>
      <point x="663" y="634"/>
      <point x="663" y="532" type="curve" smooth="yes"/>
      <point x="663" y="439"/>
      <point x="611" y="383"/>
      <point x="511" y="381" type="curve" smooth="yes"/>
      <point x="267" y="376"/>
      <point x="234" y="719"/>
      <point x="210" y="892" type="curve"/>
      <point x="45" y="870" type="line"/>
      <point x="64" y="477"/>
      <point x="183" y="184"/>
      <point x="526" y="184" type="curve" smooth="yes"/>
      <point x="729" y="184"/>
      <point x="868" y="300"/>
      <point x="868" y="482" type="curve" smooth="yes"/>
      <point x="868" y="637"/>
      <point x="802" y="708"/>
      <point x="659" y="770" type="curve"/>
      <point x="571" y="908" type="line"/>
    </contour>
    <contour>
      <point x="-19" y="1287" type="line"/>
      <point x="-19" y="1104" type="line"/>
      <point x="952" y="1104" type="line"/>
      <point x="952" y="1287" type="line"/>
    </contour>
    <contour>
      <point x="1656" y="216" type="line"/>
      <point x="1847" y="-171" type="line"/>
      <point x="2011" y="-73" type="line"/>
      <point x="1780" y="272" type="line"/>
    </contour>
    <contour>
      <point x="907" y="1287" type="line"/>
      <point x="907" y="1104" type="line"/>
      <point x="1978" y="1104" type="line"/>
      <point x="1978" y="1287" type="line"/>
    </contour>
    <contour>
      <point x="942" y="82" type="move" name="nukta"/>
    </contour>
    <contour>
      <point x="1647" y="1167" type="move" name="top"/>
    </contour>
    <contour>
      <point x="1461" y="1167" type="move" name="topcandra"/>
    </contour>
    <contour>
      <point x="1482" y="-17" type="move" name="bottom"/>
    </contour>
  </outline>
</glyph>
<glyph name="j_j-deva.alt" format="1">
  <advance width="1202"/>
  <outline>
    <contour>
      <point x="-19" y="1287" type="line"/>
      <point x="-19" y="1104" type="line"/>
      <point x="1281" y="1104" type="line"/>
      <point x="1281" y="1287" type="line"/>
    </contour>
    <contour>
      <point x="126" y="949" type="line"/>
      <point x="153" y="552"/>
      <point x="276" y="320"/>
      <point x="568" y="320" type="curve" smooth="yes"/>
      <point x="799" y="320"/>
      <point x="904" y="450"/>
      <point x="904" y="593" type="curve" smooth="yes"/>
      <point x="904" y="691"/>
      <point x="841" y="787"/>
      <point x="709" y="855" type="curve"/>
      <point x="626" y="974" type="line"/>
      <point x="561" y="835" type="line"/>
      <point x="672" y="784"/>
      <point x="713" y="706"/>
      <point x="713" y="645" type="curve" smooth="yes"/>
      <point x="713" y="556"/>
      <point x="657" y="506"/>
      <point x="564" y="506" type="curve" smooth="yes"/>
      <point x="321" y="506"/>
      <point x="305" y="783"/>
      <point x="283" y="972" type="curve"/>
    </contour>
    <contour>
      <point x="625" y="974" type="line"/>
      <point x="697" y="798" type="line"/>
      <point x="1287" y="798" type="line"/>
      <point x="1287" y="974" type="line"/>
    </contour>
    <contour>
      <point x="690" y="57" type="line"/>
      <point x="855" y="65"/>
      <point x="938" y="-36"/>
      <point x="938" y="-112" type="curve" smooth="yes"/>
      <point x="938" y="-207"/>
      <point x="856" y="-251"/>
      <point x="770" y="-251" type="curve" smooth="yes"/>
      <point x="599" y="-251"/>
      <point x="457" y="-82"/>
      <point x="380" y="74" type="curve"/>
      <point x="251" y="-17" type="line"/>
      <point x="363" y="-260"/>
      <point x="535" y="-438"/>
      <point x="781" y="-438" type="curve" smooth="yes"/>
      <point x="911" y="-438"/>
      <point x="1144" y="-378"/>
      <point x="1144" y="-125" type="curve" smooth="yes"/>
      <point x="1144" y="34"/>
      <point x="1013" y="140"/>
      <point x="812" y="142" type="curve"/>
      <point x="683" y="211" type="line"/>
    </contour>
    <contour>
      <point x="683" y="211" type="line"/>
      <point x="825" y="90" type="line"/>
      <point x="1362" y="361" type="line"/>
      <point x="1265" y="504" type="line"/>
    </contour>
  </outline>
</glyph>
<glyph name="j_na-deva" format="1">
  <advance width="1986"/>
  <outline>
    <contour>
      <point x="503" y="759" type="line"/>
      <point x="619" y="706"/>
      <point x="663" y="632"/>
      <point x="663" y="545" type="curve" smooth="yes"/>
      <point x="663" y="452"/>
      <point x="611" y="395"/>
      <point x="511" y="394" type="curve" smooth="yes"/>
      <point x="267" y="389"/>
      <point x="234" y="731"/>
      <point x="210" y="905" type="curve"/>
      <point x="45" y="882" type="line"/>
      <point x="64" y="490"/>
      <point x="183" y="197"/>
      <point x="526" y="197" type="curve" smooth="yes"/>
      <point x="729" y="197"/>
      <point x="868" y="312"/>
      <point x="868" y="495" type="curve" smooth="yes"/>
      <point x="868" y="635"/>
      <point x="802" y="706"/>
      <point x="659" y="780" type="curve"/>
      <point x="571" y="907" type="line"/>
    </contour>
    <contour>
      <point x="871" y="713" type="line" smooth="yes"/>
      <point x="965" y="709"/>
      <point x="991" y="671"/>
      <point x="1032" y="612" type="curve" smooth="yes"/>
      <point x="1187" y="387" type="line"/>
      <point x="1226" y="670" type="line"/>
      <point x="1186" y="725" type="line" smooth="yes"/>
      <point x="1073" y="878"/>
      <point x="1024" y="907"/>
      <point x="899" y="907" type="curve"/>
      <point x="571" y="907" type="line"/>
      <point x="647" y="713" type="line"/>
    </contour>
    <contour>
      <point x="-19" y="1287" type="line"/>
      <point x="-19" y="1104" type="line"/>
      <point x="952" y="1104" type="line"/>
      <point x="952" y="1287" type="line"/>
    </contour>
    <contour>
      <point x="1014" y="775" type="line"/>
      <point x="1032" y="611" type="line"/>
      <point x="1187" y="387" type="line"/>
      <point x="1315" y="387"/>
      <point x="1338" y="468"/>
      <point x="1338" y="568" type="curve" smooth="yes"/>
      <point x="1338" y="775" type="line"/>
    </contour>
    <contour>
      <point x="1099" y="775" type="line"/>
      <point x="1099" y="589" type="line"/>
      <point x="1717" y="589" type="line"/>
      <point x="1717" y="775" type="line"/>
    </contour>
    <contour>
      <point x="1600" y="1199" type="line"/>
      <point x="1600" y="0" type="line"/>
      <point x="1811" y="0" type="line"/>
      <point x="1811" y="1199" type="line"/>
    </contour>
    <contour>
      <point x="907" y="1287" type="line"/>
      <point x="907" y="1104" type="line"/>
      <point x="2005" y="1104" type="line"/>
      <point x="2005" y="1287" type="line"/>
    </contour>
    <contour>
      <point x="1175" y="82" type="move" name="nukta"/>
    </contour>
    <contour>
      <point x="1706" y="1167" type="move" name="top"/>
    </contour>
    <contour>
      <point x="1432" y="1167" type="move" name="topcandra"/>
    </contour>
    <contour>
      <point x="1706" y="27" type="move" name="bottom"/>
    </contour>
  </outline>
</glyph>
<glyph name="j_ny_ya-deva" format="1">
  <advance width="3098"/>
  <outline>
    <contour>
      <point x="-19" y="1287" type="line"/>
      <point x="-19" y="1104" type="line"/>
      <point x="952" y="1104" type="line"/>
      <point x="952" y="1287" type="line"/>
    </contour>
    <contour>
      <point x="907" y="1287" type="line"/>
      <point x="907" y="1104" type="line"/>
      <point x="1936" y="1104" type="line"/>
      <point x="1936" y="1287" type="line"/>
    </contour>
    <contour>
      <point x="503" y="761" type="line"/>
      <point x="619" y="708"/>
      <point x="663" y="633"/>
      <point x="663" y="545" type="curve" smooth="yes"/>
      <point x="663" y="452"/>
      <point x="611" y="395"/>
      <point x="511" y="394" type="curve" smooth="yes"/>
      <point x="267" y="389"/>
      <point x="234" y="731"/>
      <point x="210" y="905" type="curve"/>
      <point x="45" y="882" type="line"/>
      <point x="64" y="490"/>
      <point x="183" y="197"/>
      <point x="526" y="197" type="curve" smooth="yes"/>
      <point x="729" y="197"/>
      <point x="868" y="312"/>
      <point x="868" y="495" type="curve" smooth="yes"/>
      <point x="868" y="637"/>
      <point x="802" y="708"/>
      <point x="659" y="782" type="curve"/>
      <point x="571" y="908" type="line"/>
    </contour>
    <contour>
      <point x="571" y="908" type="line"/>
      <point x="638" y="730" type="line"/>
      <point x="1126" y="730" type="line"/>
      <point x="1125" y="908" type="line"/>
    </contour>
    <contour>
      <point x="1445" y="936"/>
      <point x="1392" y="927"/>
      <point x="1352" y="907" type="curve"/>
      <point x="1384" y="734" type="line"/>
      <point x="1416" y="742"/>
      <point x="1450" y="747"/>
      <point x="1501" y="747" type="curve" smooth="yes"/>
      <point x="1595" y="747"/>
      <point x="1663" y="709"/>
      <point x="1666" y="580" type="curve" smooth="yes"/>
      <point x="1668" y="438"/>
      <point x="1580" y="388"/>
      <point x="1479" y="388" type="curve" smooth="yes"/>
      <point x="1301" y="388"/>
      <point x="1187" y="519"/>
      <point x="1125" y="908" type="curve"/>
      <point x="962" y="854" type="line"/>
      <point x="1030" y="315"/>
      <point x="1276" y="200"/>
      <point x="1485" y="200" type="curve" smooth="yes"/>
      <point x="1711" y="200"/>
      <point x="1857" y="327"/>
      <point x="1857" y="569" type="curve" smooth="yes"/>
      <point x="1857" y="824"/>
      <point x="1693" y="936"/>
      <point x="1504" y="936" type="curve" smooth="yes"/>
    </contour>
    <contour>
      <point x="2712" y="1230" type="line"/>
      <point x="2712" y="0" type="line"/>
      <point x="2922" y="0" type="line"/>
      <point x="2922" y="1230" type="line"/>
    </contour>
    <contour>
      <point x="1915" y="1287" type="line"/>
      <point x="1915" y="1104" type="line"/>
      <point x="3117" y="1104" type="line"/>
      <point x="3117" y="1287" type="line"/>
    </contour>
    <contour>
      <point x="2304" y="429"/>
      <point x="2220" y="479"/>
      <point x="2163" y="618" type="curve"/>
      <point x="2150" y="572" type="line"/>
      <point x="2290" y="627"/>
      <point x="2424" y="717"/>
      <point x="2424" y="874" type="curve" smooth="yes"/>
      <point x="2424" y="956"/>
      <point x="2391" y="1025"/>
      <point x="2312" y="1129" type="curve"/>
      <point x="2103" y="1128" type="line"/>
      <point x="2178" y="1045"/>
      <point x="2220" y="954"/>
      <point x="2220" y="894" type="curve" smooth="yes"/>
      <point x="2220" y="733"/>
      <point x="1968" y="680"/>
      <point x="1765" y="681" type="curve"/>
      <point x="1809" y="521" type="line"/>
      <point x="1865" y="505"/>
      <point x="1961" y="514"/>
      <point x="2042" y="535" type="curve"/>
      <point x="1997" y="561" type="line"/>
      <point x="2075" y="340"/>
      <point x="2247" y="238"/>
      <point x="2434" y="238" type="curve" smooth="yes"/>
      <point x="2555" y="238"/>
      <point x="2696" y="288"/>
      <point x="2773" y="410" type="curve"/>
      <point x="2782" y="671" type="line"/>
      <point x="2688" y="491"/>
      <point x="2556" y="429"/>
      <point x="2424" y="429" type="curve" smooth="yes"/>
    </contour>
    <contour>
      <point x="2129" y="84" type="move" name="nukta"/>
    </contour>
    <contour>
      <point x="2817" y="1167" type="move" name="top"/>
    </contour>
    <contour>
      <point x="2518" y="1167" type="move" name="topcandra"/>
    </contour>
    <contour>
      <point x="2817" y="27" type="move" name="bottom"/>
    </contour>
  </outline>
</glyph>
<glyph name="j_ra-deva" format="1">
  <advance width="1679"/>
  <outline>
    <contour>
      <point x="1281" y="1176" type="line"/>
      <point x="1281" y="804" type="line" smooth="yes"/>
      <point x="1281" y="732"/>
      <point x="1263" y="695"/>
      <point x="1195" y="695" type="curve" smooth="yes"/>
      <point x="1148" y="695"/>
      <point x="1096" y="731"/>
      <point x="1017" y="855" type="curve"/>
      <point x="890" y="743" type="line"/>
      <point x="1407" y="-36" type="line"/>
      <point x="1577" y="86" type="line"/>
      <point x="1223" y="557" type="line"/>
      <point x="1218" y="549" type="line"/>
      <point x="1234" y="539"/>
      <point x="1261" y="535"/>
      <point x="1286" y="535" type="curve" smooth="yes"/>
      <point x="1399" y="535"/>
      <point x="1491" y="620"/>
      <point x="1491" y="798" type="curve" smooth="yes"/>
      <point x="1491" y="1176" type="line"/>
    </contour>
    <contour>
      <point x="45" y="882" type="line"/>
      <point x="64" y="490"/>
      <point x="183" y="171"/>
      <point x="526" y="171" type="curve" smooth="yes"/>
      <point x="729" y="171"/>
      <point x="868" y="287"/>
      <point x="868" y="447" type="curve" smooth="yes"/>
      <point x="868" y="586"/>
      <point x="802" y="657"/>
      <point x="659" y="729" type="curve"/>
      <point x="571" y="855" type="line"/>
      <point x="503" y="708" type="line"/>
      <point x="619" y="657"/>
      <point x="663" y="582"/>
      <point x="663" y="515" type="curve" smooth="yes"/>
      <point x="663" y="417"/>
      <point x="611" y="370"/>
      <point x="511" y="368" type="curve" smooth="yes"/>
      <point x="267" y="364"/>
      <point x="234" y="731"/>
      <point x="210" y="905" type="curve"/>
    </contour>
    <contour>
      <point x="571" y="855" type="line"/>
      <point x="647" y="678" type="line"/>
      <point x="1007" y="678" type="line"/>
      <point x="1017" y="855" type="line"/>
    </contour>
    <contour>
      <point x="-19" y="1287" type="line"/>
      <point x="-19" y="1104" type="line"/>
      <point x="956" y="1104" type="line"/>
      <point x="956" y="1287" type="line"/>
    </contour>
    <contour>
      <point x="911" y="1287" type="line"/>
      <point x="911" y="1104" type="line"/>
      <point x="1698" y="1104" type="line"/>
      <point x="1698" y="1287" type="line"/>
    </contour>
    <contour>
      <point x="1067" y="97" type="move" name="nukta"/>
    </contour>
    <contour>
      <point x="1386" y="1167" type="move" name="top"/>
    </contour>
    <contour>
      <point x="1386" y="1167" type="move" name="topcandra"/>
    </contour>
    <contour>
      <point x="1439" y="27" type="move" name="bottom"/>
    </contour>
  </outline>
</glyph>
<glyph name="j_tta-deva" format="1">
  <advance width="1941"/>
  <outline>
    <contour>
      <point x="1592" y="1154" type="line"/>
      <point x="1592" y="852" type="line"/>
      <point x="1615" y="892" type="line"/>
      <point x="1554" y="905"/>
      <point x="1430" y="907"/>
      <point x="1353" y="907" type="curve" smooth="yes"/>
      <point x="571" y="907" type="line"/>
      <point x="647" y="738" type="line"/>
      <point x="1128" y="738" type="line"/>
      <point x="1104" y="748" type="line"/>
      <point x="1032" y="676"/>
      <point x="990" y="591"/>
      <point x="990" y="469" type="curve" smooth="yes"/>
      <point x="990" y="168"/>
      <point x="1217" y="9"/>
      <point x="1517" y="9" type="curve" smooth="yes"/>
      <point x="1663" y="9"/>
      <point x="1805" y="41"/>
      <point x="1897" y="95" type="curve"/>
      <point x="1846" y="270" type="line"/>
      <point x="1740" y="229"/>
      <point x="1624" y="196"/>
      <point x="1496" y="196" type="curve" smooth="yes"/>
      <point x="1302" y="196"/>
      <point x="1209" y="271"/>
      <point x="1209" y="469" type="curve" smooth="yes"/>
      <point x="1210" y="647"/>
      <point x="1301" y="721"/>
      <point x="1525" y="721" type="curve" smooth="yes"/>
      <point x="1594" y="722"/>
      <point x="1726" y="717"/>
      <point x="1802" y="713" type="curve"/>
      <point x="1802" y="1154" type="line"/>
    </contour>
    <contour>
      <point x="503" y="761" type="line"/>
      <point x="619" y="708"/>
      <point x="663" y="634"/>
      <point x="663" y="532" type="curve" smooth="yes"/>
      <point x="663" y="439"/>
      <point x="611" y="383"/>
      <point x="511" y="381" type="curve" smooth="yes"/>
      <point x="267" y="376"/>
      <point x="234" y="719"/>
      <point x="210" y="892" type="curve"/>
      <point x="45" y="870" type="line"/>
      <point x="64" y="477"/>
      <point x="183" y="184"/>
      <point x="526" y="184" type="curve" smooth="yes"/>
      <point x="729" y="184"/>
      <point x="868" y="300"/>
      <point x="868" y="482" type="curve" smooth="yes"/>
      <point x="868" y="637"/>
      <point x="802" y="708"/>
      <point x="659" y="770" type="curve"/>
      <point x="571" y="908" type="line"/>
    </contour>
    <contour>
      <point x="-19" y="1287" type="line"/>
      <point x="-19" y="1104" type="line"/>
      <point x="952" y="1104" type="line"/>
      <point x="952" y="1287" type="line"/>
    </contour>
    <contour>
      <point x="907" y="1287" type="line"/>
      <point x="907" y="1104" type="line"/>
      <point x="1960" y="1104" type="line"/>
      <point x="1960" y="1287" type="line"/>
    </contour>
    <contour>
      <point x="919" y="82" type="move" name="nukta"/>
    </contour>
    <contour>
      <point x="1697" y="1167" type="move" name="top"/>
    </contour>
    <contour>
      <point x="1475" y="1167" type="move" name="topcandra"/>
    </contour>
    <contour>
      <point x="1536" y="39" type="move" name="bottom"/>
    </contour>
  </outline>
</glyph>
<glyph name="j_ya-deva" format="1">
  <advance width="2103"/>
  <outline>
    <contour>
      <point x="1106" y="1128" type="line"/>
      <point x="1181" y="1045"/>
      <point x="1232" y="954"/>
      <point x="1232" y="894" type="curve" smooth="yes"/>
      <point x="1232" y="840"/>
      <point x="1246" y="745"/>
      <point x="1002" y="600" type="curve"/>
      <point x="1040" y="376"/>
      <point x="1194" y="238"/>
      <point x="1418" y="238" type="curve" smooth="yes"/>
      <point x="1560" y="238"/>
      <point x="1701" y="288"/>
      <point x="1778" y="410" type="curve"/>
      <point x="1787" y="671" type="line"/>
      <point x="1693" y="491"/>
      <point x="1561" y="429"/>
      <point x="1408" y="429" type="curve" smooth="yes"/>
      <point x="1300" y="429"/>
      <point x="1216" y="479"/>
      <point x="1165" y="602" type="curve"/>
      <point x="1102" y="507" type="line"/>
      <point x="1247" y="551"/>
      <point x="1417" y="696"/>
      <point x="1417" y="874" type="curve" smooth="yes"/>
      <point x="1417" y="956"/>
      <point x="1384" y="1025"/>
      <point x="1305" y="1129" type="curve"/>
    </contour>
    <contour>
      <point x="504" y="761" type="line"/>
      <point x="621" y="708"/>
      <point x="664" y="633"/>
      <point x="664" y="545" type="curve" smooth="yes"/>
      <point x="664" y="452"/>
      <point x="613" y="395"/>
      <point x="513" y="394" type="curve" smooth="yes"/>
      <point x="268" y="389"/>
      <point x="235" y="731"/>
      <point x="211" y="908" type="curve"/>
      <point x="46" y="885" type="line"/>
      <point x="65" y="490"/>
      <point x="185" y="197"/>
      <point x="527" y="197" type="curve" smooth="yes"/>
      <point x="730" y="197"/>
      <point x="869" y="312"/>
      <point x="869" y="495" type="curve" smooth="yes"/>
      <point x="869" y="637"/>
      <point x="803" y="708"/>
      <point x="660" y="782" type="curve"/>
      <point x="572" y="908" type="line"/>
    </contour>
    <contour>
      <point x="573" y="908" type="line"/>
      <point x="649" y="721" type="line"/>
      <point x="1252" y="721" type="line"/>
      <point x="1252" y="908" type="line"/>
    </contour>
    <contour>
      <point x="-10" y="1287" type="line"/>
      <point x="-10" y="1104" type="line"/>
      <point x="2122" y="1104" type="line"/>
      <point x="2122" y="1287" type="line"/>
    </contour>
    <contour>
      <point x="1717" y="1230" type="line"/>
      <point x="1717" y="0" type="line"/>
      <point x="1927" y="0" type="line"/>
      <point x="1927" y="1230" type="line"/>
    </contour>
  </outline>
</glyph>
<glyph name="k_ca-deva" format="1">
  <advance width="2399"/>
  <outline>
    <contour>
      <point x="557" y="196"/>
      <point x="711" y="264"/>
      <point x="788" y="391" type="curve"/>
      <point x="729" y="535" type="line"/>
      <point x="656" y="440"/>
      <point x="552" y="375"/>
      <point x="427" y="375" type="curve" smooth="yes"/>
      <point x="320" y="375"/>
      <point x="266" y="415"/>
      <point x="266" y="553" type="curve" smooth="yes"/>
      <point x="266" y="704"/>
      <point x="347" y="747"/>
      <point x="466" y="751" type="curve" smooth="yes"/>
      <point x="549" y="753"/>
      <point x="663" y="737"/>
      <point x="788" y="675" type="curve"/>
      <point x="788" y="789" type="line"/>
      <point x="720" y="877"/>
      <point x="595" y="941"/>
      <point x="427" y="941" type="curve" smooth="yes"/>
      <point x="198" y="941"/>
      <point x="55" y="820"/>
      <point x="55" y="564" type="curve" smooth="yes"/>
      <point x="55" y="399"/>
      <point x="134" y="196"/>
      <point x="408" y="196" type="curve" smooth="yes"/>
    </contour>
    <contour>
      <point x="900" y="0" type="line"/>
      <point x="900" y="1185" type="line"/>
      <point x="690" y="1185" type="line"/>
      <point x="690" y="0" type="line"/>
    </contour>
    <contour>
      <point x="921" y="591"/>
      <point x="993" y="671"/>
      <point x="1078" y="703" type="curve" smooth="yes"/>
      <point x="1111" y="716"/>
      <point x="1144" y="723"/>
      <point x="1182" y="726" type="curve"/>
      <point x="1846" y="726" type="line"/>
      <point x="1846" y="903" type="line"/>
      <point x="1191" y="903" type="line"/>
      <point x="1178" y="906"/>
      <point x="1163" y="908"/>
      <point x="1149" y="909" type="curve" smooth="yes"/>
      <point x="1020" y="917"/>
      <point x="933" y="846"/>
      <point x="830" y="722" type="curve"/>
      <point x="830" y="419" type="line"/>
    </contour>
    <contour>
      <point x="1905" y="199"/>
      <point x="2049" y="284"/>
      <point x="2142" y="391" type="curve"/>
      <point x="2112" y="599" type="line"/>
      <point x="2028" y="479"/>
      <point x="1887" y="379"/>
      <point x="1726" y="380" type="curve" smooth="yes"/>
      <point x="1592" y="380"/>
      <point x="1548" y="435"/>
      <point x="1548" y="533" type="curve" smooth="yes"/>
      <point x="1548" y="637"/>
      <point x="1659" y="740"/>
      <point x="1805" y="726" type="curve"/>
      <point x="1776" y="799" type="line"/>
      <point x="1633" y="789" type="line"/>
      <point x="1424" y="761"/>
      <point x="1334" y="646"/>
      <point x="1334" y="507" type="curve" smooth="yes"/>
      <point x="1334" y="328"/>
      <point x="1460" y="200"/>
      <point x="1711" y="200" type="curve" smooth="yes"/>
    </contour>
    <contour>
      <point x="2418" y="1104" type="line"/>
      <point x="2418" y="1287" type="line"/>
      <point x="-19" y="1287" type="line"/>
      <point x="-19" y="1104" type="line"/>
    </contour>
    <contour>
      <point x="2224" y="0" type="line"/>
      <point x="2224" y="1176" type="line"/>
      <point x="2014" y="1176" type="line"/>
      <point x="2014" y="0" type="line"/>
    </contour>
    <contour>
      <point x="1349" y="82" type="move" name="nukta"/>
    </contour>
    <contour>
      <point x="2119" y="1167" type="move" name="top"/>
    </contour>
    <contour>
      <point x="1791" y="1167" type="move" name="topcandra"/>
    </contour>
    <contour>
      <point x="2119" y="27" type="move" name="bottom"/>
    </contour>
  </outline>
</glyph>
<glyph name="k_la-deva" format="1">
  <advance width="1469"/>
  <outline>
    <contour>
      <point x="189" y="966"/>
      <point x="56" y="851"/>
      <point x="56" y="626" type="curve" smooth="yes"/>
      <point x="56" y="468"/>
      <point x="130" y="292"/>
      <point x="376" y="292" type="curve" smooth="yes"/>
      <point x="525" y="292"/>
      <point x="660" y="356"/>
      <point x="733" y="474" type="curve"/>
      <point x="689" y="623" type="line"/>
      <point x="614" y="525"/>
      <point x="516" y="470"/>
      <point x="407" y="470" type="curve" smooth="yes"/>
      <point x="319" y="470"/>
      <point x="267" y="508"/>
      <point x="267" y="622" type="curve" smooth="yes"/>
      <point x="267" y="734"/>
      <point x="326" y="780"/>
      <point x="437" y="784" type="curve" smooth="yes"/>
      <point x="516" y="787"/>
      <point x="630" y="769"/>
      <point x="735" y="745" type="curve"/>
      <point x="731" y="837" type="line"/>
      <point x="667" y="923"/>
      <point x="548" y="966"/>
      <point x="403" y="966" type="curve" smooth="yes"/>
    </contour>
    <contour>
      <point x="986" y="925"/>
      <point x="885" y="869"/>
      <point x="782" y="746" type="curve"/>
      <point x="782" y="448" type="line"/>
      <point x="944" y="676"/>
      <point x="1046" y="742"/>
      <point x="1114" y="742" type="curve" smooth="yes"/>
      <point x="1182" y="742"/>
      <point x="1225" y="698"/>
      <point x="1225" y="620" type="curve" smooth="yes"/>
      <point x="1225" y="532"/>
      <point x="1169" y="437"/>
      <point x="1094" y="347" type="curve"/>
      <point x="1246" y="232" type="line"/>
      <point x="1348" y="323"/>
      <point x="1414" y="467"/>
      <point x="1414" y="605" type="curve" smooth="yes"/>
      <point x="1414" y="787"/>
      <point x="1306" y="925"/>
      <point x="1124" y="925" type="curve" smooth="yes"/>
    </contour>
    <contour>
      <point x="649" y="1192" type="line"/>
      <point x="649" y="15" type="line"/>
      <point x="859" y="19" type="line"/>
      <point x="859" y="1192" type="line"/>
    </contour>
    <contour>
      <point x="-61" y="1287" type="line"/>
      <point x="-61" y="1104" type="line"/>
      <point x="1507" y="1104" type="line"/>
      <point x="1507" y="1287" type="line"/>
    </contour>
    <component base="add" xOffset="197"/>
    <contour>
      <point x="754" y="1167" type="move" name="top"/>
    </contour>
    <contour>
      <point x="980" y="-479" type="move" name="bottom"/>
    </contour>
    <contour>
      <point x="754" y="1167" type="move" name="topcandra"/>
    </contour>
  </outline>
</glyph>
<glyph name="k_t_ta-deva" format="1">
  <advance width="2842"/>
  <outline>
    <contour>
      <point x="1345" y="869"/>
      <point x="1199" y="764"/>
      <point x="1199" y="577" type="curve" smooth="yes"/>
      <point x="1199" y="365"/>
      <point x="1317" y="131"/>
      <point x="1448" y="-38" type="curve"/>
      <point x="1612" y="71" type="line"/>
      <point x="1459" y="302"/>
      <point x="1413" y="439"/>
      <point x="1413" y="545" type="curve" smooth="yes"/>
      <point x="1413" y="641"/>
      <point x="1460" y="672"/>
      <point x="1611" y="672" type="curve" smooth="yes"/>
      <point x="1757" y="672"/>
      <point x="1830" y="632"/>
      <point x="1978" y="527" type="curve"/>
      <point x="1953" y="760" type="line"/>
      <point x="1857" y="836"/>
      <point x="1725" y="869"/>
      <point x="1575" y="869" type="curve" smooth="yes"/>
    </contour>
    <contour>
      <point x="1119" y="1287" type="line"/>
      <point x="1119" y="1104" type="line"/>
      <point x="1778" y="1104" type="line"/>
      <point x="1778" y="1287" type="line"/>
    </contour>
    <component base="k-deva"/>
    <component base="ta-deva" xOffset="1734"/>
  </outline>
</glyph>
<glyph name="k_t_ya-deva" format="1">
  <advance width="2897"/>
  <outline>
    <contour>
      <point x="1345" y="858"/>
      <point x="1199" y="753"/>
      <point x="1199" y="566" type="curve" smooth="yes"/>
      <point x="1199" y="365"/>
      <point x="1317" y="131"/>
      <point x="1448" y="-38" type="curve"/>
      <point x="1612" y="71" type="line"/>
      <point x="1459" y="302"/>
      <point x="1413" y="439"/>
      <point x="1413" y="534" type="curve" smooth="yes"/>
      <point x="1413" y="630"/>
      <point x="1460" y="661"/>
      <point x="1611" y="661" type="curve" smooth="yes"/>
      <point x="1759" y="661"/>
      <point x="1830" y="620"/>
      <point x="1976" y="511" type="curve"/>
      <point x="1952" y="746" type="line"/>
      <point x="1857" y="823"/>
      <point x="1727" y="858"/>
      <point x="1575" y="858" type="curve" smooth="yes"/>
    </contour>
    <contour>
      <point x="1119" y="1287" type="line"/>
      <point x="1119" y="1104" type="line"/>
      <point x="1778" y="1104" type="line"/>
      <point x="1778" y="1287" type="line"/>
    </contour>
    <component base="k-deva"/>
    <component base="ya-deva" xOffset="1734"/>
  </outline>
</glyph>
<glyph name="kh_la-deva.loclMAR" format="1">
  <advance width="1622"/>
  <outline>
    <contour>
      <point x="-19" y="1287" type="line"/>
      <point x="-19" y="1104" type="line"/>
      <point x="1641" y="1104" type="line"/>
      <point x="1641" y="1287" type="line"/>
    </contour>
    <contour>
      <point x="353" y="1166" type="line"/>
      <point x="353" y="832" type="line" smooth="yes"/>
      <point x="353" y="757"/>
      <point x="331" y="722"/>
      <point x="279" y="721" type="curve" smooth="yes"/>
      <point x="249" y="721"/>
      <point x="219" y="733"/>
      <point x="180" y="766" type="curve"/>
      <point x="52" y="676" type="line"/>
      <point x="235" y="226"/>
      <point x="486" y="69"/>
      <point x="759" y="69" type="curve" smooth="yes"/>
      <point x="841" y="69"/>
      <point x="927" y="82"/>
      <point x="1013" y="106" type="curve"/>
      <point x="986" y="274" type="line"/>
      <point x="921" y="258"/>
      <point x="850" y="247"/>
      <point x="776" y="247" type="curve" smooth="yes"/>
      <point x="585" y="247"/>
      <point x="399" y="341"/>
      <point x="292" y="607" type="curve"/>
      <point x="273" y="572" type="line"/>
      <point x="289" y="565"/>
      <point x="316" y="552"/>
      <point x="361" y="552" type="curve" smooth="yes"/>
      <point x="443" y="552"/>
      <point x="563" y="596"/>
      <point x="563" y="817" type="curve" smooth="yes"/>
      <point x="563" y="1166" type="line"/>
    </contour>
    <contour>
      <point x="799" y="968"/>
      <point x="665" y="857"/>
      <point x="665" y="658" type="curve" smooth="yes"/>
      <point x="665" y="483"/>
      <point x="756" y="335"/>
      <point x="974" y="335" type="curve" smooth="yes"/>
      <point x="1105" y="335"/>
      <point x="1247" y="381"/>
      <point x="1319" y="498" type="curve"/>
      <point x="1277" y="641" type="line"/>
      <point x="1202" y="543"/>
      <point x="1106" y="506"/>
      <point x="1006" y="506" type="curve" smooth="yes"/>
      <point x="920" y="506"/>
      <point x="872" y="544"/>
      <point x="872" y="646" type="curve" smooth="yes"/>
      <point x="872" y="736"/>
      <point x="918" y="793"/>
      <point x="1038" y="793" type="curve" smooth="yes"/>
      <point x="1124" y="793"/>
      <point x="1218" y="783"/>
      <point x="1323" y="748" type="curve"/>
      <point x="1318" y="860" type="line"/>
      <point x="1259" y="924"/>
      <point x="1141" y="968"/>
      <point x="993" y="968" type="curve" smooth="yes"/>
    </contour>
    <contour>
      <point x="1237" y="1176" type="line"/>
      <point x="1237" y="-108" type="line"/>
      <point x="1447" y="-108" type="line"/>
      <point x="1447" y="1176" type="line"/>
    </contour>
    <contour>
      <point x="988" y="10"/>
      <point x="882" y="-155"/>
      <point x="882" y="-352" type="curve" smooth="yes"/>
      <point x="882" y="-397"/>
      <point x="887" y="-439"/>
      <point x="902" y="-478" type="curve"/>
      <point x="1080" y="-459" type="line"/>
      <point x="1075" y="-428"/>
      <point x="1072" y="-399"/>
      <point x="1072" y="-369" type="curve" smooth="yes"/>
      <point x="1072" y="-261"/>
      <point x="1119" y="-180"/>
      <point x="1218" y="-180" type="curve" smooth="yes"/>
      <point x="1303" y="-180"/>
      <point x="1357" y="-231"/>
      <point x="1357" y="-325" type="curve" smooth="yes"/>
      <point x="1357" y="-416"/>
      <point x="1333" y="-515"/>
      <point x="1160" y="-642" type="curve"/>
      <point x="1264" y="-782" type="line"/>
      <point x="1479" y="-656"/>
      <point x="1551" y="-467"/>
      <point x="1551" y="-330" type="curve" smooth="yes"/>
      <point x="1551" y="-121"/>
      <point x="1425" y="10"/>
      <point x="1210" y="10" type="curve" smooth="yes"/>
    </contour>
    <contour>
      <point x="499" y="7"/>
      <point x="387" y="-116"/>
      <point x="387" y="-295" type="curve" smooth="yes"/>
      <point x="387" y="-537"/>
      <point x="532" y="-675"/>
      <point x="705" y="-777" type="curve"/>
      <point x="794" y="-634" type="line"/>
      <point x="644" y="-540"/>
      <point x="591" y="-451"/>
      <point x="591" y="-325" type="curve" smooth="yes"/>
      <point x="591" y="-223"/>
      <point x="658" y="-185"/>
      <point x="735" y="-185" type="curve" smooth="yes"/>
      <point x="837" y="-185"/>
      <point x="909" y="-270"/>
      <point x="984" y="-391" type="curve"/>
      <point x="1002" y="-257" type="line"/>
      <point x="931" y="-72"/>
      <point x="830" y="7"/>
      <point x="686" y="7" type="curve" smooth="yes"/>
    </contour>
    <contour>
      <point x="1342" y="1167" type="move" name="top"/>
    </contour>
    <contour>
      <point x="1210" y="-654" type="move" name="bottom"/>
    </contour>
    <contour>
      <point x="889" y="1167" type="move" name="topcandra"/>
    </contour>
  </outline>
</glyph>
<glyph name="kh_ma-deva" format="1">
  <advance width="2344"/>
  <outline>
    <contour>
      <point x="353" y="1166" type="line"/>
      <point x="353" y="800" type="line" smooth="yes"/>
      <point x="353" y="726"/>
      <point x="331" y="689"/>
      <point x="281" y="689" type="curve" smooth="yes"/>
      <point x="249" y="689"/>
      <point x="219" y="701"/>
      <point x="180" y="733" type="curve"/>
      <point x="52" y="644" type="line"/>
      <point x="278" y="110"/>
      <point x="488" y="-59"/>
      <point x="818" y="-59" type="curve" smooth="yes"/>
      <point x="893" y="-59"/>
      <point x="979" y="-47"/>
      <point x="1046" y="-23" type="curve"/>
      <point x="1010" y="151" type="line"/>
      <point x="949" y="137"/>
      <point x="879" y="124"/>
      <point x="809" y="124" type="curve" smooth="yes"/>
      <point x="597" y="124"/>
      <point x="431" y="234"/>
      <point x="292" y="575" type="curve"/>
      <point x="273" y="540" type="line"/>
      <point x="289" y="533"/>
      <point x="317" y="519"/>
      <point x="360" y="519" type="curve" smooth="yes"/>
      <point x="443" y="519"/>
      <point x="563" y="563"/>
      <point x="563" y="785" type="curve" smooth="yes"/>
      <point x="563" y="1166" type="line"/>
    </contour>
    <contour>
      <point x="806" y="977"/>
      <point x="642" y="887"/>
      <point x="642" y="612" type="curve" smooth="yes"/>
      <point x="642" y="445"/>
      <point x="721" y="267"/>
      <point x="987" y="267" type="curve" smooth="yes"/>
      <point x="1154" y="267"/>
      <point x="1283" y="362"/>
      <point x="1347" y="464" type="curve"/>
      <point x="1273" y="598" type="line"/>
      <point x="1212" y="517"/>
      <point x="1126" y="445"/>
      <point x="1018" y="445" type="curve" smooth="yes"/>
      <point x="900" y="445"/>
      <point x="852" y="490"/>
      <point x="853" y="612" type="curve" smooth="yes"/>
      <point x="853" y="755"/>
      <point x="918" y="798"/>
      <point x="1055" y="798" type="curve" smooth="yes"/>
      <point x="1108" y="798"/>
      <point x="1160" y="794"/>
      <point x="1222" y="785" type="curve"/>
      <point x="1239" y="943" type="line"/>
      <point x="1179" y="967"/>
      <point x="1092" y="977"/>
      <point x="1034" y="977" type="curve" smooth="yes"/>
    </contour>
    <contour>
      <point x="-19" y="1287" type="line"/>
      <point x="-19" y="1104" type="line"/>
      <point x="1180" y="1104" type="line"/>
      <point x="1180" y="1287" type="line"/>
    </contour>
    <component base="ma-deva" xOffset="1159"/>
    <contour>
      <point x="160" y="27" type="move" name="nukta"/>
    </contour>
    <contour>
      <point x="466" y="1167" type="move" name="top"/>
    </contour>
    <contour>
      <point x="882" y="1167" type="move" name="topcandra"/>
    </contour>
    <contour>
      <point x="762" y="0" type="move" name="bottom"/>
    </contour>
  </outline>
</glyph>
<glyph name="macron.cap" format="1">
  <advance width="0"/>
  <outline>
    <contour>
      <point x="269" y="1634" type="line" name="hr00"/>
      <point x="-269" y="1634" type="line"/>
      <point x="-269" y="1485" type="line"/>
      <point x="269" y="1485" type="line"/>
    </contour>
    <contour>
      <point x="0" y="800" type="move" name="_top"/>
    </contour>
  </outline>
</glyph>
<glyph name="nine.pnum" format="1">
  <advance width="1104"/>
  <outline>
    <contour>
      <point x="276" y="248" type="curve" name="hr00"/>
      <point x="166" y="110" type="line"/>
      <point x="254" y="24"/>
      <point x="354" y="-25"/>
      <point x="505" y="-25" type="curve" smooth="yes"/>
      <point x="788" y="-25"/>
      <point x="974" y="203"/>
      <point x="974" y="699" type="curve" smooth="yes"/>
      <point x="974" y="1177"/>
      <point x="781" y="1367"/>
      <point x="512" y="1367" type="curve" smooth="yes"/>
      <point x="281" y="1367"/>
      <point x="103" y="1188"/>
      <point x="103" y="930" type="curve" smooth="yes"/>
      <point x="103" y="660"/>
      <point x="256" y="497"/>
      <point x="481" y="497" type="curve" smooth="yes"/>
      <point x="578" y="497"/>
      <point x="699" y="548"/>
      <point x="770" y="647" type="curve"/>
      <point x="764" y="274"/>
      <point x="663" y="155"/>
      <point x="494" y="155" type="curve" smooth="yes"/>
      <point x="414" y="155"/>
      <point x="319" y="196"/>
    </contour>
    <contour>
      <point x="764" y="806" type="curve"/>
      <point x="687" y="693"/>
      <point x="597" y="657"/>
      <point x="521" y="657" type="curve" smooth="yes"/>
      <point x="378" y="657"/>
      <point x="307" y="773"/>
      <point x="307" y="930" type="curve" smooth="yes"/>
      <point x="307" y="1093"/>
      <point x="399" y="1199"/>
      <point x="516" y="1199" type="curve" smooth="yes"/>
      <point x="660" y="1199"/>
      <point x="759" y="1082"/>
    </contour>
  </outline>
</glyph>
<glyph name="oMatra_reph-deva" format="1">
  <advance width="561"/>
  <outline>
    <component base="aaMatra-deva"/>
    <component base="eMatra_reph-deva" xOffset="29"/>
    <contour>
      <point x="439" y="1603" type="move" name="topcandra"/>
    </contour>
  </outline>
</glyph>
<glyph name="parenleft.numr" format="1">
  <advance width="509"/>
  <outline>
    <contour>
      <point x="131" y="941" type="curve" name="hr00" smooth="yes"/>
      <point x="131" y="705"/>
      <point x="197" y="544"/>
      <point x="314" y="371" type="curve"/>
      <point x="433" y="425" type="line"/>
      <point x="333" y="589"/>
      <point x="290" y="759"/>
      <point x="290" y="941" type="curve" smooth="yes"/>
      <point x="290" y="1124"/>
      <point x="333" y="1293"/>
      <point x="433" y="1455" type="curve"/>
      <point x="314" y="1508" type="line"/>
      <point x="197" y="1337"/>
      <point x="131" y="1177"/>
    </contour>
  </outline>
</glyph>
<glyph name="period.dnom" format="1">
  <advance width="386"/>
  <outline>
    <contour>
      <point x="194" y="205" type="curve" name="hr01" smooth="yes"/>
      <point x="132" y="205"/>
      <point x="86" y="158"/>
      <point x="86" y="93" type="curve" smooth="yes"/>
      <point x="86" y="29"/>
      <point x="132" y="-16"/>
      <point x="194" y="-16" type="curve" smooth="yes"/>
      <point x="255" y="-16"/>
      <point x="300" y="29"/>
      <point x="300" y="93" type="curve" smooth="yes"/>
      <point x="300" y="158"/>
      <point x="255" y="205"/>
    </contour>
  </outline>
</glyph>
<glyph name="period.subs" format="1">
  <advance width="386"/>
  <outline>
    <contour>
      <point x="194" y="-256" type="curve" name="hr00" smooth="yes"/>
      <point x="132" y="-256"/>
      <point x="86" y="-304"/>
      <point x="86" y="-368" type="curve" smooth="yes"/>
      <point x="86" y="-433"/>
      <point x="132" y="-478"/>
      <point x="194" y="-478" type="curve" smooth="yes"/>
      <point x="255" y="-478"/>
      <point x="300" y="-433"/>
      <point x="300" y="-368" type="curve" smooth="yes"/>
      <point x="300" y="-304"/>
      <point x="255" y="-256"/>
    </contour>
  </outline>
</glyph>
<glyph name="pha_ra-deva" format="1">
  <advance width="1607"/>
  <outline>
    <contour>
      <point x="152" y="1161" type="line"/>
      <point x="152" y="709" type="line" smooth="yes"/>
      <point x="152" y="484"/>
      <point x="264" y="341"/>
      <point x="502" y="341" type="curve" smooth="yes"/>
      <point x="611" y="341"/>
      <point x="790" y="380"/>
      <point x="874" y="550" type="curve"/>
      <point x="828" y="713" type="line"/>
      <point x="754" y="583"/>
      <point x="645" y="506"/>
      <point x="518" y="505" type="curve" smooth="yes"/>
      <point x="399" y="504"/>
      <point x="366" y="559"/>
      <point x="366" y="695" type="curve" smooth="yes"/>
      <point x="366" y="1161" type="line"/>
    </contour>
    <contour>
      <point x="106" y="100" type="line"/>
      <point x="232" y="-51" type="line"/>
      <point x="807" y="411" type="line"/>
      <point x="680" y="515" type="line"/>
    </contour>
    <contour>
      <point x="768" y="1199" type="line"/>
      <point x="768" y="0" type="line"/>
      <point x="979" y="0" type="line"/>
      <point x="979" y="1199" type="line"/>
    </contour>
    <contour>
      <point x="1113" y="887"/>
      <point x="1011" y="831"/>
      <point x="907" y="708" type="curve"/>
      <point x="879" y="416" type="line"/>
      <point x="1046" y="631"/>
      <point x="1162" y="701"/>
      <point x="1242" y="701" type="curve" smooth="yes"/>
      <point x="1319" y="701"/>
      <point x="1363" y="656"/>
      <point x="1363" y="568" type="curve" smooth="yes"/>
      <point x="1363" y="462"/>
      <point x="1307" y="360"/>
      <point x="1223" y="241" type="curve"/>
      <point x="1376" y="125" type="line"/>
      <point x="1487" y="244"/>
      <point x="1553" y="390"/>
      <point x="1553" y="547" type="curve" smooth="yes"/>
      <point x="1553" y="749"/>
      <point x="1444" y="887"/>
      <point x="1252" y="887" type="curve" smooth="yes"/>
    </contour>
    <contour>
      <point x="-19" y="1287" type="line"/>
      <point x="-19" y="1104" type="line"/>
      <point x="1626" y="1104" type="line"/>
      <point x="1626" y="1287" type="line"/>
    </contour>
    <contour>
      <point x="585" y="28" type="move" name="nukta"/>
    </contour>
    <contour>
      <point x="869" y="1167" type="move" name="top"/>
    </contour>
    <contour>
      <point x="874" y="1167" type="move" name="topcandra"/>
    </contour>
    <contour>
      <point x="874" y="27" type="move" name="bottom"/>
    </contour>
  </outline>
</glyph>
<glyph name="rakar_uMatra-deva" format="1">
  <advance width="600"/>
  <outline>
    <component base="rakar-deva" xOffset="1" yOffset="-1"/>
    <component base="uMatra-deva" xOffset="57" yOffset="14"/>
    <contour>
      <point x="273" y="388" type="move" name="_bottom"/>
    </contour>
  </outline>
</glyph>
<glyph name="reph_anusvara-deva" format="1">
  <advance width="545"/>
  <outline>
    <contour>
      <point x="324" y="1523"/>
      <point x="295" y="1494"/>
      <point x="295" y="1427" type="curve" smooth="yes"/>
      <point x="295" y="1361"/>
      <point x="324" y="1333"/>
      <point x="391" y="1333" type="curve" smooth="yes"/>
      <point x="459" y="1333"/>
      <point x="488" y="1361"/>
      <point x="488" y="1427" type="curve" smooth="yes"/>
      <point x="488" y="1494"/>
      <point x="459" y="1523"/>
      <point x="391" y="1523" type="curve" smooth="yes"/>
    </contour>
    <component base="reph-deva" xOffset="3"/>
    <contour>
      <point x="343" y="1603" type="move" name="topcandra"/>
    </contour>
    <contour>
      <point x="237" y="1167" type="move" name="_top"/>
    </contour>
  </outline>
</glyph>
<glyph name="s_t_ra-deva" format="1">
  <advance width="2089"/>
  <outline>
    <contour>
      <point x="723" y="1287" type="line"/>
      <point x="723" y="1104" type="line"/>
      <point x="1385" y="1104" type="line"/>
      <point x="1385" y="1287" type="line"/>
    </contour>
    <contour>
      <point x="1418" y="823"/>
      <point x="1308" y="858"/>
      <point x="1196" y="858" type="curve" smooth="yes"/>
      <point x="948" y="858"/>
      <point x="802" y="753"/>
      <point x="802" y="566" type="curve" smooth="yes"/>
      <point x="802" y="365"/>
      <point x="920" y="131"/>
      <point x="1051" y="-38" type="curve"/>
      <point x="1215" y="71" type="line"/>
      <point x="1062" y="302"/>
      <point x="1016" y="439"/>
      <point x="1016" y="534" type="curve" smooth="yes"/>
      <point x="1016" y="617"/>
      <point x="1060" y="661"/>
      <point x="1196" y="661" type="curve" smooth="yes"/>
      <point x="1310" y="661"/>
      <point x="1390" y="626"/>
      <point x="1557" y="492" type="curve"/>
      <point x="1532" y="727" type="line"/>
    </contour>
    <component base="s-deva"/>
    <component base="ra-deva" xOffset="1340"/>
  </outline>
</glyph>
<glyph name="seven.numr" format="1">
  <advance width="759"/>
  <outline>
    <contour>
      <point x="102" y="1201" type="line" name="hr00"/>
      <point x="493" y="1201" type="line"/>
      <point x="338" y="983"/>
      <point x="273" y="807"/>
      <point x="257" y="542" type="curve"/>
      <point x="432" y="542" type="line"/>
      <point x="447" y="818"/>
      <point x="488" y="1008"/>
      <point x="678" y="1251" type="curve"/>
      <point x="678" y="1340" type="line"/>
      <point x="102" y="1340" type="line"/>
    </contour>
  </outline>
</glyph>
<glyph name="seven.tnum" format="1">
  <advance width="1042"/>
  <outline>
    <contour>
      <point x="90" y="993" type="line" name="hr00"/>
      <point x="715" y="993" type="line"/>
      <point x="462" y="638"/>
      <point x="365" y="319"/>
      <point x="348" y="-155" type="curve"/>
      <point x="572" y="-155" type="line"/>
      <point x="588" y="359"/>
      <point x="650" y="658"/>
      <point x="956" y="1044" type="curve"/>
      <point x="956" y="1179" type="line"/>
      <point x="90" y="1179" type="line"/>
    </contour>
  </outline>
</glyph>
<glyph name="sh_la-deva" format="1">
  <advance width="2103"/>
  <outline>
    <contour>
      <point x="293" y="1319"/>
      <point x="155" y="1218"/>
      <point x="155" y="1035" type="curve" smooth="yes"/>
      <point x="155" y="935"/>
      <point x="203" y="836"/>
      <point x="361" y="716" type="curve"/>
      <point x="517" y="814" type="line"/>
      <point x="389" y="893"/>
      <point x="354" y="956"/>
      <point x="354" y="1021" type="curve" smooth="yes"/>
      <point x="354" y="1099"/>
      <point x="394" y="1145"/>
      <point x="489" y="1145" type="curve" smooth="yes"/>
      <point x="579" y="1145"/>
      <point x="626" y="1100"/>
      <point x="626" y="1025" type="curve" smooth="yes"/>
      <point x="626" y="940"/>
      <point x="574" y="868"/>
      <point x="452" y="798" type="curve"/>
      <point x="312" y="717"/>
      <point x="185" y="645"/>
      <point x="57" y="578" type="curve"/>
      <point x="145" y="419" type="line" smooth="yes"/>
      <point x="290" y="495"/>
      <point x="419" y="568"/>
      <point x="551" y="652" type="curve"/>
      <point x="720" y="759"/>
      <point x="829" y="859"/>
      <point x="829" y="1035" type="curve" smooth="yes"/>
      <point x="829" y="1228"/>
      <point x="692" y="1319"/>
      <point x="490" y="1319" type="curve" smooth="yes"/>
    </contour>
    <contour>
      <point x="854" y="716"/>
      <point x="741" y="591"/>
      <point x="741" y="373" type="curve" smooth="yes"/>
      <point x="741" y="110"/>
      <point x="884" y="-52"/>
      <point x="1027" y="-210" type="curve"/>
      <point x="1174" y="-83" type="line"/>
      <point x="1016" y="107"/>
      <point x="947" y="197"/>
      <point x="947" y="342" type="curve" smooth="yes"/>
      <point x="947" y="479"/>
      <point x="1016" y="519"/>
      <point x="1095" y="519" type="curve" smooth="yes"/>
      <point x="1199" y="519"/>
      <point x="1270" y="432"/>
      <point x="1347" y="310" type="curve"/>
      <point x="1366" y="447" type="line"/>
      <point x="1294" y="636"/>
      <point x="1191" y="716"/>
      <point x="1045" y="716" type="curve" smooth="yes"/>
    </contour>
    <contour>
      <point x="395" y="698" type="line"/>
      <point x="596" y="560"/>
      <point x="789" y="557"/>
      <point x="909" y="556" type="curve" smooth="yes"/>
      <point x="940" y="553"/>
      <point x="974" y="552"/>
      <point x="1009" y="553" type="curve"/>
      <point x="1041" y="715" type="line"/>
      <point x="1000" y="713"/>
      <point x="959" y="711"/>
      <point x="911" y="713" type="curve" smooth="yes"/>
      <point x="849" y="714"/>
      <point x="680" y="721"/>
      <point x="554" y="793" type="curve"/>
    </contour>
    <contour>
      <point x="1342" y="714"/>
      <point x="1233" y="550"/>
      <point x="1233" y="349" type="curve" smooth="yes"/>
      <point x="1233" y="304"/>
      <point x="1238" y="260"/>
      <point x="1253" y="221" type="curve"/>
      <point x="1434" y="240" type="line"/>
      <point x="1429" y="272"/>
      <point x="1426" y="302"/>
      <point x="1426" y="332" type="curve" smooth="yes"/>
      <point x="1426" y="442"/>
      <point x="1475" y="525"/>
      <point x="1574" y="525" type="curve" smooth="yes"/>
      <point x="1660" y="525"/>
      <point x="1721" y="476"/>
      <point x="1748" y="380" type="curve"/>
      <point x="1764" y="505" type="line"/>
      <point x="1747" y="644"/>
      <point x="1650" y="714"/>
      <point x="1536" y="714" type="curve" smooth="yes"/>
    </contour>
    <contour>
      <point x="1717" y="1171" type="line"/>
      <point x="1716" y="-177" type="line"/>
      <point x="1926" y="-177" type="line"/>
      <point x="1927" y="1171" type="line"/>
    </contour>
    <contour>
      <point x="905" y="1287" type="line"/>
      <point x="905" y="1104" type="line"/>
      <point x="2173" y="1104" type="line"/>
      <point x="2173" y="1287" type="line"/>
    </contour>
    <contour>
      <point x="1822" y="1167" type="move" name="top"/>
    </contour>
    <contour>
      <point x="1820" y="-148" type="move" name="bottom"/>
    </contour>
    <contour>
      <point x="1251" y="1167" type="move" name="topcandra"/>
    </contour>
  </outline>
</glyph>
<glyph name="ss_tt_va-deva" format="1">
  <advance width="1083"/>
  <outline>
    <contour>
      <point x="691" y="-119"/>
      <point x="837" y="-64"/>
      <point x="941" y="22" type="curve"/>
      <point x="857" y="173" type="line"/>
      <point x="784" y="114"/>
      <point x="676" y="55"/>
      <point x="521" y="55" type="curve" smooth="yes"/>
      <point x="327" y="55"/>
      <point x="269" y="135"/>
      <point x="269" y="215" type="curve" smooth="yes"/>
      <point x="269" y="342"/>
      <point x="405" y="367"/>
      <point x="501" y="383" type="curve" smooth="yes"/>
      <point x="755" y="427"/>
      <point x="875" y="518"/>
      <point x="875" y="822" type="curve" smooth="yes"/>
      <point x="875" y="1143" type="line"/>
      <point x="684" y="1143" type="line"/>
      <point x="684" y="815" type="line" smooth="yes"/>
      <point x="684" y="663"/>
      <point x="615" y="570"/>
      <point x="487" y="570" type="curve" smooth="yes"/>
      <point x="367" y="570"/>
      <point x="308" y="651"/>
      <point x="308" y="780" type="curve" smooth="yes"/>
      <point x="308" y="1143" type="line"/>
      <point x="118" y="1143" type="line"/>
      <point x="118" y="783" type="line" smooth="yes"/>
      <point x="118" y="634"/>
      <point x="162" y="528"/>
      <point x="246" y="468" type="curve"/>
      <point x="268" y="500" type="line"/>
      <point x="125" y="446"/>
      <point x="73" y="343"/>
      <point x="73" y="227" type="curve" smooth="yes"/>
      <point x="73" y="17"/>
      <point x="244" y="-119"/>
      <point x="517" y="-119" type="curve" smooth="yes"/>
    </contour>
    <contour>
      <point x="502" y="-583"/>
      <point x="657" y="-541"/>
      <point x="732" y="-391" type="curve"/>
      <point x="672" y="-286" type="line"/>
      <point x="606" y="-372"/>
      <point x="519" y="-418"/>
      <point x="419" y="-418" type="curve" smooth="yes"/>
      <point x="325" y="-418"/>
      <point x="268" y="-379"/>
      <point x="268" y="-268" type="curve" smooth="yes"/>
      <point x="268" y="-140"/>
      <point x="352" y="-116"/>
      <point x="455" y="-115" type="curve"/>
      <point x="406" y="59" type="line"/>
      <point x="205" y="59"/>
      <point x="71" y="-52"/>
      <point x="71" y="-258" type="curve" smooth="yes"/>
      <point x="71" y="-452"/>
      <point x="192" y="-583"/>
      <point x="393" y="-583" type="curve" smooth="yes"/>
    </contour>
    <contour>
      <point x="835" y="-728" type="line"/>
      <point x="835" y="53" type="line"/>
      <point x="638" y="53" type="line"/>
      <point x="638" y="-728" type="line"/>
    </contour>
    <contour>
      <point x="832" y="625" type="line"/>
      <point x="297" y="1155" type="line"/>
      <point x="193" y="1055" type="line"/>
      <point x="728" y="525" type="line"/>
    </contour>
    <contour>
      <point x="1013" y="1104" type="line"/>
      <point x="1013" y="1287" type="line"/>
      <point x="-19" y="1287" type="line"/>
      <point x="-19" y="1104" type="line"/>
    </contour>
  </outline>
</glyph>
<glyph name="t-deva" format="1">
  <advance width="595"/>
  <outline>
    <contour>
      <point x="-19" y="1287" type="line"/>
      <point x="-19" y="1104" type="line"/>
      <point x="640" y="1104" type="line"/>
      <point x="640" y="1287" type="line"/>
    </contour>
    <contour>
      <point x="419" y="858" type="line" smooth="yes"/>
      <point x="205" y="858"/>
      <point x="61" y="750"/>
      <point x="61" y="566" type="curve" smooth="yes"/>
      <point x="61" y="365"/>
      <point x="179" y="131"/>
      <point x="310" y="-38" type="curve"/>
      <point x="474" y="71" type="line"/>
      <point x="321" y="302"/>
      <point x="275" y="439"/>
      <point x="275" y="534" type="curve" smooth="yes"/>
      <point x="275" y="633"/>
      <point x="326" y="661"/>
      <point x="439" y="661" type="curve" smooth="yes"/>
      <point x="860" y="661" type="line"/>
      <point x="816" y="858" type="line"/>
    </contour>
  </outline>
</glyph>
<glyph name="t_t_ya-deva" format="1">
  <advance width="2354"/>
  <outline>
    <contour>
      <point x="207" y="869"/>
      <point x="61" y="764"/>
      <point x="61" y="577" type="curve" smooth="yes"/>
      <point x="61" y="365"/>
      <point x="179" y="131"/>
      <point x="310" y="-38" type="curve"/>
      <point x="474" y="71" type="line"/>
      <point x="321" y="302"/>
      <point x="275" y="439"/>
      <point x="275" y="545" type="curve" smooth="yes"/>
      <point x="275" y="641"/>
      <point x="322" y="672"/>
      <point x="473" y="672" type="curve" smooth="yes"/>
      <point x="621" y="672"/>
      <point x="692" y="631"/>
      <point x="840" y="520" type="curve"/>
      <point x="815" y="755" type="line"/>
      <point x="719" y="834"/>
      <point x="589" y="869"/>
      <point x="437" y="869" type="curve" smooth="yes"/>
    </contour>
    <contour>
      <point x="816" y="869"/>
      <point x="670" y="764"/>
      <point x="670" y="577" type="curve" smooth="yes"/>
      <point x="670" y="365"/>
      <point x="788" y="131"/>
      <point x="919" y="-38" type="curve"/>
      <point x="1083" y="71" type="line"/>
      <point x="930" y="302"/>
      <point x="884" y="439"/>
      <point x="884" y="545" type="curve" smooth="yes"/>
      <point x="884" y="641"/>
      <point x="931" y="672"/>
      <point x="1082" y="672" type="curve" smooth="yes"/>
      <point x="1230" y="672"/>
      <point x="1301" y="631"/>
      <point x="1422" y="548" type="curve"/>
      <point x="1423" y="756" type="line"/>
      <point x="1328" y="834"/>
      <point x="1198" y="869"/>
      <point x="1046" y="869" type="curve" smooth="yes"/>
    </contour>
    <contour>
      <point x="-19" y="1287" type="line"/>
      <point x="-19" y="1104" type="line"/>
      <point x="640" y="1104" type="line"/>
      <point x="640" y="1287" type="line"/>
    </contour>
    <contour>
      <point x="576" y="1287" type="line"/>
      <point x="576" y="1104" type="line"/>
      <point x="1235" y="1104" type="line"/>
      <point x="1235" y="1287" type="line"/>
    </contour>
    <component base="ya-deva" xOffset="1191"/>
  </outline>
</glyph>
<glyph name="t_ta-deva" format="1">
  <advance width="1294"/>
  <outline>
    <contour>
      <point x="73" y="856" type="line"/>
      <point x="73" y="665" type="line"/>
      <point x="630" y="665" type="line"/>
      <point x="630" y="856" type="line"/>
    </contour>
    <contour>
      <point x="-19" y="1287" type="line"/>
      <point x="-19" y="1104" type="line"/>
      <point x="368" y="1104" type="line"/>
      <point x="368" y="1287" type="line"/>
    </contour>
    <component base="ta-deva" xOffset="185"/>
    <contour>
      <point x="1021" y="1167" type="move" name="top"/>
    </contour>
    <contour>
      <point x="1020" y="27" type="move" name="bottom"/>
    </contour>
    <contour>
      <point x="595" y="1167" type="move" name="topcandra"/>
    </contour>
  </outline>
</glyph>
<glyph name="ta_ra-deva" format="1">
  <advance width="1041"/>
  <outline>
    <contour>
      <point x="720" y="469" type="line"/>
      <point x="724" y="597" type="line"/>
      <point x="483" y="914"/>
      <point x="378" y="939"/>
      <point x="267" y="940" type="curve" smooth="yes"/>
      <point x="169" y="940"/>
      <point x="95" y="903"/>
      <point x="30" y="862" type="curve"/>
      <point x="112" y="682" type="line"/>
      <point x="193" y="722"/>
      <point x="248" y="742"/>
      <point x="297" y="742" type="curve" smooth="yes"/>
      <point x="377" y="741"/>
      <point x="449" y="685"/>
      <point x="601" y="525" type="curve"/>
      <point x="602" y="589" type="line"/>
      <point x="98" y="220" type="line"/>
      <point x="224" y="68" type="line"/>
    </contour>
    <contour>
      <point x="866" y="0" type="line"/>
      <point x="866" y="1148" type="line"/>
      <point x="656" y="1148" type="line"/>
      <point x="656" y="0" type="line"/>
    </contour>
    <contour>
      <point x="1060" y="1104" type="line"/>
      <point x="1060" y="1287" type="line"/>
      <point x="-19" y="1287" type="line"/>
      <point x="-19" y="1104" type="line"/>
    </contour>
    <contour>
      <point x="761" y="1167" type="move" name="top"/>
    </contour>
    <contour>
      <point x="761" y="27" type="move" name="bottom"/>
    </contour>
    <contour>
      <point x="569" y="1167" type="move" name="topcandra"/>
    </contour>
  </outline>
</glyph>
<glyph name="th-deva" format="1">
  <advance width="718"/>
  <outline>
    <contour>
      <point x="300" y="587" type="line"/>
      <point x="477" y="650"/>
      <point x="667" y="782"/>
      <point x="667" y="999" type="curve" smooth="yes"/>
      <point x="667" y="1137"/>
      <point x="571" y="1306"/>
      <point x="348" y="1306" type="curve" smooth="yes"/>
      <point x="174" y="1306"/>
      <point x="88" y="1202"/>
      <point x="89" y="1091" type="curve" smooth="yes"/>
      <point x="89" y="1005"/>
      <point x="146" y="929"/>
      <point x="242" y="880" type="curve"/>
      <point x="325" y="970" type="line"/>
      <point x="291" y="1001"/>
      <point x="270" y="1029"/>
      <point x="270" y="1065" type="curve" smooth="yes"/>
      <point x="270" y="1105"/>
      <point x="298" y="1131"/>
      <point x="354" y="1131" type="curve" smooth="yes"/>
      <point x="422" y="1131"/>
      <point x="464" y="1086"/>
      <point x="464" y="1012" type="curve" smooth="yes"/>
      <point x="464" y="855"/>
      <point x="280" y="765"/>
      <point x="131" y="704" type="curve"/>
      <point x="182" y="375"/>
      <point x="374" y="238"/>
      <point x="606" y="238" type="curve" smooth="yes"/>
      <point x="733" y="238"/>
      <point x="876" y="293"/>
      <point x="995" y="401" type="curve"/>
      <point x="961" y="604" type="line"/>
      <point x="848" y="472"/>
      <point x="720" y="426"/>
      <point x="610" y="426" type="curve" smooth="yes"/>
      <point x="481" y="426"/>
      <point x="376" y="474"/>
      <point x="316" y="648" type="curve"/>
    </contour>
  </outline>
</glyph>
<glyph name="three.numr" format="1">
  <advance width="789"/>
  <outline>
    <contour>
      <point x="186" y="756" type="curve" name="hr01"/>
      <point x="81" y="676" type="line"/>
      <point x="145" y="581"/>
      <point x="256" y="517"/>
      <point x="389" y="517" type="curve" smooth="yes"/>
      <point x="547" y="517"/>
      <point x="682" y="611"/>
      <point x="682" y="759" type="curve" smooth="yes"/>
      <point x="682" y="861"/>
      <point x="607" y="929"/>
      <point x="520" y="956" type="curve"/>
      <point x="599" y="995"/>
      <point x="652" y="1056"/>
      <point x="652" y="1147" type="curve" name="hr02" smooth="yes"/>
      <point x="652" y="1283"/>
      <point x="529" y="1365"/>
      <point x="388" y="1365" type="curve" smooth="yes"/>
      <point x="272" y="1365"/>
      <point x="190" y="1316"/>
      <point x="113" y="1232" type="curve"/>
      <point x="210" y="1146" type="line"/>
      <point x="252" y="1199"/>
      <point x="304" y="1237"/>
      <point x="360" y="1237" type="curve" smooth="yes"/>
      <point x="438" y="1237"/>
      <point x="489" y="1193"/>
      <point x="489" y="1125" type="curve" smooth="yes"/>
      <point x="489" y="1049"/>
      <point x="415" y="999"/>
      <point x="292" y="999" type="curve"/>
      <point x="292" y="898" type="line"/>
      <point x="438" y="898"/>
      <point x="518" y="855"/>
      <point x="518" y="771" type="curve" name="hr03" smooth="yes"/>
      <point x="518" y="692"/>
      <point x="454" y="646"/>
      <point x="375" y="646" type="curve" smooth="yes"/>
      <point x="299" y="646"/>
      <point x="235" y="686"/>
    </contour>
  </outline>
</glyph>
<glyph name="three.pnum" format="1">
  <advance width="1042"/>
  <outline>
    <contour>
      <point x="156" y="301" type="curve" name="hr01"/>
      <point x="50" y="160" type="line"/>
      <point x="140" y="58"/>
      <point x="279" y="-25"/>
      <point x="489" y="-25" type="curve" smooth="yes"/>
      <point x="743" y="-25"/>
      <point x="939" y="122"/>
      <point x="939" y="356" type="curve" smooth="yes"/>
      <point x="939" y="532"/>
      <point x="820" y="650"/>
      <point x="666" y="677" type="curve"/>
      <point x="666" y="685" type="line"/>
      <point x="806" y="740"/>
      <point x="895" y="869"/>
      <point x="895" y="1017" type="curve" name="hr02" smooth="yes"/>
      <point x="895" y="1235"/>
      <point x="724" y="1367"/>
      <point x="481" y="1367" type="curve" smooth="yes"/>
      <point x="325" y="1367"/>
      <point x="200" y="1308"/>
      <point x="93" y="1210" type="curve"/>
      <point x="206" y="1074" type="line"/>
      <point x="285" y="1150"/>
      <point x="369" y="1192"/>
      <point x="471" y="1192" type="curve" smooth="yes"/>
      <point x="597" y="1192"/>
      <point x="673" y="1114"/>
      <point x="673" y="1001" type="curve" smooth="yes"/>
      <point x="673" y="877"/>
      <point x="588" y="754"/>
      <point x="328" y="754" type="curve"/>
      <point x="328" y="593" type="line"/>
      <point x="627" y="593"/>
      <point x="719" y="507"/>
      <point x="719" y="367" type="curve" name="hr03" smooth="yes"/>
      <point x="719" y="240"/>
      <point x="624" y="155"/>
      <point x="471" y="155" type="curve" smooth="yes"/>
      <point x="334" y="155"/>
      <point x="234" y="221"/>
    </contour>
  </outline>
</glyph>
<glyph name="two.dnom" format="1">
  <advance width="789"/>
  <outline>
    <contour>
      <point x="116" y="92" type="curve" name="hr00"/>
      <point x="116" y="0" type="line"/>
      <point x="681" y="0" type="line"/>
      <point x="681" y="140" type="line"/>
      <point x="380" y="140" type="line"/>
      <point x="528" y="295"/>
      <point x="645" y="417"/>
      <point x="645" y="560" type="curve" smooth="yes"/>
      <point x="645" y="730"/>
      <point x="534" y="823"/>
      <point x="368" y="823" type="curve" smooth="yes"/>
      <point x="254" y="823"/>
      <point x="156" y="763"/>
      <point x="87" y="665" type="curve"/>
      <point x="183" y="577" type="line"/>
      <point x="228" y="640"/>
      <point x="282" y="686"/>
      <point x="345" y="686" type="curve" smooth="yes"/>
      <point x="431" y="686"/>
      <point x="484" y="628"/>
      <point x="484" y="534" type="curve" smooth="yes"/>
      <point x="484" y="421"/>
      <point x="347" y="294"/>
    </contour>
  </outline>
</glyph>
<glyph name="uni0300.cap" format="1">
  <advance width="0"/>
  <outline>
    <contour>
      <point x="-652" y="1678" type="line" name="hr00"/>
      <point x="-892" y="1678" type="line"/>
      <point x="-656" y="1443" type="line"/>
      <point x="-477" y="1443" type="line"/>
    </contour>
    <contour>
      <point x="-600" y="1386" type="move" name="_mark0"/>
    </contour>
  </outline>
</glyph>
<glyph name="uni03020303.cap" format="1">
  <advance width="0"/>
  <outline>
    <contour>
      <point x="-712" y="1944" type="curve" name="hr01" smooth="yes"/>
      <point x="-805" y="1944"/>
      <point x="-871" y="1865"/>
      <point x="-883" y="1738" type="curve" name="hr02"/>
      <point x="-779" y="1738" type="line"/>
      <point x="-769" y="1795"/>
      <point x="-739" y="1824"/>
      <point x="-700" y="1824" type="curve" name="hr03" smooth="yes"/>
      <point x="-639" y="1824"/>
      <point x="-587" y="1738"/>
      <point x="-488" y="1738" type="curve" name="hr04" smooth="yes"/>
      <point x="-395" y="1738"/>
      <point x="-329" y="1818"/>
      <point x="-317" y="1944" type="curve"/>
      <point x="-421" y="1944" type="line"/>
      <point x="-431" y="1888"/>
      <point x="-461" y="1857"/>
      <point x="-500" y="1857" type="curve" smooth="yes"/>
      <point x="-561" y="1857"/>
      <point x="-613" y="1944"/>
    </contour>
    <contour>
      <point x="-695" y="1666" type="line" name="hr06"/>
      <point x="-886" y="1443" type="line"/>
      <point x="-725" y="1443" type="line"/>
      <point x="-604" y="1564" type="line"/>
      <point x="-596" y="1564" type="line"/>
      <point x="-475" y="1443" type="line"/>
      <point x="-314" y="1443" type="line"/>
      <point x="-505" y="1666" type="line"/>
    </contour>
    <contour>
      <point x="-600" y="1386" type="move" name="_mark0"/>
    </contour>
  </outline>
</glyph>
<glyph name="uni03020306" format="1">
  <advance width="0"/>
  <outline>
    <contour>
      <point x="-735" y="1667" type="curve" name="hr00"/>
      <point x="-847" y="1667" type="line"/>
      <point x="-839" y="1555"/>
      <point x="-763" y="1455"/>
      <point x="-600" y="1455" type="curve" smooth="yes"/>
      <point x="-437" y="1455"/>
      <point x="-361" y="1555"/>
      <point x="-353" y="1667" type="curve"/>
      <point x="-465" y="1667" type="line"/>
      <point x="-475" y="1610"/>
      <point x="-515" y="1566"/>
      <point x="-600" y="1566" type="curve" smooth="yes"/>
      <point x="-685" y="1566"/>
      <point x="-725" y="1610"/>
    </contour>
    <contour>
      <point x="-499" y="1389" type="line"/>
      <point x="-701" y="1389" type="line"/>
      <point x="-872" y="1171" type="line"/>
      <point x="-724" y="1171" type="line"/>
      <point x="-604" y="1300" type="line"/>
      <point x="-596" y="1300" type="line"/>
      <point x="-476" y="1171" type="line"/>
      <point x="-328" y="1171" type="line"/>
    </contour>
    <contour>
      <point x="-600" y="1048" type="move" name="_mark0"/>
    </contour>
  </outline>
</glyph>
